%TF.GenerationSoftware,KiCad,Pcbnew,(5.1.6-0-10_14)*%
%TF.CreationDate,2020-09-29T03:50:34-04:00*%
%TF.ProjectId,C64 Modulator,43363420-4d6f-4647-956c-61746f722e6b,rev?*%
%TF.SameCoordinates,Original*%
%TF.FileFunction,Copper,L2,Bot*%
%TF.FilePolarity,Positive*%
%FSLAX46Y46*%
G04 Gerber Fmt 4.6, Leading zero omitted, Abs format (unit mm)*
G04 Created by KiCad (PCBNEW (5.1.6-0-10_14)) date 2020-09-29 03:50:34*
%MOMM*%
%LPD*%
G01*
G04 APERTURE LIST*
%ADD10C,0.100000*%
%ADD11C,0.150000*%
%ADD12C,0.300000*%
%ADD13C,0.400000*%
%TA.AperFunction,ComponentPad*%
%ADD14O,2.000000X1.905000*%
%TD*%
%TA.AperFunction,ComponentPad*%
%ADD15R,2.000000X1.905000*%
%TD*%
%TA.AperFunction,ComponentPad*%
%ADD16C,5.000000*%
%TD*%
%TA.AperFunction,ComponentPad*%
%ADD17O,1.700000X1.700000*%
%TD*%
%TA.AperFunction,ComponentPad*%
%ADD18R,1.700000X1.700000*%
%TD*%
%TA.AperFunction,ComponentPad*%
%ADD19O,1.600000X1.600000*%
%TD*%
%TA.AperFunction,ComponentPad*%
%ADD20C,1.600000*%
%TD*%
%TA.AperFunction,ComponentPad*%
%ADD21R,1.500000X1.050000*%
%TD*%
%TA.AperFunction,ComponentPad*%
%ADD22O,1.500000X1.050000*%
%TD*%
%TA.AperFunction,ComponentPad*%
%ADD23R,1.600000X1.600000*%
%TD*%
%TA.AperFunction,ComponentPad*%
%ADD24R,3.500000X2.500000*%
%TD*%
%TA.AperFunction,ComponentPad*%
%ADD25O,1.750000X3.500000*%
%TD*%
%TA.AperFunction,ComponentPad*%
%ADD26O,1.998980X3.197860*%
%TD*%
%TA.AperFunction,ComponentPad*%
%ADD27O,3.197860X1.998980*%
%TD*%
%TA.AperFunction,ViaPad*%
%ADD28C,0.600000*%
%TD*%
%TA.AperFunction,Conductor*%
%ADD29C,0.500000*%
%TD*%
%TA.AperFunction,Conductor*%
%ADD30C,0.250000*%
%TD*%
%TA.AperFunction,Conductor*%
%ADD31C,0.254000*%
%TD*%
G04 APERTURE END LIST*
D10*
D11*
X177002200Y-166007200D02*
X177002200Y-198007200D01*
X285002200Y-198007200D01*
X285002200Y-166007200D01*
X177002200Y-166007200D01*
D10*
D11*
X10000000Y-10000000D02*
X10000000Y-200007200D01*
X287002200Y-200007200D01*
X287002200Y-10000000D01*
X10000000Y-10000000D01*
D10*
D11*
X12000000Y-12000000D02*
X12000000Y-198007200D01*
X285002200Y-198007200D01*
X285002200Y-12000000D01*
X12000000Y-12000000D01*
D10*
D11*
X60000000Y-12000000D02*
X60000000Y-10000000D01*
D10*
D11*
X110000000Y-12000000D02*
X110000000Y-10000000D01*
D10*
D11*
X160000000Y-12000000D02*
X160000000Y-10000000D01*
D10*
D11*
X210000000Y-12000000D02*
X210000000Y-10000000D01*
D10*
D11*
X260000000Y-12000000D02*
X260000000Y-10000000D01*
D10*
D11*
X36065476Y-11588095D02*
X35322619Y-11588095D01*
X35694047Y-11588095D02*
X35694047Y-10288095D01*
X35570238Y-10473809D01*
X35446428Y-10597619D01*
X35322619Y-10659523D01*
D10*
D11*
X85322619Y-10411904D02*
X85384523Y-10350000D01*
X85508333Y-10288095D01*
X85817857Y-10288095D01*
X85941666Y-10350000D01*
X86003571Y-10411904D01*
X86065476Y-10535714D01*
X86065476Y-10659523D01*
X86003571Y-10845238D01*
X85260714Y-11588095D01*
X86065476Y-11588095D01*
D10*
D11*
X135260714Y-10288095D02*
X136065476Y-10288095D01*
X135632142Y-10783333D01*
X135817857Y-10783333D01*
X135941666Y-10845238D01*
X136003571Y-10907142D01*
X136065476Y-11030952D01*
X136065476Y-11340476D01*
X136003571Y-11464285D01*
X135941666Y-11526190D01*
X135817857Y-11588095D01*
X135446428Y-11588095D01*
X135322619Y-11526190D01*
X135260714Y-11464285D01*
D10*
D11*
X185941666Y-10721428D02*
X185941666Y-11588095D01*
X185632142Y-10226190D02*
X185322619Y-11154761D01*
X186127380Y-11154761D01*
D10*
D11*
X236003571Y-10288095D02*
X235384523Y-10288095D01*
X235322619Y-10907142D01*
X235384523Y-10845238D01*
X235508333Y-10783333D01*
X235817857Y-10783333D01*
X235941666Y-10845238D01*
X236003571Y-10907142D01*
X236065476Y-11030952D01*
X236065476Y-11340476D01*
X236003571Y-11464285D01*
X235941666Y-11526190D01*
X235817857Y-11588095D01*
X235508333Y-11588095D01*
X235384523Y-11526190D01*
X235322619Y-11464285D01*
D10*
D11*
X285941666Y-10288095D02*
X285694047Y-10288095D01*
X285570238Y-10350000D01*
X285508333Y-10411904D01*
X285384523Y-10597619D01*
X285322619Y-10845238D01*
X285322619Y-11340476D01*
X285384523Y-11464285D01*
X285446428Y-11526190D01*
X285570238Y-11588095D01*
X285817857Y-11588095D01*
X285941666Y-11526190D01*
X286003571Y-11464285D01*
X286065476Y-11340476D01*
X286065476Y-11030952D01*
X286003571Y-10907142D01*
X285941666Y-10845238D01*
X285817857Y-10783333D01*
X285570238Y-10783333D01*
X285446428Y-10845238D01*
X285384523Y-10907142D01*
X285322619Y-11030952D01*
D10*
D11*
X60000000Y-198007200D02*
X60000000Y-200007200D01*
D10*
D11*
X110000000Y-198007200D02*
X110000000Y-200007200D01*
D10*
D11*
X160000000Y-198007200D02*
X160000000Y-200007200D01*
D10*
D11*
X210000000Y-198007200D02*
X210000000Y-200007200D01*
D10*
D11*
X260000000Y-198007200D02*
X260000000Y-200007200D01*
D10*
D11*
X36065476Y-199595295D02*
X35322619Y-199595295D01*
X35694047Y-199595295D02*
X35694047Y-198295295D01*
X35570238Y-198481009D01*
X35446428Y-198604819D01*
X35322619Y-198666723D01*
D10*
D11*
X85322619Y-198419104D02*
X85384523Y-198357200D01*
X85508333Y-198295295D01*
X85817857Y-198295295D01*
X85941666Y-198357200D01*
X86003571Y-198419104D01*
X86065476Y-198542914D01*
X86065476Y-198666723D01*
X86003571Y-198852438D01*
X85260714Y-199595295D01*
X86065476Y-199595295D01*
D10*
D11*
X135260714Y-198295295D02*
X136065476Y-198295295D01*
X135632142Y-198790533D01*
X135817857Y-198790533D01*
X135941666Y-198852438D01*
X136003571Y-198914342D01*
X136065476Y-199038152D01*
X136065476Y-199347676D01*
X136003571Y-199471485D01*
X135941666Y-199533390D01*
X135817857Y-199595295D01*
X135446428Y-199595295D01*
X135322619Y-199533390D01*
X135260714Y-199471485D01*
D10*
D11*
X185941666Y-198728628D02*
X185941666Y-199595295D01*
X185632142Y-198233390D02*
X185322619Y-199161961D01*
X186127380Y-199161961D01*
D10*
D11*
X236003571Y-198295295D02*
X235384523Y-198295295D01*
X235322619Y-198914342D01*
X235384523Y-198852438D01*
X235508333Y-198790533D01*
X235817857Y-198790533D01*
X235941666Y-198852438D01*
X236003571Y-198914342D01*
X236065476Y-199038152D01*
X236065476Y-199347676D01*
X236003571Y-199471485D01*
X235941666Y-199533390D01*
X235817857Y-199595295D01*
X235508333Y-199595295D01*
X235384523Y-199533390D01*
X235322619Y-199471485D01*
D10*
D11*
X285941666Y-198295295D02*
X285694047Y-198295295D01*
X285570238Y-198357200D01*
X285508333Y-198419104D01*
X285384523Y-198604819D01*
X285322619Y-198852438D01*
X285322619Y-199347676D01*
X285384523Y-199471485D01*
X285446428Y-199533390D01*
X285570238Y-199595295D01*
X285817857Y-199595295D01*
X285941666Y-199533390D01*
X286003571Y-199471485D01*
X286065476Y-199347676D01*
X286065476Y-199038152D01*
X286003571Y-198914342D01*
X285941666Y-198852438D01*
X285817857Y-198790533D01*
X285570238Y-198790533D01*
X285446428Y-198852438D01*
X285384523Y-198914342D01*
X285322619Y-199038152D01*
D10*
D11*
X10000000Y-60000000D02*
X12000000Y-60000000D01*
D10*
D11*
X10000000Y-110000000D02*
X12000000Y-110000000D01*
D10*
D11*
X10000000Y-160000000D02*
X12000000Y-160000000D01*
D10*
D11*
X10690476Y-35216666D02*
X11309523Y-35216666D01*
X10566666Y-35588095D02*
X11000000Y-34288095D01*
X11433333Y-35588095D01*
D10*
D11*
X11092857Y-84907142D02*
X11278571Y-84969047D01*
X11340476Y-85030952D01*
X11402380Y-85154761D01*
X11402380Y-85340476D01*
X11340476Y-85464285D01*
X11278571Y-85526190D01*
X11154761Y-85588095D01*
X10659523Y-85588095D01*
X10659523Y-84288095D01*
X11092857Y-84288095D01*
X11216666Y-84350000D01*
X11278571Y-84411904D01*
X11340476Y-84535714D01*
X11340476Y-84659523D01*
X11278571Y-84783333D01*
X11216666Y-84845238D01*
X11092857Y-84907142D01*
X10659523Y-84907142D01*
D10*
D11*
X11402380Y-135464285D02*
X11340476Y-135526190D01*
X11154761Y-135588095D01*
X11030952Y-135588095D01*
X10845238Y-135526190D01*
X10721428Y-135402380D01*
X10659523Y-135278571D01*
X10597619Y-135030952D01*
X10597619Y-134845238D01*
X10659523Y-134597619D01*
X10721428Y-134473809D01*
X10845238Y-134350000D01*
X11030952Y-134288095D01*
X11154761Y-134288095D01*
X11340476Y-134350000D01*
X11402380Y-134411904D01*
D10*
D11*
X10659523Y-185588095D02*
X10659523Y-184288095D01*
X10969047Y-184288095D01*
X11154761Y-184350000D01*
X11278571Y-184473809D01*
X11340476Y-184597619D01*
X11402380Y-184845238D01*
X11402380Y-185030952D01*
X11340476Y-185278571D01*
X11278571Y-185402380D01*
X11154761Y-185526190D01*
X10969047Y-185588095D01*
X10659523Y-185588095D01*
D10*
D11*
X287002200Y-60000000D02*
X285002200Y-60000000D01*
D10*
D11*
X287002200Y-110000000D02*
X285002200Y-110000000D01*
D10*
D11*
X287002200Y-160000000D02*
X285002200Y-160000000D01*
D10*
D11*
X285692676Y-35216666D02*
X286311723Y-35216666D01*
X285568866Y-35588095D02*
X286002200Y-34288095D01*
X286435533Y-35588095D01*
D10*
D11*
X286095057Y-84907142D02*
X286280771Y-84969047D01*
X286342676Y-85030952D01*
X286404580Y-85154761D01*
X286404580Y-85340476D01*
X286342676Y-85464285D01*
X286280771Y-85526190D01*
X286156961Y-85588095D01*
X285661723Y-85588095D01*
X285661723Y-84288095D01*
X286095057Y-84288095D01*
X286218866Y-84350000D01*
X286280771Y-84411904D01*
X286342676Y-84535714D01*
X286342676Y-84659523D01*
X286280771Y-84783333D01*
X286218866Y-84845238D01*
X286095057Y-84907142D01*
X285661723Y-84907142D01*
D10*
D11*
X286404580Y-135464285D02*
X286342676Y-135526190D01*
X286156961Y-135588095D01*
X286033152Y-135588095D01*
X285847438Y-135526190D01*
X285723628Y-135402380D01*
X285661723Y-135278571D01*
X285599819Y-135030952D01*
X285599819Y-134845238D01*
X285661723Y-134597619D01*
X285723628Y-134473809D01*
X285847438Y-134350000D01*
X286033152Y-134288095D01*
X286156961Y-134288095D01*
X286342676Y-134350000D01*
X286404580Y-134411904D01*
D10*
D11*
X285661723Y-185588095D02*
X285661723Y-184288095D01*
X285971247Y-184288095D01*
X286156961Y-184350000D01*
X286280771Y-184473809D01*
X286342676Y-184597619D01*
X286404580Y-184845238D01*
X286404580Y-185030952D01*
X286342676Y-185278571D01*
X286280771Y-185402380D01*
X286156961Y-185526190D01*
X285971247Y-185588095D01*
X285661723Y-185588095D01*
D10*
D11*
X200434342Y-193785771D02*
X200434342Y-192285771D01*
X200791485Y-192285771D01*
X201005771Y-192357200D01*
X201148628Y-192500057D01*
X201220057Y-192642914D01*
X201291485Y-192928628D01*
X201291485Y-193142914D01*
X201220057Y-193428628D01*
X201148628Y-193571485D01*
X201005771Y-193714342D01*
X200791485Y-193785771D01*
X200434342Y-193785771D01*
X202577200Y-193785771D02*
X202577200Y-193000057D01*
X202505771Y-192857200D01*
X202362914Y-192785771D01*
X202077200Y-192785771D01*
X201934342Y-192857200D01*
X202577200Y-193714342D02*
X202434342Y-193785771D01*
X202077200Y-193785771D01*
X201934342Y-193714342D01*
X201862914Y-193571485D01*
X201862914Y-193428628D01*
X201934342Y-193285771D01*
X202077200Y-193214342D01*
X202434342Y-193214342D01*
X202577200Y-193142914D01*
X203077200Y-192785771D02*
X203648628Y-192785771D01*
X203291485Y-192285771D02*
X203291485Y-193571485D01*
X203362914Y-193714342D01*
X203505771Y-193785771D01*
X203648628Y-193785771D01*
X204720057Y-193714342D02*
X204577200Y-193785771D01*
X204291485Y-193785771D01*
X204148628Y-193714342D01*
X204077200Y-193571485D01*
X204077200Y-193000057D01*
X204148628Y-192857200D01*
X204291485Y-192785771D01*
X204577200Y-192785771D01*
X204720057Y-192857200D01*
X204791485Y-193000057D01*
X204791485Y-193142914D01*
X204077200Y-193285771D01*
X205434342Y-193642914D02*
X205505771Y-193714342D01*
X205434342Y-193785771D01*
X205362914Y-193714342D01*
X205434342Y-193642914D01*
X205434342Y-193785771D01*
X205434342Y-192857200D02*
X205505771Y-192928628D01*
X205434342Y-193000057D01*
X205362914Y-192928628D01*
X205434342Y-192857200D01*
X205434342Y-193000057D01*
D10*
D11*
X177002200Y-194507200D02*
X285002200Y-194507200D01*
D10*
D11*
X178434342Y-196585771D02*
X178434342Y-195085771D01*
X179291485Y-196585771D02*
X178648628Y-195728628D01*
X179291485Y-195085771D02*
X178434342Y-195942914D01*
X179934342Y-196585771D02*
X179934342Y-195585771D01*
X179934342Y-195085771D02*
X179862914Y-195157200D01*
X179934342Y-195228628D01*
X180005771Y-195157200D01*
X179934342Y-195085771D01*
X179934342Y-195228628D01*
X181505771Y-196442914D02*
X181434342Y-196514342D01*
X181220057Y-196585771D01*
X181077200Y-196585771D01*
X180862914Y-196514342D01*
X180720057Y-196371485D01*
X180648628Y-196228628D01*
X180577200Y-195942914D01*
X180577200Y-195728628D01*
X180648628Y-195442914D01*
X180720057Y-195300057D01*
X180862914Y-195157200D01*
X181077200Y-195085771D01*
X181220057Y-195085771D01*
X181434342Y-195157200D01*
X181505771Y-195228628D01*
X182791485Y-196585771D02*
X182791485Y-195800057D01*
X182720057Y-195657200D01*
X182577200Y-195585771D01*
X182291485Y-195585771D01*
X182148628Y-195657200D01*
X182791485Y-196514342D02*
X182648628Y-196585771D01*
X182291485Y-196585771D01*
X182148628Y-196514342D01*
X182077200Y-196371485D01*
X182077200Y-196228628D01*
X182148628Y-196085771D01*
X182291485Y-196014342D01*
X182648628Y-196014342D01*
X182791485Y-195942914D01*
X184148628Y-196585771D02*
X184148628Y-195085771D01*
X184148628Y-196514342D02*
X184005771Y-196585771D01*
X183720057Y-196585771D01*
X183577200Y-196514342D01*
X183505771Y-196442914D01*
X183434342Y-196300057D01*
X183434342Y-195871485D01*
X183505771Y-195728628D01*
X183577200Y-195657200D01*
X183720057Y-195585771D01*
X184005771Y-195585771D01*
X184148628Y-195657200D01*
X186005771Y-195800057D02*
X186505771Y-195800057D01*
X186720057Y-196585771D02*
X186005771Y-196585771D01*
X186005771Y-195085771D01*
X186720057Y-195085771D01*
X187362914Y-196442914D02*
X187434342Y-196514342D01*
X187362914Y-196585771D01*
X187291485Y-196514342D01*
X187362914Y-196442914D01*
X187362914Y-196585771D01*
X188077200Y-196585771D02*
X188077200Y-195085771D01*
X188434342Y-195085771D01*
X188648628Y-195157200D01*
X188791485Y-195300057D01*
X188862914Y-195442914D01*
X188934342Y-195728628D01*
X188934342Y-195942914D01*
X188862914Y-196228628D01*
X188791485Y-196371485D01*
X188648628Y-196514342D01*
X188434342Y-196585771D01*
X188077200Y-196585771D01*
X189577200Y-196442914D02*
X189648628Y-196514342D01*
X189577200Y-196585771D01*
X189505771Y-196514342D01*
X189577200Y-196442914D01*
X189577200Y-196585771D01*
X190220057Y-196157200D02*
X190934342Y-196157200D01*
X190077200Y-196585771D02*
X190577200Y-195085771D01*
X191077200Y-196585771D01*
X191577200Y-196442914D02*
X191648628Y-196514342D01*
X191577200Y-196585771D01*
X191505771Y-196514342D01*
X191577200Y-196442914D01*
X191577200Y-196585771D01*
X194577200Y-196585771D02*
X194577200Y-195085771D01*
X194720057Y-196014342D02*
X195148628Y-196585771D01*
X195148628Y-195585771D02*
X194577200Y-196157200D01*
X195791485Y-196585771D02*
X195791485Y-195585771D01*
X195791485Y-195085771D02*
X195720057Y-195157200D01*
X195791485Y-195228628D01*
X195862914Y-195157200D01*
X195791485Y-195085771D01*
X195791485Y-195228628D01*
X197148628Y-196514342D02*
X197005771Y-196585771D01*
X196720057Y-196585771D01*
X196577200Y-196514342D01*
X196505771Y-196442914D01*
X196434342Y-196300057D01*
X196434342Y-195871485D01*
X196505771Y-195728628D01*
X196577200Y-195657200D01*
X196720057Y-195585771D01*
X197005771Y-195585771D01*
X197148628Y-195657200D01*
X198434342Y-196585771D02*
X198434342Y-195800057D01*
X198362914Y-195657200D01*
X198220057Y-195585771D01*
X197934342Y-195585771D01*
X197791485Y-195657200D01*
X198434342Y-196514342D02*
X198291485Y-196585771D01*
X197934342Y-196585771D01*
X197791485Y-196514342D01*
X197720057Y-196371485D01*
X197720057Y-196228628D01*
X197791485Y-196085771D01*
X197934342Y-196014342D01*
X198291485Y-196014342D01*
X198434342Y-195942914D01*
X199791485Y-196585771D02*
X199791485Y-195085771D01*
X199791485Y-196514342D02*
X199648628Y-196585771D01*
X199362914Y-196585771D01*
X199220057Y-196514342D01*
X199148628Y-196442914D01*
X199077200Y-196300057D01*
X199077200Y-195871485D01*
X199148628Y-195728628D01*
X199220057Y-195657200D01*
X199362914Y-195585771D01*
X199648628Y-195585771D01*
X199791485Y-195657200D01*
X202077200Y-197157200D02*
X202005771Y-197085771D01*
X201862914Y-196871485D01*
X201791485Y-196728628D01*
X201720057Y-196514342D01*
X201648628Y-196157200D01*
X201648628Y-195871485D01*
X201720057Y-195514342D01*
X201791485Y-195300057D01*
X201862914Y-195157200D01*
X202005771Y-194942914D01*
X202077200Y-194871485D01*
X203362914Y-195085771D02*
X202648628Y-195085771D01*
X202577200Y-195800057D01*
X202648628Y-195728628D01*
X202791485Y-195657200D01*
X203148628Y-195657200D01*
X203291485Y-195728628D01*
X203362914Y-195800057D01*
X203434342Y-195942914D01*
X203434342Y-196300057D01*
X203362914Y-196442914D01*
X203291485Y-196514342D01*
X203148628Y-196585771D01*
X202791485Y-196585771D01*
X202648628Y-196514342D01*
X202577200Y-196442914D01*
X204077200Y-196442914D02*
X204148628Y-196514342D01*
X204077200Y-196585771D01*
X204005771Y-196514342D01*
X204077200Y-196442914D01*
X204077200Y-196585771D01*
X205577200Y-196585771D02*
X204720057Y-196585771D01*
X205148628Y-196585771D02*
X205148628Y-195085771D01*
X205005771Y-195300057D01*
X204862914Y-195442914D01*
X204720057Y-195514342D01*
X206220057Y-196442914D02*
X206291485Y-196514342D01*
X206220057Y-196585771D01*
X206148628Y-196514342D01*
X206220057Y-196442914D01*
X206220057Y-196585771D01*
X207577200Y-195085771D02*
X207291485Y-195085771D01*
X207148628Y-195157200D01*
X207077200Y-195228628D01*
X206934342Y-195442914D01*
X206862914Y-195728628D01*
X206862914Y-196300057D01*
X206934342Y-196442914D01*
X207005771Y-196514342D01*
X207148628Y-196585771D01*
X207434342Y-196585771D01*
X207577200Y-196514342D01*
X207648628Y-196442914D01*
X207720057Y-196300057D01*
X207720057Y-195942914D01*
X207648628Y-195800057D01*
X207577200Y-195728628D01*
X207434342Y-195657200D01*
X207148628Y-195657200D01*
X207005771Y-195728628D01*
X206934342Y-195800057D01*
X206862914Y-195942914D01*
X208362914Y-196014342D02*
X209505771Y-196014342D01*
X210505771Y-195085771D02*
X210648628Y-195085771D01*
X210791485Y-195157200D01*
X210862914Y-195228628D01*
X210934342Y-195371485D01*
X211005771Y-195657200D01*
X211005771Y-196014342D01*
X210934342Y-196300057D01*
X210862914Y-196442914D01*
X210791485Y-196514342D01*
X210648628Y-196585771D01*
X210505771Y-196585771D01*
X210362914Y-196514342D01*
X210291485Y-196442914D01*
X210220057Y-196300057D01*
X210148628Y-196014342D01*
X210148628Y-195657200D01*
X210220057Y-195371485D01*
X210291485Y-195228628D01*
X210362914Y-195157200D01*
X210505771Y-195085771D01*
X211648628Y-196014342D02*
X212791485Y-196014342D01*
X214291485Y-196585771D02*
X213434342Y-196585771D01*
X213862914Y-196585771D02*
X213862914Y-195085771D01*
X213720057Y-195300057D01*
X213577200Y-195442914D01*
X213434342Y-195514342D01*
X215220057Y-195085771D02*
X215362914Y-195085771D01*
X215505771Y-195157200D01*
X215577200Y-195228628D01*
X215648628Y-195371485D01*
X215720057Y-195657200D01*
X215720057Y-196014342D01*
X215648628Y-196300057D01*
X215577200Y-196442914D01*
X215505771Y-196514342D01*
X215362914Y-196585771D01*
X215220057Y-196585771D01*
X215077200Y-196514342D01*
X215005771Y-196442914D01*
X214934342Y-196300057D01*
X214862914Y-196014342D01*
X214862914Y-195657200D01*
X214934342Y-195371485D01*
X215005771Y-195228628D01*
X215077200Y-195157200D01*
X215220057Y-195085771D01*
X216005771Y-196728628D02*
X217148628Y-196728628D01*
X218291485Y-196585771D02*
X217434342Y-196585771D01*
X217862914Y-196585771D02*
X217862914Y-195085771D01*
X217720057Y-195300057D01*
X217577200Y-195442914D01*
X217434342Y-195514342D01*
X219577200Y-195585771D02*
X219577200Y-196585771D01*
X219220057Y-195014342D02*
X218862914Y-196085771D01*
X219791485Y-196085771D01*
X220220057Y-197157200D02*
X220291485Y-197085771D01*
X220434342Y-196871485D01*
X220505771Y-196728628D01*
X220577200Y-196514342D01*
X220648628Y-196157200D01*
X220648628Y-195871485D01*
X220577200Y-195514342D01*
X220505771Y-195300057D01*
X220434342Y-195157200D01*
X220291485Y-194942914D01*
X220220057Y-194871485D01*
D10*
D11*
X177002200Y-191507200D02*
X285002200Y-191507200D01*
D10*
D12*
X264411485Y-193785771D02*
X263911485Y-193071485D01*
X263554342Y-193785771D02*
X263554342Y-192285771D01*
X264125771Y-192285771D01*
X264268628Y-192357200D01*
X264340057Y-192428628D01*
X264411485Y-192571485D01*
X264411485Y-192785771D01*
X264340057Y-192928628D01*
X264268628Y-193000057D01*
X264125771Y-193071485D01*
X263554342Y-193071485D01*
X265625771Y-193714342D02*
X265482914Y-193785771D01*
X265197200Y-193785771D01*
X265054342Y-193714342D01*
X264982914Y-193571485D01*
X264982914Y-193000057D01*
X265054342Y-192857200D01*
X265197200Y-192785771D01*
X265482914Y-192785771D01*
X265625771Y-192857200D01*
X265697200Y-193000057D01*
X265697200Y-193142914D01*
X264982914Y-193285771D01*
X266197200Y-192785771D02*
X266554342Y-193785771D01*
X266911485Y-192785771D01*
X267482914Y-193642914D02*
X267554342Y-193714342D01*
X267482914Y-193785771D01*
X267411485Y-193714342D01*
X267482914Y-193642914D01*
X267482914Y-193785771D01*
X267482914Y-192857200D02*
X267554342Y-192928628D01*
X267482914Y-193000057D01*
X267411485Y-192928628D01*
X267482914Y-192857200D01*
X267482914Y-193000057D01*
D10*
D11*
X178362914Y-193714342D02*
X178577200Y-193785771D01*
X178934342Y-193785771D01*
X179077200Y-193714342D01*
X179148628Y-193642914D01*
X179220057Y-193500057D01*
X179220057Y-193357200D01*
X179148628Y-193214342D01*
X179077200Y-193142914D01*
X178934342Y-193071485D01*
X178648628Y-193000057D01*
X178505771Y-192928628D01*
X178434342Y-192857200D01*
X178362914Y-192714342D01*
X178362914Y-192571485D01*
X178434342Y-192428628D01*
X178505771Y-192357200D01*
X178648628Y-192285771D01*
X179005771Y-192285771D01*
X179220057Y-192357200D01*
X179862914Y-193785771D02*
X179862914Y-192785771D01*
X179862914Y-192285771D02*
X179791485Y-192357200D01*
X179862914Y-192428628D01*
X179934342Y-192357200D01*
X179862914Y-192285771D01*
X179862914Y-192428628D01*
X180434342Y-192785771D02*
X181220057Y-192785771D01*
X180434342Y-193785771D01*
X181220057Y-193785771D01*
X182362914Y-193714342D02*
X182220057Y-193785771D01*
X181934342Y-193785771D01*
X181791485Y-193714342D01*
X181720057Y-193571485D01*
X181720057Y-193000057D01*
X181791485Y-192857200D01*
X181934342Y-192785771D01*
X182220057Y-192785771D01*
X182362914Y-192857200D01*
X182434342Y-193000057D01*
X182434342Y-193142914D01*
X181720057Y-193285771D01*
X183077200Y-193642914D02*
X183148628Y-193714342D01*
X183077200Y-193785771D01*
X183005771Y-193714342D01*
X183077200Y-193642914D01*
X183077200Y-193785771D01*
X183077200Y-192857200D02*
X183148628Y-192928628D01*
X183077200Y-193000057D01*
X183005771Y-192928628D01*
X183077200Y-192857200D01*
X183077200Y-193000057D01*
X184862914Y-193357200D02*
X185577200Y-193357200D01*
X184720057Y-193785771D02*
X185220057Y-192285771D01*
X185720057Y-193785771D01*
X186862914Y-192785771D02*
X186862914Y-193785771D01*
X186505771Y-192214342D02*
X186148628Y-193285771D01*
X187077200Y-193285771D01*
D10*
D11*
X263434342Y-196585771D02*
X263434342Y-195085771D01*
X264791485Y-196585771D02*
X264791485Y-195085771D01*
X264791485Y-196514342D02*
X264648628Y-196585771D01*
X264362914Y-196585771D01*
X264220057Y-196514342D01*
X264148628Y-196442914D01*
X264077200Y-196300057D01*
X264077200Y-195871485D01*
X264148628Y-195728628D01*
X264220057Y-195657200D01*
X264362914Y-195585771D01*
X264648628Y-195585771D01*
X264791485Y-195657200D01*
X265505771Y-196442914D02*
X265577200Y-196514342D01*
X265505771Y-196585771D01*
X265434342Y-196514342D01*
X265505771Y-196442914D01*
X265505771Y-196585771D01*
X265505771Y-195657200D02*
X265577200Y-195728628D01*
X265505771Y-195800057D01*
X265434342Y-195728628D01*
X265505771Y-195657200D01*
X265505771Y-195800057D01*
X268148628Y-196585771D02*
X267291485Y-196585771D01*
X267720057Y-196585771D02*
X267720057Y-195085771D01*
X267577200Y-195300057D01*
X267434342Y-195442914D01*
X267291485Y-195514342D01*
X269862914Y-195014342D02*
X268577200Y-196942914D01*
X271148628Y-196585771D02*
X270291485Y-196585771D01*
X270720057Y-196585771D02*
X270720057Y-195085771D01*
X270577200Y-195300057D01*
X270434342Y-195442914D01*
X270291485Y-195514342D01*
D10*
D11*
X177002200Y-187507200D02*
X285002200Y-187507200D01*
D10*
D13*
X178714580Y-188211961D02*
X179857438Y-188211961D01*
X179036009Y-190211961D02*
X179286009Y-188211961D01*
X180274104Y-190211961D02*
X180440771Y-188878628D01*
X180524104Y-188211961D02*
X180416961Y-188307200D01*
X180500295Y-188402438D01*
X180607438Y-188307200D01*
X180524104Y-188211961D01*
X180500295Y-188402438D01*
X181107438Y-188878628D02*
X181869342Y-188878628D01*
X181476485Y-188211961D02*
X181262200Y-189926247D01*
X181333628Y-190116723D01*
X181512200Y-190211961D01*
X181702676Y-190211961D01*
X182655057Y-190211961D02*
X182476485Y-190116723D01*
X182405057Y-189926247D01*
X182619342Y-188211961D01*
X184190771Y-190116723D02*
X183988390Y-190211961D01*
X183607438Y-190211961D01*
X183428866Y-190116723D01*
X183357438Y-189926247D01*
X183452676Y-189164342D01*
X183571723Y-188973866D01*
X183774104Y-188878628D01*
X184155057Y-188878628D01*
X184333628Y-188973866D01*
X184405057Y-189164342D01*
X184381247Y-189354819D01*
X183405057Y-189545295D01*
X185155057Y-190021485D02*
X185238390Y-190116723D01*
X185131247Y-190211961D01*
X185047914Y-190116723D01*
X185155057Y-190021485D01*
X185131247Y-190211961D01*
X185286009Y-188973866D02*
X185369342Y-189069104D01*
X185262200Y-189164342D01*
X185178866Y-189069104D01*
X185286009Y-188973866D01*
X185262200Y-189164342D01*
D10*
D11*
X178934342Y-185600057D02*
X178434342Y-185600057D01*
X178434342Y-186385771D02*
X178434342Y-184885771D01*
X179148628Y-184885771D01*
X179720057Y-186385771D02*
X179720057Y-185385771D01*
X179720057Y-184885771D02*
X179648628Y-184957200D01*
X179720057Y-185028628D01*
X179791485Y-184957200D01*
X179720057Y-184885771D01*
X179720057Y-185028628D01*
X180648628Y-186385771D02*
X180505771Y-186314342D01*
X180434342Y-186171485D01*
X180434342Y-184885771D01*
X181791485Y-186314342D02*
X181648628Y-186385771D01*
X181362914Y-186385771D01*
X181220057Y-186314342D01*
X181148628Y-186171485D01*
X181148628Y-185600057D01*
X181220057Y-185457200D01*
X181362914Y-185385771D01*
X181648628Y-185385771D01*
X181791485Y-185457200D01*
X181862914Y-185600057D01*
X181862914Y-185742914D01*
X181148628Y-185885771D01*
X182505771Y-186242914D02*
X182577200Y-186314342D01*
X182505771Y-186385771D01*
X182434342Y-186314342D01*
X182505771Y-186242914D01*
X182505771Y-186385771D01*
X182505771Y-185457200D02*
X182577200Y-185528628D01*
X182505771Y-185600057D01*
X182434342Y-185528628D01*
X182505771Y-185457200D01*
X182505771Y-185600057D01*
X185220057Y-186242914D02*
X185148628Y-186314342D01*
X184934342Y-186385771D01*
X184791485Y-186385771D01*
X184577200Y-186314342D01*
X184434342Y-186171485D01*
X184362914Y-186028628D01*
X184291485Y-185742914D01*
X184291485Y-185528628D01*
X184362914Y-185242914D01*
X184434342Y-185100057D01*
X184577200Y-184957200D01*
X184791485Y-184885771D01*
X184934342Y-184885771D01*
X185148628Y-184957200D01*
X185220057Y-185028628D01*
X186505771Y-184885771D02*
X186220057Y-184885771D01*
X186077200Y-184957200D01*
X186005771Y-185028628D01*
X185862914Y-185242914D01*
X185791485Y-185528628D01*
X185791485Y-186100057D01*
X185862914Y-186242914D01*
X185934342Y-186314342D01*
X186077200Y-186385771D01*
X186362914Y-186385771D01*
X186505771Y-186314342D01*
X186577200Y-186242914D01*
X186648628Y-186100057D01*
X186648628Y-185742914D01*
X186577200Y-185600057D01*
X186505771Y-185528628D01*
X186362914Y-185457200D01*
X186077200Y-185457200D01*
X185934342Y-185528628D01*
X185862914Y-185600057D01*
X185791485Y-185742914D01*
X187934342Y-185385771D02*
X187934342Y-186385771D01*
X187577200Y-184814342D02*
X187220057Y-185885771D01*
X188148628Y-185885771D01*
X189862914Y-186385771D02*
X189862914Y-184885771D01*
X190362914Y-185957200D01*
X190862914Y-184885771D01*
X190862914Y-186385771D01*
X191791485Y-186385771D02*
X191648628Y-186314342D01*
X191577200Y-186242914D01*
X191505771Y-186100057D01*
X191505771Y-185671485D01*
X191577200Y-185528628D01*
X191648628Y-185457200D01*
X191791485Y-185385771D01*
X192005771Y-185385771D01*
X192148628Y-185457200D01*
X192220057Y-185528628D01*
X192291485Y-185671485D01*
X192291485Y-186100057D01*
X192220057Y-186242914D01*
X192148628Y-186314342D01*
X192005771Y-186385771D01*
X191791485Y-186385771D01*
X193577200Y-186385771D02*
X193577200Y-184885771D01*
X193577200Y-186314342D02*
X193434342Y-186385771D01*
X193148628Y-186385771D01*
X193005771Y-186314342D01*
X192934342Y-186242914D01*
X192862914Y-186100057D01*
X192862914Y-185671485D01*
X192934342Y-185528628D01*
X193005771Y-185457200D01*
X193148628Y-185385771D01*
X193434342Y-185385771D01*
X193577200Y-185457200D01*
X194934342Y-185385771D02*
X194934342Y-186385771D01*
X194291485Y-185385771D02*
X194291485Y-186171485D01*
X194362914Y-186314342D01*
X194505771Y-186385771D01*
X194720057Y-186385771D01*
X194862914Y-186314342D01*
X194934342Y-186242914D01*
X195862914Y-186385771D02*
X195720057Y-186314342D01*
X195648628Y-186171485D01*
X195648628Y-184885771D01*
X197077200Y-186385771D02*
X197077200Y-185600057D01*
X197005771Y-185457200D01*
X196862914Y-185385771D01*
X196577200Y-185385771D01*
X196434342Y-185457200D01*
X197077200Y-186314342D02*
X196934342Y-186385771D01*
X196577200Y-186385771D01*
X196434342Y-186314342D01*
X196362914Y-186171485D01*
X196362914Y-186028628D01*
X196434342Y-185885771D01*
X196577200Y-185814342D01*
X196934342Y-185814342D01*
X197077200Y-185742914D01*
X197577200Y-185385771D02*
X198148628Y-185385771D01*
X197791485Y-184885771D02*
X197791485Y-186171485D01*
X197862914Y-186314342D01*
X198005771Y-186385771D01*
X198148628Y-186385771D01*
X198862914Y-186385771D02*
X198720057Y-186314342D01*
X198648628Y-186242914D01*
X198577200Y-186100057D01*
X198577200Y-185671485D01*
X198648628Y-185528628D01*
X198720057Y-185457200D01*
X198862914Y-185385771D01*
X199077200Y-185385771D01*
X199220057Y-185457200D01*
X199291485Y-185528628D01*
X199362914Y-185671485D01*
X199362914Y-186100057D01*
X199291485Y-186242914D01*
X199220057Y-186314342D01*
X199077200Y-186385771D01*
X198862914Y-186385771D01*
X200005771Y-186385771D02*
X200005771Y-185385771D01*
X200005771Y-185671485D02*
X200077200Y-185528628D01*
X200148628Y-185457200D01*
X200291485Y-185385771D01*
X200434342Y-185385771D01*
X200934342Y-186242914D02*
X201005771Y-186314342D01*
X200934342Y-186385771D01*
X200862914Y-186314342D01*
X200934342Y-186242914D01*
X200934342Y-186385771D01*
X201648628Y-186385771D02*
X201648628Y-184885771D01*
X201791485Y-185814342D02*
X202220057Y-186385771D01*
X202220057Y-185385771D02*
X201648628Y-185957200D01*
X202862914Y-186385771D02*
X202862914Y-185385771D01*
X202862914Y-184885771D02*
X202791485Y-184957200D01*
X202862914Y-185028628D01*
X202934342Y-184957200D01*
X202862914Y-184885771D01*
X202862914Y-185028628D01*
X204220057Y-186314342D02*
X204077200Y-186385771D01*
X203791485Y-186385771D01*
X203648628Y-186314342D01*
X203577200Y-186242914D01*
X203505771Y-186100057D01*
X203505771Y-185671485D01*
X203577200Y-185528628D01*
X203648628Y-185457200D01*
X203791485Y-185385771D01*
X204077200Y-185385771D01*
X204220057Y-185457200D01*
X205505771Y-186385771D02*
X205505771Y-185600057D01*
X205434342Y-185457200D01*
X205291485Y-185385771D01*
X205005771Y-185385771D01*
X204862914Y-185457200D01*
X205505771Y-186314342D02*
X205362914Y-186385771D01*
X205005771Y-186385771D01*
X204862914Y-186314342D01*
X204791485Y-186171485D01*
X204791485Y-186028628D01*
X204862914Y-185885771D01*
X205005771Y-185814342D01*
X205362914Y-185814342D01*
X205505771Y-185742914D01*
X206862914Y-186385771D02*
X206862914Y-184885771D01*
X206862914Y-186314342D02*
X206720057Y-186385771D01*
X206434342Y-186385771D01*
X206291485Y-186314342D01*
X206220057Y-186242914D01*
X206148628Y-186100057D01*
X206148628Y-185671485D01*
X206220057Y-185528628D01*
X206291485Y-185457200D01*
X206434342Y-185385771D01*
X206720057Y-185385771D01*
X206862914Y-185457200D01*
X207220057Y-186528628D02*
X208362914Y-186528628D01*
X208720057Y-185385771D02*
X208720057Y-186885771D01*
X208720057Y-185457200D02*
X208862914Y-185385771D01*
X209148628Y-185385771D01*
X209291485Y-185457200D01*
X209362914Y-185528628D01*
X209434342Y-185671485D01*
X209434342Y-186100057D01*
X209362914Y-186242914D01*
X209291485Y-186314342D01*
X209148628Y-186385771D01*
X208862914Y-186385771D01*
X208720057Y-186314342D01*
X210720057Y-186314342D02*
X210577200Y-186385771D01*
X210291485Y-186385771D01*
X210148628Y-186314342D01*
X210077200Y-186242914D01*
X210005771Y-186100057D01*
X210005771Y-185671485D01*
X210077200Y-185528628D01*
X210148628Y-185457200D01*
X210291485Y-185385771D01*
X210577200Y-185385771D01*
X210720057Y-185457200D01*
X211362914Y-186385771D02*
X211362914Y-184885771D01*
X211362914Y-185457200D02*
X211505771Y-185385771D01*
X211791485Y-185385771D01*
X211934342Y-185457200D01*
X212005771Y-185528628D01*
X212077200Y-185671485D01*
X212077200Y-186100057D01*
X212005771Y-186242914D01*
X211934342Y-186314342D01*
X211791485Y-186385771D01*
X211505771Y-186385771D01*
X211362914Y-186314342D01*
D10*
D11*
X177002200Y-181507200D02*
X285002200Y-181507200D01*
D10*
D11*
X178362914Y-183614342D02*
X178577200Y-183685771D01*
X178934342Y-183685771D01*
X179077200Y-183614342D01*
X179148628Y-183542914D01*
X179220057Y-183400057D01*
X179220057Y-183257200D01*
X179148628Y-183114342D01*
X179077200Y-183042914D01*
X178934342Y-182971485D01*
X178648628Y-182900057D01*
X178505771Y-182828628D01*
X178434342Y-182757200D01*
X178362914Y-182614342D01*
X178362914Y-182471485D01*
X178434342Y-182328628D01*
X178505771Y-182257200D01*
X178648628Y-182185771D01*
X179005771Y-182185771D01*
X179220057Y-182257200D01*
X179862914Y-183685771D02*
X179862914Y-182185771D01*
X180505771Y-183685771D02*
X180505771Y-182900057D01*
X180434342Y-182757200D01*
X180291485Y-182685771D01*
X180077200Y-182685771D01*
X179934342Y-182757200D01*
X179862914Y-182828628D01*
X181791485Y-183614342D02*
X181648628Y-183685771D01*
X181362914Y-183685771D01*
X181220057Y-183614342D01*
X181148628Y-183471485D01*
X181148628Y-182900057D01*
X181220057Y-182757200D01*
X181362914Y-182685771D01*
X181648628Y-182685771D01*
X181791485Y-182757200D01*
X181862914Y-182900057D01*
X181862914Y-183042914D01*
X181148628Y-183185771D01*
X183077200Y-183614342D02*
X182934342Y-183685771D01*
X182648628Y-183685771D01*
X182505771Y-183614342D01*
X182434342Y-183471485D01*
X182434342Y-182900057D01*
X182505771Y-182757200D01*
X182648628Y-182685771D01*
X182934342Y-182685771D01*
X183077200Y-182757200D01*
X183148628Y-182900057D01*
X183148628Y-183042914D01*
X182434342Y-183185771D01*
X183577200Y-182685771D02*
X184148628Y-182685771D01*
X183791485Y-182185771D02*
X183791485Y-183471485D01*
X183862914Y-183614342D01*
X184005771Y-183685771D01*
X184148628Y-183685771D01*
X184648628Y-183542914D02*
X184720057Y-183614342D01*
X184648628Y-183685771D01*
X184577200Y-183614342D01*
X184648628Y-183542914D01*
X184648628Y-183685771D01*
X184648628Y-182757200D02*
X184720057Y-182828628D01*
X184648628Y-182900057D01*
X184577200Y-182828628D01*
X184648628Y-182757200D01*
X184648628Y-182900057D01*
D10*
D11*
X197002200Y-191507200D02*
X197002200Y-194507200D01*
D10*
D11*
X261002200Y-191507200D02*
X261002200Y-198007200D01*
D14*
%TO.P,U1,3*%
%TO.N,Net-(C6-Pad1)*%
X178435000Y-83820000D03*
%TO.P,U1,2*%
%TO.N,GND*%
X178435000Y-86360000D03*
D15*
%TO.P,U1,1*%
%TO.N,+9V*%
X178435000Y-88900000D03*
D16*
%TO.P,U1,*%
%TO.N,GND*%
X161775000Y-86360000D03*
%TD*%
D17*
%TO.P,J3,2*%
%TO.N,GND*%
X156210000Y-76835000D03*
D18*
%TO.P,J3,1*%
%TO.N,Net-(J3-Pad1)*%
X153670000Y-76835000D03*
%TD*%
D19*
%TO.P,R7,2*%
%TO.N,GND*%
X137668000Y-109093000D03*
D20*
%TO.P,R7,1*%
%TO.N,CHROMA_OUT*%
X127508000Y-109093000D03*
%TD*%
D19*
%TO.P,R5,2*%
%TO.N,Net-(Q1-Pad3)*%
X137668000Y-106045000D03*
D20*
%TO.P,R5,1*%
%TO.N,CHROMA_OUT*%
X127508000Y-106045000D03*
%TD*%
D19*
%TO.P,R12,2*%
%TO.N,GND*%
X143764000Y-95885000D03*
D20*
%TO.P,R12,1*%
%TO.N,LUMA_OUT*%
X133604000Y-95885000D03*
%TD*%
D19*
%TO.P,R11,2*%
%TO.N,Net-(Q3-Pad3)*%
X143764000Y-99695000D03*
D20*
%TO.P,R11,1*%
%TO.N,LUMA_OUT*%
X133604000Y-99695000D03*
%TD*%
D19*
%TO.P,R3,2*%
%TO.N,GND*%
X138811000Y-113030000D03*
D20*
%TO.P,R3,1*%
%TO.N,Net-(C1-Pad1)*%
X148971000Y-113030000D03*
%TD*%
D19*
%TO.P,R2,2*%
%TO.N,VCC*%
X148209000Y-102997000D03*
D20*
%TO.P,R2,1*%
%TO.N,Net-(C1-Pad1)*%
X138049000Y-102997000D03*
%TD*%
D19*
%TO.P,R9,2*%
%TO.N,GND*%
X142875000Y-78359000D03*
D20*
%TO.P,R9,1*%
%TO.N,Net-(C4-Pad1)*%
X142875000Y-88519000D03*
%TD*%
D19*
%TO.P,R10,2*%
%TO.N,GND*%
X136652000Y-88519000D03*
D20*
%TO.P,R10,1*%
%TO.N,COMPOSITE*%
X136652000Y-78359000D03*
%TD*%
D19*
%TO.P,R6,2*%
%TO.N,Net-(Q2-Pad3)*%
X146558000Y-98679000D03*
D20*
%TO.P,R6,1*%
%TO.N,Net-(C4-Pad1)*%
X146558000Y-88519000D03*
%TD*%
D19*
%TO.P,R8,2*%
%TO.N,Net-(C3-Pad1)*%
X163830000Y-96520000D03*
D20*
%TO.P,R8,1*%
%TO.N,COMPOSITE*%
X153670000Y-96520000D03*
%TD*%
D19*
%TO.P,R1,2*%
%TO.N,GND*%
X138811000Y-116205000D03*
D20*
%TO.P,R1,1*%
%TO.N,CHROMA_IN*%
X148971000Y-116205000D03*
%TD*%
D19*
%TO.P,R4,2*%
%TO.N,Net-(D1-Pad2)*%
X160655000Y-102997000D03*
D20*
%TO.P,R4,1*%
%TO.N,VCC*%
X150495000Y-102997000D03*
%TD*%
D21*
%TO.P,Q1,1*%
%TO.N,VCC*%
X141605000Y-108585000D03*
D22*
%TO.P,Q1,3*%
%TO.N,Net-(Q1-Pad3)*%
X141605000Y-106045000D03*
%TO.P,Q1,2*%
%TO.N,Net-(C1-Pad1)*%
X141605000Y-107315000D03*
%TD*%
D21*
%TO.P,Q2,1*%
%TO.N,VCC*%
X146558000Y-108585000D03*
D22*
%TO.P,Q2,3*%
%TO.N,Net-(Q2-Pad3)*%
X146558000Y-106045000D03*
%TO.P,Q2,2*%
%TO.N,Net-(C1-Pad1)*%
X146558000Y-107315000D03*
%TD*%
%TO.P,Q4,2*%
%TO.N,Net-(D1-Pad2)*%
X159385000Y-107315000D03*
%TO.P,Q4,3*%
%TO.N,Net-(L1-Pad2)*%
X159385000Y-106045000D03*
D21*
%TO.P,Q4,1*%
%TO.N,VCC*%
X159385000Y-108585000D03*
%TD*%
D22*
%TO.P,Q3,2*%
%TO.N,Net-(D1-Pad2)*%
X152400000Y-107315000D03*
%TO.P,Q3,3*%
%TO.N,Net-(Q3-Pad3)*%
X152400000Y-106045000D03*
D21*
%TO.P,Q3,1*%
%TO.N,VCC*%
X152400000Y-108585000D03*
%TD*%
D19*
%TO.P,L1,2*%
%TO.N,Net-(L1-Pad2)*%
X163830000Y-109982000D03*
D20*
%TO.P,L1,1*%
%TO.N,Net-(C3-Pad1)*%
X163830000Y-99822000D03*
%TD*%
D17*
%TO.P,JP2,2*%
%TO.N,Net-(J2-Pad2)*%
X158115000Y-122428000D03*
D18*
%TO.P,JP2,1*%
%TO.N,LUMA_IN*%
X158115000Y-119888000D03*
%TD*%
D17*
%TO.P,JP1,2*%
%TO.N,Net-(J2-Pad3)*%
X154305000Y-122428000D03*
D18*
%TO.P,JP1,1*%
%TO.N,CHROMA_IN*%
X154305000Y-119888000D03*
%TD*%
D19*
%TO.P,D1,2*%
%TO.N,Net-(D1-Pad2)*%
X155321000Y-107315000D03*
D23*
%TO.P,D1,1*%
%TO.N,LUMA_IN*%
X155321000Y-114935000D03*
%TD*%
D20*
%TO.P,C7,2*%
%TO.N,GND*%
X173355000Y-75010000D03*
%TO.P,C7,1*%
%TO.N,Net-(C6-Pad1)*%
X173355000Y-80010000D03*
%TD*%
%TO.P,C6,2*%
%TO.N,GND*%
X178435000Y-76240000D03*
D23*
%TO.P,C6,1*%
%TO.N,Net-(C6-Pad1)*%
X178435000Y-78740000D03*
%TD*%
D20*
%TO.P,C5,2*%
%TO.N,GND*%
X175935000Y-95250000D03*
D23*
%TO.P,C5,1*%
%TO.N,+9V*%
X178435000Y-95250000D03*
%TD*%
D20*
%TO.P,C4,2*%
%TO.N,COMPOSITE*%
X139700000Y-83519000D03*
%TO.P,C4,1*%
%TO.N,Net-(C4-Pad1)*%
X139700000Y-88519000D03*
%TD*%
%TO.P,C2,2*%
%TO.N,GND*%
X151765000Y-117395000D03*
%TO.P,C2,1*%
%TO.N,Net-(C1-Pad1)*%
X151765000Y-112395000D03*
%TD*%
%TO.P,C1,2*%
%TO.N,CHROMA_IN*%
X148891000Y-119888000D03*
%TO.P,C1,1*%
%TO.N,Net-(C1-Pad1)*%
X143891000Y-119888000D03*
%TD*%
%TO.P,C3,2*%
%TO.N,GND*%
X155655000Y-99822000D03*
%TO.P,C3,1*%
%TO.N,Net-(C3-Pad1)*%
X160655000Y-99822000D03*
%TD*%
D24*
%TO.P,J4,1*%
%TO.N,GND*%
X164830000Y-66349000D03*
D25*
%TO.P,J4,2*%
%TO.N,/AUD_R*%
X169830000Y-71355000D03*
%TO.P,J4,5*%
%TO.N,AUDIO_IN*%
X159830000Y-71355000D03*
%TO.P,J4,3*%
%TO.N,N/C*%
X167330000Y-71355000D03*
%TO.P,J4,4*%
X162330000Y-71355000D03*
%TD*%
D26*
%TO.P,J5,2*%
%TO.N,COMPOSITE*%
X133350000Y-71120000D03*
D27*
%TO.P,J5,1*%
%TO.N,GND*%
X137160000Y-68580000D03*
D26*
%TO.P,J5,2*%
%TO.N,COMPOSITE*%
X140970000Y-71120000D03*
%TD*%
D18*
%TO.P,J1,1*%
%TO.N,COMPOSITE*%
X138515000Y-121400000D03*
D17*
%TO.P,J1,2*%
%TO.N,LUMA_OUT*%
X135975000Y-121400000D03*
%TO.P,J1,3*%
%TO.N,CHROMA_OUT*%
X133435000Y-121400000D03*
%TO.P,J1,4*%
%TO.N,GND*%
X130895000Y-121400000D03*
%TD*%
D18*
%TO.P,J2,1*%
%TO.N,+9V*%
X170115000Y-121400000D03*
D17*
%TO.P,J2,2*%
%TO.N,Net-(J2-Pad2)*%
X167575000Y-121400000D03*
%TO.P,J2,3*%
%TO.N,Net-(J2-Pad3)*%
X165035000Y-121400000D03*
%TO.P,J2,4*%
%TO.N,AUDIO_IN*%
X162495000Y-121400000D03*
%TD*%
D18*
%TO.P,JP3,1*%
%TO.N,AUDIO_IN*%
X162290000Y-76835000D03*
D17*
%TO.P,JP3,2*%
%TO.N,/AUD_R*%
X164830000Y-76835000D03*
%TO.P,JP3,3*%
%TO.N,Net-(J3-Pad1)*%
X167370000Y-76835000D03*
%TD*%
D23*
%TO.P,D2,1*%
%TO.N,VCC*%
X156845000Y-90170000D03*
D19*
%TO.P,D2,2*%
%TO.N,Net-(C6-Pad1)*%
X156845000Y-82550000D03*
%TD*%
D28*
%TO.N,COMPOSITE*%
X153670000Y-83566000D03*
%TO.N,VCC*%
X141605000Y-110744000D03*
X146558000Y-110744000D03*
X149352000Y-92710000D03*
X149352000Y-110744000D03*
%TO.N,AUDIO_IN*%
X169545000Y-118745000D03*
X170815000Y-85090000D03*
X170815000Y-82550000D03*
%TO.N,Net-(C1-Pad1)*%
X143891000Y-107315000D03*
%TO.N,Net-(J2-Pad2)*%
X160150000Y-115065000D03*
X160150000Y-117980000D03*
%TD*%
D29*
%TO.N,COMPOSITE*%
X153670000Y-96520000D02*
X153670000Y-83566000D01*
X138049000Y-118999000D02*
X138515000Y-119465000D01*
X138515000Y-119465000D02*
X138515000Y-121400000D01*
X132461000Y-118999000D02*
X138049000Y-118999000D01*
X131064000Y-117602000D02*
X132461000Y-118999000D01*
X131064000Y-73406000D02*
X131064000Y-117602000D01*
X133350000Y-71120000D02*
X131064000Y-73406000D01*
%TO.N,VCC*%
X141732000Y-110744000D02*
X146558000Y-110744000D01*
X149352000Y-102870000D02*
X149225000Y-102997000D01*
X149352000Y-92710000D02*
X149352000Y-102870000D01*
X149225000Y-102997000D02*
X148209000Y-102997000D01*
X150495000Y-102997000D02*
X149225000Y-102997000D01*
X149352000Y-110744000D02*
X149352000Y-102870000D01*
D30*
%TO.N,LUMA_IN*%
X155321000Y-114935000D02*
X155321000Y-115316000D01*
D29*
X158115000Y-118110000D02*
X158115000Y-119888000D01*
X155321000Y-115316000D02*
X158115000Y-118110000D01*
%TO.N,AUDIO_IN*%
X162495000Y-119445000D02*
X163195000Y-118745000D01*
X163195000Y-118745000D02*
X169545000Y-118745000D01*
X162495000Y-119445000D02*
X162495000Y-121400000D01*
X170815000Y-82550000D02*
X170815000Y-85090000D01*
%TO.N,Net-(J2-Pad2)*%
X160150000Y-115065000D02*
X160150000Y-117980000D01*
D30*
X160150000Y-117980000D02*
X160150000Y-117980000D01*
D29*
%TO.N,Net-(J3-Pad1)*%
X153670000Y-76835000D02*
X153670000Y-78105000D01*
X167370000Y-78375000D02*
X167370000Y-76835000D01*
X166370000Y-79375000D02*
X167370000Y-78375000D01*
X154940000Y-79375000D02*
X166370000Y-79375000D01*
X153670000Y-78105000D02*
X154940000Y-79375000D01*
%TO.N,Net-(Q2-Pad3)*%
X146558000Y-106045000D02*
X146558000Y-98679000D01*
%TD*%
D31*
%TO.N,GND*%
G36*
X181123109Y-62954005D02*
G01*
X181227101Y-62985402D01*
X181323014Y-63036399D01*
X181407194Y-63105055D01*
X181476440Y-63188758D01*
X181528105Y-63284311D01*
X181560227Y-63388078D01*
X181575000Y-63528641D01*
X181575001Y-124365269D01*
X181560995Y-124508109D01*
X181529599Y-124612099D01*
X181478601Y-124708013D01*
X181409941Y-124792199D01*
X181326243Y-124861439D01*
X181230689Y-124913105D01*
X181126922Y-124945227D01*
X180986359Y-124960000D01*
X120049720Y-124960000D01*
X119906891Y-124945995D01*
X119802901Y-124914599D01*
X119706987Y-124863601D01*
X119622801Y-124794941D01*
X119553561Y-124711243D01*
X119501895Y-124615689D01*
X119469773Y-124511922D01*
X119455000Y-124371359D01*
X119455000Y-108951665D01*
X126073000Y-108951665D01*
X126073000Y-109234335D01*
X126128147Y-109511574D01*
X126236320Y-109772727D01*
X126393363Y-110007759D01*
X126593241Y-110207637D01*
X126828273Y-110364680D01*
X127089426Y-110472853D01*
X127366665Y-110528000D01*
X127649335Y-110528000D01*
X127926574Y-110472853D01*
X128187727Y-110364680D01*
X128422759Y-110207637D01*
X128622637Y-110007759D01*
X128779680Y-109772727D01*
X128887853Y-109511574D01*
X128943000Y-109234335D01*
X128943000Y-108951665D01*
X128887853Y-108674426D01*
X128779680Y-108413273D01*
X128622637Y-108178241D01*
X128422759Y-107978363D01*
X128187727Y-107821320D01*
X127926574Y-107713147D01*
X127649335Y-107658000D01*
X127366665Y-107658000D01*
X127089426Y-107713147D01*
X126828273Y-107821320D01*
X126593241Y-107978363D01*
X126393363Y-108178241D01*
X126236320Y-108413273D01*
X126128147Y-108674426D01*
X126073000Y-108951665D01*
X119455000Y-108951665D01*
X119455000Y-105903665D01*
X126073000Y-105903665D01*
X126073000Y-106186335D01*
X126128147Y-106463574D01*
X126236320Y-106724727D01*
X126393363Y-106959759D01*
X126593241Y-107159637D01*
X126828273Y-107316680D01*
X127089426Y-107424853D01*
X127366665Y-107480000D01*
X127649335Y-107480000D01*
X127926574Y-107424853D01*
X128187727Y-107316680D01*
X128422759Y-107159637D01*
X128622637Y-106959759D01*
X128779680Y-106724727D01*
X128887853Y-106463574D01*
X128943000Y-106186335D01*
X128943000Y-105903665D01*
X128887853Y-105626426D01*
X128779680Y-105365273D01*
X128622637Y-105130241D01*
X128422759Y-104930363D01*
X128187727Y-104773320D01*
X127926574Y-104665147D01*
X127649335Y-104610000D01*
X127366665Y-104610000D01*
X127089426Y-104665147D01*
X126828273Y-104773320D01*
X126593241Y-104930363D01*
X126393363Y-105130241D01*
X126236320Y-105365273D01*
X126128147Y-105626426D01*
X126073000Y-105903665D01*
X119455000Y-105903665D01*
X119455000Y-73406000D01*
X130174719Y-73406000D01*
X130179000Y-73449469D01*
X130179001Y-117558521D01*
X130174719Y-117602000D01*
X130191805Y-117775490D01*
X130242412Y-117942313D01*
X130324590Y-118096059D01*
X130407468Y-118197046D01*
X130407471Y-118197049D01*
X130435184Y-118230817D01*
X130468951Y-118258529D01*
X131804470Y-119594049D01*
X131832183Y-119627817D01*
X131865951Y-119655530D01*
X131865953Y-119655532D01*
X131937452Y-119714210D01*
X131966941Y-119738411D01*
X132120687Y-119820589D01*
X132287510Y-119871195D01*
X132417523Y-119884000D01*
X132417533Y-119884000D01*
X132460999Y-119888281D01*
X132504465Y-119884000D01*
X137630000Y-119884000D01*
X137630000Y-119915375D01*
X137540518Y-119924188D01*
X137420820Y-119960498D01*
X137310506Y-120019463D01*
X137213815Y-120098815D01*
X137134463Y-120195506D01*
X137075498Y-120305820D01*
X137053487Y-120378380D01*
X136921632Y-120246525D01*
X136678411Y-120084010D01*
X136408158Y-119972068D01*
X136121260Y-119915000D01*
X135828740Y-119915000D01*
X135541842Y-119972068D01*
X135271589Y-120084010D01*
X135028368Y-120246525D01*
X134821525Y-120453368D01*
X134705000Y-120627760D01*
X134588475Y-120453368D01*
X134381632Y-120246525D01*
X134138411Y-120084010D01*
X133868158Y-119972068D01*
X133581260Y-119915000D01*
X133288740Y-119915000D01*
X133001842Y-119972068D01*
X132731589Y-120084010D01*
X132488368Y-120246525D01*
X132281525Y-120453368D01*
X132119010Y-120696589D01*
X132007068Y-120966842D01*
X131950000Y-121253740D01*
X131950000Y-121546260D01*
X132007068Y-121833158D01*
X132119010Y-122103411D01*
X132281525Y-122346632D01*
X132488368Y-122553475D01*
X132731589Y-122715990D01*
X133001842Y-122827932D01*
X133288740Y-122885000D01*
X133581260Y-122885000D01*
X133868158Y-122827932D01*
X134138411Y-122715990D01*
X134381632Y-122553475D01*
X134588475Y-122346632D01*
X134705000Y-122172240D01*
X134821525Y-122346632D01*
X135028368Y-122553475D01*
X135271589Y-122715990D01*
X135541842Y-122827932D01*
X135828740Y-122885000D01*
X136121260Y-122885000D01*
X136408158Y-122827932D01*
X136678411Y-122715990D01*
X136921632Y-122553475D01*
X137053487Y-122421620D01*
X137075498Y-122494180D01*
X137134463Y-122604494D01*
X137213815Y-122701185D01*
X137310506Y-122780537D01*
X137420820Y-122839502D01*
X137540518Y-122875812D01*
X137665000Y-122888072D01*
X139365000Y-122888072D01*
X139489482Y-122875812D01*
X139609180Y-122839502D01*
X139719494Y-122780537D01*
X139816185Y-122701185D01*
X139895537Y-122604494D01*
X139954502Y-122494180D01*
X139990812Y-122374482D01*
X140003072Y-122250000D01*
X140003072Y-120550000D01*
X139990812Y-120425518D01*
X139954502Y-120305820D01*
X139895537Y-120195506D01*
X139816185Y-120098815D01*
X139719494Y-120019463D01*
X139609180Y-119960498D01*
X139489482Y-119924188D01*
X139400000Y-119915375D01*
X139400000Y-119746665D01*
X142456000Y-119746665D01*
X142456000Y-120029335D01*
X142511147Y-120306574D01*
X142619320Y-120567727D01*
X142776363Y-120802759D01*
X142976241Y-121002637D01*
X143211273Y-121159680D01*
X143472426Y-121267853D01*
X143749665Y-121323000D01*
X144032335Y-121323000D01*
X144309574Y-121267853D01*
X144570727Y-121159680D01*
X144805759Y-121002637D01*
X145005637Y-120802759D01*
X145162680Y-120567727D01*
X145270853Y-120306574D01*
X145326000Y-120029335D01*
X145326000Y-119746665D01*
X147456000Y-119746665D01*
X147456000Y-120029335D01*
X147511147Y-120306574D01*
X147619320Y-120567727D01*
X147776363Y-120802759D01*
X147976241Y-121002637D01*
X148211273Y-121159680D01*
X148472426Y-121267853D01*
X148749665Y-121323000D01*
X149032335Y-121323000D01*
X149309574Y-121267853D01*
X149570727Y-121159680D01*
X149805759Y-121002637D01*
X150005637Y-120802759D01*
X150162680Y-120567727D01*
X150270853Y-120306574D01*
X150326000Y-120029335D01*
X150326000Y-119746665D01*
X150270853Y-119469426D01*
X150162680Y-119208273D01*
X150048908Y-119038000D01*
X152816928Y-119038000D01*
X152816928Y-120738000D01*
X152829188Y-120862482D01*
X152865498Y-120982180D01*
X152924463Y-121092494D01*
X153003815Y-121189185D01*
X153100506Y-121268537D01*
X153210820Y-121327502D01*
X153283380Y-121349513D01*
X153151525Y-121481368D01*
X152989010Y-121724589D01*
X152877068Y-121994842D01*
X152820000Y-122281740D01*
X152820000Y-122574260D01*
X152877068Y-122861158D01*
X152989010Y-123131411D01*
X153151525Y-123374632D01*
X153358368Y-123581475D01*
X153601589Y-123743990D01*
X153871842Y-123855932D01*
X154158740Y-123913000D01*
X154451260Y-123913000D01*
X154738158Y-123855932D01*
X155008411Y-123743990D01*
X155251632Y-123581475D01*
X155458475Y-123374632D01*
X155620990Y-123131411D01*
X155732932Y-122861158D01*
X155790000Y-122574260D01*
X155790000Y-122281740D01*
X155732932Y-121994842D01*
X155620990Y-121724589D01*
X155458475Y-121481368D01*
X155326620Y-121349513D01*
X155399180Y-121327502D01*
X155509494Y-121268537D01*
X155606185Y-121189185D01*
X155685537Y-121092494D01*
X155744502Y-120982180D01*
X155780812Y-120862482D01*
X155793072Y-120738000D01*
X155793072Y-119038000D01*
X155780812Y-118913518D01*
X155744502Y-118793820D01*
X155685537Y-118683506D01*
X155606185Y-118586815D01*
X155509494Y-118507463D01*
X155399180Y-118448498D01*
X155279482Y-118412188D01*
X155155000Y-118399928D01*
X153455000Y-118399928D01*
X153330518Y-118412188D01*
X153210820Y-118448498D01*
X153100506Y-118507463D01*
X153003815Y-118586815D01*
X152924463Y-118683506D01*
X152865498Y-118793820D01*
X152829188Y-118913518D01*
X152816928Y-119038000D01*
X150048908Y-119038000D01*
X150005637Y-118973241D01*
X149805759Y-118773363D01*
X149570727Y-118616320D01*
X149309574Y-118508147D01*
X149032335Y-118453000D01*
X148749665Y-118453000D01*
X148472426Y-118508147D01*
X148211273Y-118616320D01*
X147976241Y-118773363D01*
X147776363Y-118973241D01*
X147619320Y-119208273D01*
X147511147Y-119469426D01*
X147456000Y-119746665D01*
X145326000Y-119746665D01*
X145270853Y-119469426D01*
X145162680Y-119208273D01*
X145005637Y-118973241D01*
X144805759Y-118773363D01*
X144570727Y-118616320D01*
X144309574Y-118508147D01*
X144032335Y-118453000D01*
X143749665Y-118453000D01*
X143472426Y-118508147D01*
X143211273Y-118616320D01*
X142976241Y-118773363D01*
X142776363Y-118973241D01*
X142619320Y-119208273D01*
X142511147Y-119469426D01*
X142456000Y-119746665D01*
X139400000Y-119746665D01*
X139400000Y-119508469D01*
X139404281Y-119465000D01*
X139400000Y-119421531D01*
X139400000Y-119421523D01*
X139387195Y-119291510D01*
X139361945Y-119208273D01*
X139336589Y-119124686D01*
X139269559Y-118999281D01*
X139254411Y-118970941D01*
X139143817Y-118836183D01*
X139110045Y-118808467D01*
X138705534Y-118403956D01*
X138677817Y-118370183D01*
X138543059Y-118259589D01*
X138389313Y-118177411D01*
X138222490Y-118126805D01*
X138092477Y-118114000D01*
X138092469Y-118114000D01*
X138049000Y-118109719D01*
X138005531Y-118114000D01*
X132827579Y-118114000D01*
X131949000Y-117235422D01*
X131949000Y-116063665D01*
X147536000Y-116063665D01*
X147536000Y-116346335D01*
X147591147Y-116623574D01*
X147699320Y-116884727D01*
X147856363Y-117119759D01*
X148056241Y-117319637D01*
X148291273Y-117476680D01*
X148552426Y-117584853D01*
X148829665Y-117640000D01*
X149112335Y-117640000D01*
X149389574Y-117584853D01*
X149650727Y-117476680D01*
X149885759Y-117319637D01*
X150085637Y-117119759D01*
X150242680Y-116884727D01*
X150350853Y-116623574D01*
X150406000Y-116346335D01*
X150406000Y-116063665D01*
X150350853Y-115786426D01*
X150242680Y-115525273D01*
X150085637Y-115290241D01*
X149885759Y-115090363D01*
X149650727Y-114933320D01*
X149389574Y-114825147D01*
X149112335Y-114770000D01*
X148829665Y-114770000D01*
X148552426Y-114825147D01*
X148291273Y-114933320D01*
X148056241Y-115090363D01*
X147856363Y-115290241D01*
X147699320Y-115525273D01*
X147591147Y-115786426D01*
X147536000Y-116063665D01*
X131949000Y-116063665D01*
X131949000Y-110651911D01*
X140670000Y-110651911D01*
X140670000Y-110836089D01*
X140705932Y-111016729D01*
X140776414Y-111186889D01*
X140878738Y-111340028D01*
X141008972Y-111470262D01*
X141162111Y-111572586D01*
X141332271Y-111643068D01*
X141512911Y-111679000D01*
X141697089Y-111679000D01*
X141877729Y-111643068D01*
X141911692Y-111629000D01*
X146251308Y-111629000D01*
X146285271Y-111643068D01*
X146465911Y-111679000D01*
X146650089Y-111679000D01*
X146830729Y-111643068D01*
X147000889Y-111572586D01*
X147154028Y-111470262D01*
X147284262Y-111340028D01*
X147386586Y-111186889D01*
X147457068Y-111016729D01*
X147493000Y-110836089D01*
X147493000Y-110651911D01*
X147457068Y-110471271D01*
X147386586Y-110301111D01*
X147284262Y-110147972D01*
X147154028Y-110017738D01*
X147000889Y-109915414D01*
X146830729Y-109844932D01*
X146650089Y-109809000D01*
X146465911Y-109809000D01*
X146285271Y-109844932D01*
X146251308Y-109859000D01*
X141911692Y-109859000D01*
X141877729Y-109844932D01*
X141697089Y-109809000D01*
X141512911Y-109809000D01*
X141332271Y-109844932D01*
X141162111Y-109915414D01*
X141008972Y-110017738D01*
X140878738Y-110147972D01*
X140776414Y-110301111D01*
X140705932Y-110471271D01*
X140670000Y-110651911D01*
X131949000Y-110651911D01*
X131949000Y-105903665D01*
X136233000Y-105903665D01*
X136233000Y-106186335D01*
X136288147Y-106463574D01*
X136396320Y-106724727D01*
X136553363Y-106959759D01*
X136753241Y-107159637D01*
X136988273Y-107316680D01*
X137249426Y-107424853D01*
X137526665Y-107480000D01*
X137809335Y-107480000D01*
X138086574Y-107424853D01*
X138347727Y-107316680D01*
X138582759Y-107159637D01*
X138782637Y-106959759D01*
X138939680Y-106724727D01*
X139047853Y-106463574D01*
X139103000Y-106186335D01*
X139103000Y-106045000D01*
X140214388Y-106045000D01*
X140236785Y-106272400D01*
X140303115Y-106491060D01*
X140404105Y-106680000D01*
X140303115Y-106868940D01*
X140236785Y-107087600D01*
X140214388Y-107315000D01*
X140236785Y-107542400D01*
X140300093Y-107751098D01*
X140265498Y-107815820D01*
X140229188Y-107935518D01*
X140216928Y-108060000D01*
X140216928Y-109110000D01*
X140229188Y-109234482D01*
X140265498Y-109354180D01*
X140324463Y-109464494D01*
X140403815Y-109561185D01*
X140500506Y-109640537D01*
X140610820Y-109699502D01*
X140730518Y-109735812D01*
X140855000Y-109748072D01*
X142355000Y-109748072D01*
X142479482Y-109735812D01*
X142599180Y-109699502D01*
X142709494Y-109640537D01*
X142806185Y-109561185D01*
X142885537Y-109464494D01*
X142944502Y-109354180D01*
X142980812Y-109234482D01*
X142993072Y-109110000D01*
X142993072Y-108060000D01*
X142980812Y-107935518D01*
X142944502Y-107815820D01*
X142909907Y-107751098D01*
X142973215Y-107542400D01*
X142976427Y-107509783D01*
X142991932Y-107587729D01*
X143062414Y-107757889D01*
X143164738Y-107911028D01*
X143294972Y-108041262D01*
X143448111Y-108143586D01*
X143618271Y-108214068D01*
X143798911Y-108250000D01*
X143983089Y-108250000D01*
X144163729Y-108214068D01*
X144333889Y-108143586D01*
X144487028Y-108041262D01*
X144617262Y-107911028D01*
X144719586Y-107757889D01*
X144790068Y-107587729D01*
X144826000Y-107407089D01*
X144826000Y-107222911D01*
X144790068Y-107042271D01*
X144719586Y-106872111D01*
X144617262Y-106718972D01*
X144487028Y-106588738D01*
X144333889Y-106486414D01*
X144163729Y-106415932D01*
X143983089Y-106380000D01*
X143798911Y-106380000D01*
X143618271Y-106415932D01*
X143448111Y-106486414D01*
X143294972Y-106588738D01*
X143164738Y-106718972D01*
X143062414Y-106872111D01*
X142991932Y-107042271D01*
X142976427Y-107120217D01*
X142973215Y-107087600D01*
X142906885Y-106868940D01*
X142805895Y-106680000D01*
X142906885Y-106491060D01*
X142973215Y-106272400D01*
X142995612Y-106045000D01*
X142973215Y-105817600D01*
X142906885Y-105598940D01*
X142799171Y-105397421D01*
X142654212Y-105220788D01*
X142477579Y-105075829D01*
X142276060Y-104968115D01*
X142057400Y-104901785D01*
X141886979Y-104885000D01*
X141323021Y-104885000D01*
X141152600Y-104901785D01*
X140933940Y-104968115D01*
X140732421Y-105075829D01*
X140555788Y-105220788D01*
X140410829Y-105397421D01*
X140303115Y-105598940D01*
X140236785Y-105817600D01*
X140214388Y-106045000D01*
X139103000Y-106045000D01*
X139103000Y-105903665D01*
X139047853Y-105626426D01*
X138939680Y-105365273D01*
X138782637Y-105130241D01*
X138582759Y-104930363D01*
X138347727Y-104773320D01*
X138086574Y-104665147D01*
X137809335Y-104610000D01*
X137526665Y-104610000D01*
X137249426Y-104665147D01*
X136988273Y-104773320D01*
X136753241Y-104930363D01*
X136553363Y-105130241D01*
X136396320Y-105365273D01*
X136288147Y-105626426D01*
X136233000Y-105903665D01*
X131949000Y-105903665D01*
X131949000Y-102855665D01*
X136614000Y-102855665D01*
X136614000Y-103138335D01*
X136669147Y-103415574D01*
X136777320Y-103676727D01*
X136934363Y-103911759D01*
X137134241Y-104111637D01*
X137369273Y-104268680D01*
X137630426Y-104376853D01*
X137907665Y-104432000D01*
X138190335Y-104432000D01*
X138467574Y-104376853D01*
X138728727Y-104268680D01*
X138963759Y-104111637D01*
X139163637Y-103911759D01*
X139320680Y-103676727D01*
X139428853Y-103415574D01*
X139484000Y-103138335D01*
X139484000Y-102855665D01*
X139428853Y-102578426D01*
X139320680Y-102317273D01*
X139163637Y-102082241D01*
X138963759Y-101882363D01*
X138728727Y-101725320D01*
X138467574Y-101617147D01*
X138190335Y-101562000D01*
X137907665Y-101562000D01*
X137630426Y-101617147D01*
X137369273Y-101725320D01*
X137134241Y-101882363D01*
X136934363Y-102082241D01*
X136777320Y-102317273D01*
X136669147Y-102578426D01*
X136614000Y-102855665D01*
X131949000Y-102855665D01*
X131949000Y-99553665D01*
X132169000Y-99553665D01*
X132169000Y-99836335D01*
X132224147Y-100113574D01*
X132332320Y-100374727D01*
X132489363Y-100609759D01*
X132689241Y-100809637D01*
X132924273Y-100966680D01*
X133185426Y-101074853D01*
X133462665Y-101130000D01*
X133745335Y-101130000D01*
X134022574Y-101074853D01*
X134283727Y-100966680D01*
X134518759Y-100809637D01*
X134718637Y-100609759D01*
X134875680Y-100374727D01*
X134983853Y-100113574D01*
X135039000Y-99836335D01*
X135039000Y-99553665D01*
X142329000Y-99553665D01*
X142329000Y-99836335D01*
X142384147Y-100113574D01*
X142492320Y-100374727D01*
X142649363Y-100609759D01*
X142849241Y-100809637D01*
X143084273Y-100966680D01*
X143345426Y-101074853D01*
X143622665Y-101130000D01*
X143905335Y-101130000D01*
X144182574Y-101074853D01*
X144443727Y-100966680D01*
X144678759Y-100809637D01*
X144878637Y-100609759D01*
X145035680Y-100374727D01*
X145143853Y-100113574D01*
X145199000Y-99836335D01*
X145199000Y-99553665D01*
X145143853Y-99276426D01*
X145035680Y-99015273D01*
X144878637Y-98780241D01*
X144678759Y-98580363D01*
X144614857Y-98537665D01*
X145123000Y-98537665D01*
X145123000Y-98820335D01*
X145178147Y-99097574D01*
X145286320Y-99358727D01*
X145443363Y-99593759D01*
X145643241Y-99793637D01*
X145673001Y-99813522D01*
X145673000Y-105086023D01*
X145508788Y-105220788D01*
X145363829Y-105397421D01*
X145256115Y-105598940D01*
X145189785Y-105817600D01*
X145167388Y-106045000D01*
X145189785Y-106272400D01*
X145256115Y-106491060D01*
X145357105Y-106680000D01*
X145256115Y-106868940D01*
X145189785Y-107087600D01*
X145167388Y-107315000D01*
X145189785Y-107542400D01*
X145253093Y-107751098D01*
X145218498Y-107815820D01*
X145182188Y-107935518D01*
X145169928Y-108060000D01*
X145169928Y-109110000D01*
X145182188Y-109234482D01*
X145218498Y-109354180D01*
X145277463Y-109464494D01*
X145356815Y-109561185D01*
X145453506Y-109640537D01*
X145563820Y-109699502D01*
X145683518Y-109735812D01*
X145808000Y-109748072D01*
X147308000Y-109748072D01*
X147432482Y-109735812D01*
X147552180Y-109699502D01*
X147662494Y-109640537D01*
X147759185Y-109561185D01*
X147838537Y-109464494D01*
X147897502Y-109354180D01*
X147933812Y-109234482D01*
X147946072Y-109110000D01*
X147946072Y-108060000D01*
X147933812Y-107935518D01*
X147897502Y-107815820D01*
X147862907Y-107751098D01*
X147926215Y-107542400D01*
X147948612Y-107315000D01*
X147926215Y-107087600D01*
X147859885Y-106868940D01*
X147758895Y-106680000D01*
X147859885Y-106491060D01*
X147926215Y-106272400D01*
X147948612Y-106045000D01*
X147926215Y-105817600D01*
X147859885Y-105598940D01*
X147752171Y-105397421D01*
X147607212Y-105220788D01*
X147443000Y-105086023D01*
X147443000Y-104211034D01*
X147529273Y-104268680D01*
X147790426Y-104376853D01*
X148067665Y-104432000D01*
X148350335Y-104432000D01*
X148467001Y-104408793D01*
X148467000Y-110437307D01*
X148452932Y-110471271D01*
X148417000Y-110651911D01*
X148417000Y-110836089D01*
X148452932Y-111016729D01*
X148523414Y-111186889D01*
X148625738Y-111340028D01*
X148755972Y-111470262D01*
X148909111Y-111572586D01*
X148963224Y-111595000D01*
X148829665Y-111595000D01*
X148552426Y-111650147D01*
X148291273Y-111758320D01*
X148056241Y-111915363D01*
X147856363Y-112115241D01*
X147699320Y-112350273D01*
X147591147Y-112611426D01*
X147536000Y-112888665D01*
X147536000Y-113171335D01*
X147591147Y-113448574D01*
X147699320Y-113709727D01*
X147856363Y-113944759D01*
X148056241Y-114144637D01*
X148291273Y-114301680D01*
X148552426Y-114409853D01*
X148829665Y-114465000D01*
X149112335Y-114465000D01*
X149389574Y-114409853D01*
X149650727Y-114301680D01*
X149885759Y-114144637D01*
X149895396Y-114135000D01*
X153882928Y-114135000D01*
X153882928Y-115735000D01*
X153895188Y-115859482D01*
X153931498Y-115979180D01*
X153990463Y-116089494D01*
X154069815Y-116186185D01*
X154166506Y-116265537D01*
X154276820Y-116324502D01*
X154396518Y-116360812D01*
X154521000Y-116373072D01*
X155126494Y-116373072D01*
X157163360Y-118409938D01*
X157140518Y-118412188D01*
X157020820Y-118448498D01*
X156910506Y-118507463D01*
X156813815Y-118586815D01*
X156734463Y-118683506D01*
X156675498Y-118793820D01*
X156639188Y-118913518D01*
X156626928Y-119038000D01*
X156626928Y-120738000D01*
X156639188Y-120862482D01*
X156675498Y-120982180D01*
X156734463Y-121092494D01*
X156813815Y-121189185D01*
X156910506Y-121268537D01*
X157020820Y-121327502D01*
X157093380Y-121349513D01*
X156961525Y-121481368D01*
X156799010Y-121724589D01*
X156687068Y-121994842D01*
X156630000Y-122281740D01*
X156630000Y-122574260D01*
X156687068Y-122861158D01*
X156799010Y-123131411D01*
X156961525Y-123374632D01*
X157168368Y-123581475D01*
X157411589Y-123743990D01*
X157681842Y-123855932D01*
X157968740Y-123913000D01*
X158261260Y-123913000D01*
X158548158Y-123855932D01*
X158818411Y-123743990D01*
X159061632Y-123581475D01*
X159268475Y-123374632D01*
X159430990Y-123131411D01*
X159542932Y-122861158D01*
X159600000Y-122574260D01*
X159600000Y-122281740D01*
X159542932Y-121994842D01*
X159430990Y-121724589D01*
X159268475Y-121481368D01*
X159136620Y-121349513D01*
X159209180Y-121327502D01*
X159319494Y-121268537D01*
X159337524Y-121253740D01*
X161010000Y-121253740D01*
X161010000Y-121546260D01*
X161067068Y-121833158D01*
X161179010Y-122103411D01*
X161341525Y-122346632D01*
X161548368Y-122553475D01*
X161791589Y-122715990D01*
X162061842Y-122827932D01*
X162348740Y-122885000D01*
X162641260Y-122885000D01*
X162928158Y-122827932D01*
X163198411Y-122715990D01*
X163441632Y-122553475D01*
X163648475Y-122346632D01*
X163765000Y-122172240D01*
X163881525Y-122346632D01*
X164088368Y-122553475D01*
X164331589Y-122715990D01*
X164601842Y-122827932D01*
X164888740Y-122885000D01*
X165181260Y-122885000D01*
X165468158Y-122827932D01*
X165738411Y-122715990D01*
X165981632Y-122553475D01*
X166188475Y-122346632D01*
X166305000Y-122172240D01*
X166421525Y-122346632D01*
X166628368Y-122553475D01*
X166871589Y-122715990D01*
X167141842Y-122827932D01*
X167428740Y-122885000D01*
X167721260Y-122885000D01*
X168008158Y-122827932D01*
X168278411Y-122715990D01*
X168521632Y-122553475D01*
X168653487Y-122421620D01*
X168675498Y-122494180D01*
X168734463Y-122604494D01*
X168813815Y-122701185D01*
X168910506Y-122780537D01*
X169020820Y-122839502D01*
X169140518Y-122875812D01*
X169265000Y-122888072D01*
X170965000Y-122888072D01*
X171089482Y-122875812D01*
X171209180Y-122839502D01*
X171319494Y-122780537D01*
X171416185Y-122701185D01*
X171495537Y-122604494D01*
X171554502Y-122494180D01*
X171590812Y-122374482D01*
X171603072Y-122250000D01*
X171603072Y-120550000D01*
X171590812Y-120425518D01*
X171554502Y-120305820D01*
X171495537Y-120195506D01*
X171416185Y-120098815D01*
X171319494Y-120019463D01*
X171209180Y-119960498D01*
X171089482Y-119924188D01*
X170965000Y-119911928D01*
X169265000Y-119911928D01*
X169140518Y-119924188D01*
X169020820Y-119960498D01*
X168910506Y-120019463D01*
X168813815Y-120098815D01*
X168734463Y-120195506D01*
X168675498Y-120305820D01*
X168653487Y-120378380D01*
X168521632Y-120246525D01*
X168278411Y-120084010D01*
X168008158Y-119972068D01*
X167721260Y-119915000D01*
X167428740Y-119915000D01*
X167141842Y-119972068D01*
X166871589Y-120084010D01*
X166628368Y-120246525D01*
X166421525Y-120453368D01*
X166305000Y-120627760D01*
X166188475Y-120453368D01*
X165981632Y-120246525D01*
X165738411Y-120084010D01*
X165468158Y-119972068D01*
X165181260Y-119915000D01*
X164888740Y-119915000D01*
X164601842Y-119972068D01*
X164331589Y-120084010D01*
X164088368Y-120246525D01*
X163881525Y-120453368D01*
X163765000Y-120627760D01*
X163648475Y-120453368D01*
X163441632Y-120246525D01*
X163380000Y-120205344D01*
X163380000Y-119811578D01*
X163561579Y-119630000D01*
X169238308Y-119630000D01*
X169272271Y-119644068D01*
X169452911Y-119680000D01*
X169637089Y-119680000D01*
X169817729Y-119644068D01*
X169987889Y-119573586D01*
X170141028Y-119471262D01*
X170271262Y-119341028D01*
X170373586Y-119187889D01*
X170444068Y-119017729D01*
X170480000Y-118837089D01*
X170480000Y-118652911D01*
X170444068Y-118472271D01*
X170373586Y-118302111D01*
X170271262Y-118148972D01*
X170141028Y-118018738D01*
X169987889Y-117916414D01*
X169817729Y-117845932D01*
X169637089Y-117810000D01*
X169452911Y-117810000D01*
X169272271Y-117845932D01*
X169238308Y-117860000D01*
X163238465Y-117860000D01*
X163194999Y-117855719D01*
X163151533Y-117860000D01*
X163151523Y-117860000D01*
X163021510Y-117872805D01*
X162854687Y-117923411D01*
X162700941Y-118005589D01*
X162700939Y-118005590D01*
X162700940Y-118005590D01*
X162599953Y-118088468D01*
X162599951Y-118088470D01*
X162566183Y-118116183D01*
X162538470Y-118149951D01*
X161899956Y-118788466D01*
X161866183Y-118816183D01*
X161755589Y-118950942D01*
X161673411Y-119104688D01*
X161622805Y-119271511D01*
X161610000Y-119401524D01*
X161610000Y-119401531D01*
X161605719Y-119445000D01*
X161610000Y-119488469D01*
X161610000Y-120205344D01*
X161548368Y-120246525D01*
X161341525Y-120453368D01*
X161179010Y-120696589D01*
X161067068Y-120966842D01*
X161010000Y-121253740D01*
X159337524Y-121253740D01*
X159416185Y-121189185D01*
X159495537Y-121092494D01*
X159554502Y-120982180D01*
X159590812Y-120862482D01*
X159603072Y-120738000D01*
X159603072Y-119038000D01*
X159590812Y-118913518D01*
X159554502Y-118793820D01*
X159495537Y-118683506D01*
X159416185Y-118586815D01*
X159319494Y-118507463D01*
X159209180Y-118448498D01*
X159089482Y-118412188D01*
X159000000Y-118403375D01*
X159000000Y-118153469D01*
X159004281Y-118110000D01*
X159000000Y-118066531D01*
X159000000Y-118066523D01*
X158987195Y-117936510D01*
X158981099Y-117916414D01*
X158936589Y-117769686D01*
X158854411Y-117615941D01*
X158771532Y-117514953D01*
X158771530Y-117514951D01*
X158743817Y-117481183D01*
X158710050Y-117453471D01*
X156759072Y-115502494D01*
X156759072Y-114972911D01*
X159215000Y-114972911D01*
X159215000Y-115157089D01*
X159250932Y-115337729D01*
X159265000Y-115371693D01*
X159265001Y-117673305D01*
X159250932Y-117707271D01*
X159215000Y-117887911D01*
X159215000Y-118072089D01*
X159250932Y-118252729D01*
X159321414Y-118422889D01*
X159423738Y-118576028D01*
X159553972Y-118706262D01*
X159707111Y-118808586D01*
X159877271Y-118879068D01*
X160057911Y-118915000D01*
X160242089Y-118915000D01*
X160422729Y-118879068D01*
X160592889Y-118808586D01*
X160746028Y-118706262D01*
X160876262Y-118576028D01*
X160978586Y-118422889D01*
X161049068Y-118252729D01*
X161085000Y-118072089D01*
X161085000Y-117887911D01*
X161049068Y-117707271D01*
X161035000Y-117673308D01*
X161035000Y-115371692D01*
X161049068Y-115337729D01*
X161085000Y-115157089D01*
X161085000Y-114972911D01*
X161049068Y-114792271D01*
X160978586Y-114622111D01*
X160876262Y-114468972D01*
X160746028Y-114338738D01*
X160592889Y-114236414D01*
X160422729Y-114165932D01*
X160242089Y-114130000D01*
X160057911Y-114130000D01*
X159877271Y-114165932D01*
X159707111Y-114236414D01*
X159553972Y-114338738D01*
X159423738Y-114468972D01*
X159321414Y-114622111D01*
X159250932Y-114792271D01*
X159215000Y-114972911D01*
X156759072Y-114972911D01*
X156759072Y-114135000D01*
X156746812Y-114010518D01*
X156710502Y-113890820D01*
X156651537Y-113780506D01*
X156572185Y-113683815D01*
X156475494Y-113604463D01*
X156365180Y-113545498D01*
X156245482Y-113509188D01*
X156121000Y-113496928D01*
X154521000Y-113496928D01*
X154396518Y-113509188D01*
X154276820Y-113545498D01*
X154166506Y-113604463D01*
X154069815Y-113683815D01*
X153990463Y-113780506D01*
X153931498Y-113890820D01*
X153895188Y-114010518D01*
X153882928Y-114135000D01*
X149895396Y-114135000D01*
X150085637Y-113944759D01*
X150242680Y-113709727D01*
X150350853Y-113448574D01*
X150406000Y-113171335D01*
X150406000Y-112888665D01*
X150396529Y-112841053D01*
X150493320Y-113074727D01*
X150650363Y-113309759D01*
X150850241Y-113509637D01*
X151085273Y-113666680D01*
X151346426Y-113774853D01*
X151623665Y-113830000D01*
X151906335Y-113830000D01*
X152183574Y-113774853D01*
X152444727Y-113666680D01*
X152679759Y-113509637D01*
X152879637Y-113309759D01*
X153036680Y-113074727D01*
X153144853Y-112813574D01*
X153200000Y-112536335D01*
X153200000Y-112253665D01*
X153144853Y-111976426D01*
X153036680Y-111715273D01*
X152879637Y-111480241D01*
X152679759Y-111280363D01*
X152444727Y-111123320D01*
X152183574Y-111015147D01*
X151906335Y-110960000D01*
X151623665Y-110960000D01*
X151346426Y-111015147D01*
X151085273Y-111123320D01*
X150850241Y-111280363D01*
X150650363Y-111480241D01*
X150493320Y-111715273D01*
X150385147Y-111976426D01*
X150330000Y-112253665D01*
X150330000Y-112536335D01*
X150339471Y-112583947D01*
X150242680Y-112350273D01*
X150085637Y-112115241D01*
X149885759Y-111915363D01*
X149650727Y-111758320D01*
X149454319Y-111676965D01*
X149624729Y-111643068D01*
X149794889Y-111572586D01*
X149948028Y-111470262D01*
X150078262Y-111340028D01*
X150180586Y-111186889D01*
X150251068Y-111016729D01*
X150287000Y-110836089D01*
X150287000Y-110651911D01*
X150251068Y-110471271D01*
X150237000Y-110437308D01*
X150237000Y-109840665D01*
X162395000Y-109840665D01*
X162395000Y-110123335D01*
X162450147Y-110400574D01*
X162558320Y-110661727D01*
X162715363Y-110896759D01*
X162915241Y-111096637D01*
X163150273Y-111253680D01*
X163411426Y-111361853D01*
X163688665Y-111417000D01*
X163971335Y-111417000D01*
X164248574Y-111361853D01*
X164509727Y-111253680D01*
X164744759Y-111096637D01*
X164944637Y-110896759D01*
X165101680Y-110661727D01*
X165209853Y-110400574D01*
X165265000Y-110123335D01*
X165265000Y-109840665D01*
X165209853Y-109563426D01*
X165101680Y-109302273D01*
X164944637Y-109067241D01*
X164744759Y-108867363D01*
X164509727Y-108710320D01*
X164248574Y-108602147D01*
X163971335Y-108547000D01*
X163688665Y-108547000D01*
X163411426Y-108602147D01*
X163150273Y-108710320D01*
X162915241Y-108867363D01*
X162715363Y-109067241D01*
X162558320Y-109302273D01*
X162450147Y-109563426D01*
X162395000Y-109840665D01*
X150237000Y-109840665D01*
X150237000Y-106045000D01*
X151009388Y-106045000D01*
X151031785Y-106272400D01*
X151098115Y-106491060D01*
X151199105Y-106680000D01*
X151098115Y-106868940D01*
X151031785Y-107087600D01*
X151009388Y-107315000D01*
X151031785Y-107542400D01*
X151095093Y-107751098D01*
X151060498Y-107815820D01*
X151024188Y-107935518D01*
X151011928Y-108060000D01*
X151011928Y-109110000D01*
X151024188Y-109234482D01*
X151060498Y-109354180D01*
X151119463Y-109464494D01*
X151198815Y-109561185D01*
X151295506Y-109640537D01*
X151405820Y-109699502D01*
X151525518Y-109735812D01*
X151650000Y-109748072D01*
X153150000Y-109748072D01*
X153274482Y-109735812D01*
X153394180Y-109699502D01*
X153504494Y-109640537D01*
X153601185Y-109561185D01*
X153680537Y-109464494D01*
X153739502Y-109354180D01*
X153775812Y-109234482D01*
X153788072Y-109110000D01*
X153788072Y-108060000D01*
X153775812Y-107935518D01*
X153739502Y-107815820D01*
X153704907Y-107751098D01*
X153768215Y-107542400D01*
X153790612Y-107315000D01*
X153776692Y-107173665D01*
X153886000Y-107173665D01*
X153886000Y-107456335D01*
X153941147Y-107733574D01*
X154049320Y-107994727D01*
X154206363Y-108229759D01*
X154406241Y-108429637D01*
X154641273Y-108586680D01*
X154902426Y-108694853D01*
X155179665Y-108750000D01*
X155462335Y-108750000D01*
X155739574Y-108694853D01*
X156000727Y-108586680D01*
X156235759Y-108429637D01*
X156435637Y-108229759D01*
X156592680Y-107994727D01*
X156700853Y-107733574D01*
X156756000Y-107456335D01*
X156756000Y-107173665D01*
X156700853Y-106896426D01*
X156592680Y-106635273D01*
X156435637Y-106400241D01*
X156235759Y-106200363D01*
X156003242Y-106045000D01*
X157994388Y-106045000D01*
X158016785Y-106272400D01*
X158083115Y-106491060D01*
X158184105Y-106680000D01*
X158083115Y-106868940D01*
X158016785Y-107087600D01*
X157994388Y-107315000D01*
X158016785Y-107542400D01*
X158080093Y-107751098D01*
X158045498Y-107815820D01*
X158009188Y-107935518D01*
X157996928Y-108060000D01*
X157996928Y-109110000D01*
X158009188Y-109234482D01*
X158045498Y-109354180D01*
X158104463Y-109464494D01*
X158183815Y-109561185D01*
X158280506Y-109640537D01*
X158390820Y-109699502D01*
X158510518Y-109735812D01*
X158635000Y-109748072D01*
X160135000Y-109748072D01*
X160259482Y-109735812D01*
X160379180Y-109699502D01*
X160489494Y-109640537D01*
X160586185Y-109561185D01*
X160665537Y-109464494D01*
X160724502Y-109354180D01*
X160760812Y-109234482D01*
X160773072Y-109110000D01*
X160773072Y-108060000D01*
X160760812Y-107935518D01*
X160724502Y-107815820D01*
X160689907Y-107751098D01*
X160753215Y-107542400D01*
X160775612Y-107315000D01*
X160753215Y-107087600D01*
X160686885Y-106868940D01*
X160585895Y-106680000D01*
X160686885Y-106491060D01*
X160753215Y-106272400D01*
X160775612Y-106045000D01*
X160753215Y-105817600D01*
X160686885Y-105598940D01*
X160579171Y-105397421D01*
X160434212Y-105220788D01*
X160257579Y-105075829D01*
X160056060Y-104968115D01*
X159837400Y-104901785D01*
X159666979Y-104885000D01*
X159103021Y-104885000D01*
X158932600Y-104901785D01*
X158713940Y-104968115D01*
X158512421Y-105075829D01*
X158335788Y-105220788D01*
X158190829Y-105397421D01*
X158083115Y-105598940D01*
X158016785Y-105817600D01*
X157994388Y-106045000D01*
X156003242Y-106045000D01*
X156000727Y-106043320D01*
X155739574Y-105935147D01*
X155462335Y-105880000D01*
X155179665Y-105880000D01*
X154902426Y-105935147D01*
X154641273Y-106043320D01*
X154406241Y-106200363D01*
X154206363Y-106400241D01*
X154049320Y-106635273D01*
X153941147Y-106896426D01*
X153886000Y-107173665D01*
X153776692Y-107173665D01*
X153768215Y-107087600D01*
X153701885Y-106868940D01*
X153600895Y-106680000D01*
X153701885Y-106491060D01*
X153768215Y-106272400D01*
X153790612Y-106045000D01*
X153768215Y-105817600D01*
X153701885Y-105598940D01*
X153594171Y-105397421D01*
X153449212Y-105220788D01*
X153272579Y-105075829D01*
X153071060Y-104968115D01*
X152852400Y-104901785D01*
X152681979Y-104885000D01*
X152118021Y-104885000D01*
X151947600Y-104901785D01*
X151728940Y-104968115D01*
X151527421Y-105075829D01*
X151350788Y-105220788D01*
X151205829Y-105397421D01*
X151098115Y-105598940D01*
X151031785Y-105817600D01*
X151009388Y-106045000D01*
X150237000Y-106045000D01*
X150237000Y-104408794D01*
X150353665Y-104432000D01*
X150636335Y-104432000D01*
X150913574Y-104376853D01*
X151174727Y-104268680D01*
X151409759Y-104111637D01*
X151609637Y-103911759D01*
X151766680Y-103676727D01*
X151874853Y-103415574D01*
X151930000Y-103138335D01*
X151930000Y-102855665D01*
X159220000Y-102855665D01*
X159220000Y-103138335D01*
X159275147Y-103415574D01*
X159383320Y-103676727D01*
X159540363Y-103911759D01*
X159740241Y-104111637D01*
X159975273Y-104268680D01*
X160236426Y-104376853D01*
X160513665Y-104432000D01*
X160796335Y-104432000D01*
X161073574Y-104376853D01*
X161334727Y-104268680D01*
X161569759Y-104111637D01*
X161769637Y-103911759D01*
X161926680Y-103676727D01*
X162034853Y-103415574D01*
X162090000Y-103138335D01*
X162090000Y-102855665D01*
X162034853Y-102578426D01*
X161926680Y-102317273D01*
X161769637Y-102082241D01*
X161569759Y-101882363D01*
X161334727Y-101725320D01*
X161073574Y-101617147D01*
X160796335Y-101562000D01*
X160513665Y-101562000D01*
X160236426Y-101617147D01*
X159975273Y-101725320D01*
X159740241Y-101882363D01*
X159540363Y-102082241D01*
X159383320Y-102317273D01*
X159275147Y-102578426D01*
X159220000Y-102855665D01*
X151930000Y-102855665D01*
X151874853Y-102578426D01*
X151766680Y-102317273D01*
X151609637Y-102082241D01*
X151409759Y-101882363D01*
X151174727Y-101725320D01*
X150913574Y-101617147D01*
X150636335Y-101562000D01*
X150353665Y-101562000D01*
X150237000Y-101585206D01*
X150237000Y-99680665D01*
X159220000Y-99680665D01*
X159220000Y-99963335D01*
X159275147Y-100240574D01*
X159383320Y-100501727D01*
X159540363Y-100736759D01*
X159740241Y-100936637D01*
X159975273Y-101093680D01*
X160236426Y-101201853D01*
X160513665Y-101257000D01*
X160796335Y-101257000D01*
X161073574Y-101201853D01*
X161334727Y-101093680D01*
X161569759Y-100936637D01*
X161769637Y-100736759D01*
X161926680Y-100501727D01*
X162034853Y-100240574D01*
X162090000Y-99963335D01*
X162090000Y-99680665D01*
X162395000Y-99680665D01*
X162395000Y-99963335D01*
X162450147Y-100240574D01*
X162558320Y-100501727D01*
X162715363Y-100736759D01*
X162915241Y-100936637D01*
X163150273Y-101093680D01*
X163411426Y-101201853D01*
X163688665Y-101257000D01*
X163971335Y-101257000D01*
X164248574Y-101201853D01*
X164509727Y-101093680D01*
X164744759Y-100936637D01*
X164944637Y-100736759D01*
X165101680Y-100501727D01*
X165209853Y-100240574D01*
X165265000Y-99963335D01*
X165265000Y-99680665D01*
X165209853Y-99403426D01*
X165101680Y-99142273D01*
X164944637Y-98907241D01*
X164744759Y-98707363D01*
X164509727Y-98550320D01*
X164248574Y-98442147D01*
X163971335Y-98387000D01*
X163688665Y-98387000D01*
X163411426Y-98442147D01*
X163150273Y-98550320D01*
X162915241Y-98707363D01*
X162715363Y-98907241D01*
X162558320Y-99142273D01*
X162450147Y-99403426D01*
X162395000Y-99680665D01*
X162090000Y-99680665D01*
X162034853Y-99403426D01*
X161926680Y-99142273D01*
X161769637Y-98907241D01*
X161569759Y-98707363D01*
X161334727Y-98550320D01*
X161073574Y-98442147D01*
X160796335Y-98387000D01*
X160513665Y-98387000D01*
X160236426Y-98442147D01*
X159975273Y-98550320D01*
X159740241Y-98707363D01*
X159540363Y-98907241D01*
X159383320Y-99142273D01*
X159275147Y-99403426D01*
X159220000Y-99680665D01*
X150237000Y-99680665D01*
X150237000Y-96378665D01*
X152235000Y-96378665D01*
X152235000Y-96661335D01*
X152290147Y-96938574D01*
X152398320Y-97199727D01*
X152555363Y-97434759D01*
X152755241Y-97634637D01*
X152990273Y-97791680D01*
X153251426Y-97899853D01*
X153528665Y-97955000D01*
X153811335Y-97955000D01*
X154088574Y-97899853D01*
X154349727Y-97791680D01*
X154584759Y-97634637D01*
X154784637Y-97434759D01*
X154941680Y-97199727D01*
X155049853Y-96938574D01*
X155105000Y-96661335D01*
X155105000Y-96378665D01*
X162395000Y-96378665D01*
X162395000Y-96661335D01*
X162450147Y-96938574D01*
X162558320Y-97199727D01*
X162715363Y-97434759D01*
X162915241Y-97634637D01*
X163150273Y-97791680D01*
X163411426Y-97899853D01*
X163688665Y-97955000D01*
X163971335Y-97955000D01*
X164248574Y-97899853D01*
X164509727Y-97791680D01*
X164744759Y-97634637D01*
X164944637Y-97434759D01*
X165101680Y-97199727D01*
X165209853Y-96938574D01*
X165265000Y-96661335D01*
X165265000Y-96378665D01*
X165209853Y-96101426D01*
X165101680Y-95840273D01*
X164944637Y-95605241D01*
X164744759Y-95405363D01*
X164509727Y-95248320D01*
X164248574Y-95140147D01*
X163971335Y-95085000D01*
X163688665Y-95085000D01*
X163411426Y-95140147D01*
X163150273Y-95248320D01*
X162915241Y-95405363D01*
X162715363Y-95605241D01*
X162558320Y-95840273D01*
X162450147Y-96101426D01*
X162395000Y-96378665D01*
X155105000Y-96378665D01*
X155049853Y-96101426D01*
X154941680Y-95840273D01*
X154784637Y-95605241D01*
X154584759Y-95405363D01*
X154555000Y-95385479D01*
X154555000Y-94450000D01*
X176996928Y-94450000D01*
X176996928Y-96050000D01*
X177009188Y-96174482D01*
X177045498Y-96294180D01*
X177104463Y-96404494D01*
X177183815Y-96501185D01*
X177280506Y-96580537D01*
X177390820Y-96639502D01*
X177510518Y-96675812D01*
X177635000Y-96688072D01*
X179235000Y-96688072D01*
X179359482Y-96675812D01*
X179479180Y-96639502D01*
X179589494Y-96580537D01*
X179686185Y-96501185D01*
X179765537Y-96404494D01*
X179824502Y-96294180D01*
X179860812Y-96174482D01*
X179873072Y-96050000D01*
X179873072Y-94450000D01*
X179860812Y-94325518D01*
X179824502Y-94205820D01*
X179765537Y-94095506D01*
X179686185Y-93998815D01*
X179589494Y-93919463D01*
X179479180Y-93860498D01*
X179359482Y-93824188D01*
X179235000Y-93811928D01*
X177635000Y-93811928D01*
X177510518Y-93824188D01*
X177390820Y-93860498D01*
X177280506Y-93919463D01*
X177183815Y-93998815D01*
X177104463Y-94095506D01*
X177045498Y-94205820D01*
X177009188Y-94325518D01*
X176996928Y-94450000D01*
X154555000Y-94450000D01*
X154555000Y-89370000D01*
X155406928Y-89370000D01*
X155406928Y-90970000D01*
X155419188Y-91094482D01*
X155455498Y-91214180D01*
X155514463Y-91324494D01*
X155593815Y-91421185D01*
X155690506Y-91500537D01*
X155800820Y-91559502D01*
X155920518Y-91595812D01*
X156045000Y-91608072D01*
X157645000Y-91608072D01*
X157769482Y-91595812D01*
X157889180Y-91559502D01*
X157999494Y-91500537D01*
X158096185Y-91421185D01*
X158175537Y-91324494D01*
X158234502Y-91214180D01*
X158270812Y-91094482D01*
X158283072Y-90970000D01*
X158283072Y-89370000D01*
X158270812Y-89245518D01*
X158234502Y-89125820D01*
X158175537Y-89015506D01*
X158096185Y-88918815D01*
X157999494Y-88839463D01*
X157889180Y-88780498D01*
X157769482Y-88744188D01*
X157645000Y-88731928D01*
X156045000Y-88731928D01*
X155920518Y-88744188D01*
X155800820Y-88780498D01*
X155690506Y-88839463D01*
X155593815Y-88918815D01*
X155514463Y-89015506D01*
X155455498Y-89125820D01*
X155419188Y-89245518D01*
X155406928Y-89370000D01*
X154555000Y-89370000D01*
X154555000Y-87947500D01*
X176796928Y-87947500D01*
X176796928Y-89852500D01*
X176809188Y-89976982D01*
X176845498Y-90096680D01*
X176904463Y-90206994D01*
X176983815Y-90303685D01*
X177080506Y-90383037D01*
X177190820Y-90442002D01*
X177310518Y-90478312D01*
X177435000Y-90490572D01*
X179435000Y-90490572D01*
X179559482Y-90478312D01*
X179679180Y-90442002D01*
X179789494Y-90383037D01*
X179886185Y-90303685D01*
X179965537Y-90206994D01*
X180024502Y-90096680D01*
X180060812Y-89976982D01*
X180073072Y-89852500D01*
X180073072Y-87947500D01*
X180060812Y-87823018D01*
X180024502Y-87703320D01*
X179965537Y-87593006D01*
X179886185Y-87496315D01*
X179789494Y-87416963D01*
X179679180Y-87357998D01*
X179559482Y-87321688D01*
X179435000Y-87309428D01*
X177435000Y-87309428D01*
X177310518Y-87321688D01*
X177190820Y-87357998D01*
X177080506Y-87416963D01*
X176983815Y-87496315D01*
X176904463Y-87593006D01*
X176845498Y-87703320D01*
X176809188Y-87823018D01*
X176796928Y-87947500D01*
X154555000Y-87947500D01*
X154555000Y-83872692D01*
X154569068Y-83838729D01*
X154605000Y-83658089D01*
X154605000Y-83473911D01*
X154569068Y-83293271D01*
X154498586Y-83123111D01*
X154396262Y-82969972D01*
X154266028Y-82839738D01*
X154112889Y-82737414D01*
X153942729Y-82666932D01*
X153762089Y-82631000D01*
X153577911Y-82631000D01*
X153397271Y-82666932D01*
X153227111Y-82737414D01*
X153073972Y-82839738D01*
X152943738Y-82969972D01*
X152841414Y-83123111D01*
X152770932Y-83293271D01*
X152735000Y-83473911D01*
X152735000Y-83658089D01*
X152770932Y-83838729D01*
X152785001Y-83872695D01*
X152785000Y-95385479D01*
X152755241Y-95405363D01*
X152555363Y-95605241D01*
X152398320Y-95840273D01*
X152290147Y-96101426D01*
X152235000Y-96378665D01*
X150237000Y-96378665D01*
X150237000Y-93016692D01*
X150251068Y-92982729D01*
X150287000Y-92802089D01*
X150287000Y-92617911D01*
X150251068Y-92437271D01*
X150180586Y-92267111D01*
X150078262Y-92113972D01*
X149948028Y-91983738D01*
X149794889Y-91881414D01*
X149624729Y-91810932D01*
X149444089Y-91775000D01*
X149259911Y-91775000D01*
X149079271Y-91810932D01*
X148909111Y-91881414D01*
X148755972Y-91983738D01*
X148625738Y-92113972D01*
X148523414Y-92267111D01*
X148452932Y-92437271D01*
X148417000Y-92617911D01*
X148417000Y-92802089D01*
X148452932Y-92982729D01*
X148467000Y-93016693D01*
X148467001Y-101585207D01*
X148350335Y-101562000D01*
X148067665Y-101562000D01*
X147790426Y-101617147D01*
X147529273Y-101725320D01*
X147443000Y-101782966D01*
X147443000Y-99813521D01*
X147472759Y-99793637D01*
X147672637Y-99593759D01*
X147829680Y-99358727D01*
X147937853Y-99097574D01*
X147993000Y-98820335D01*
X147993000Y-98537665D01*
X147937853Y-98260426D01*
X147829680Y-97999273D01*
X147672637Y-97764241D01*
X147472759Y-97564363D01*
X147237727Y-97407320D01*
X146976574Y-97299147D01*
X146699335Y-97244000D01*
X146416665Y-97244000D01*
X146139426Y-97299147D01*
X145878273Y-97407320D01*
X145643241Y-97564363D01*
X145443363Y-97764241D01*
X145286320Y-97999273D01*
X145178147Y-98260426D01*
X145123000Y-98537665D01*
X144614857Y-98537665D01*
X144443727Y-98423320D01*
X144182574Y-98315147D01*
X143905335Y-98260000D01*
X143622665Y-98260000D01*
X143345426Y-98315147D01*
X143084273Y-98423320D01*
X142849241Y-98580363D01*
X142649363Y-98780241D01*
X142492320Y-99015273D01*
X142384147Y-99276426D01*
X142329000Y-99553665D01*
X135039000Y-99553665D01*
X134983853Y-99276426D01*
X134875680Y-99015273D01*
X134718637Y-98780241D01*
X134518759Y-98580363D01*
X134283727Y-98423320D01*
X134022574Y-98315147D01*
X133745335Y-98260000D01*
X133462665Y-98260000D01*
X133185426Y-98315147D01*
X132924273Y-98423320D01*
X132689241Y-98580363D01*
X132489363Y-98780241D01*
X132332320Y-99015273D01*
X132224147Y-99276426D01*
X132169000Y-99553665D01*
X131949000Y-99553665D01*
X131949000Y-95743665D01*
X132169000Y-95743665D01*
X132169000Y-96026335D01*
X132224147Y-96303574D01*
X132332320Y-96564727D01*
X132489363Y-96799759D01*
X132689241Y-96999637D01*
X132924273Y-97156680D01*
X133185426Y-97264853D01*
X133462665Y-97320000D01*
X133745335Y-97320000D01*
X134022574Y-97264853D01*
X134283727Y-97156680D01*
X134518759Y-96999637D01*
X134718637Y-96799759D01*
X134875680Y-96564727D01*
X134983853Y-96303574D01*
X135039000Y-96026335D01*
X135039000Y-95743665D01*
X134983853Y-95466426D01*
X134875680Y-95205273D01*
X134718637Y-94970241D01*
X134518759Y-94770363D01*
X134283727Y-94613320D01*
X134022574Y-94505147D01*
X133745335Y-94450000D01*
X133462665Y-94450000D01*
X133185426Y-94505147D01*
X132924273Y-94613320D01*
X132689241Y-94770363D01*
X132489363Y-94970241D01*
X132332320Y-95205273D01*
X132224147Y-95466426D01*
X132169000Y-95743665D01*
X131949000Y-95743665D01*
X131949000Y-88377665D01*
X138265000Y-88377665D01*
X138265000Y-88660335D01*
X138320147Y-88937574D01*
X138428320Y-89198727D01*
X138585363Y-89433759D01*
X138785241Y-89633637D01*
X139020273Y-89790680D01*
X139281426Y-89898853D01*
X139558665Y-89954000D01*
X139841335Y-89954000D01*
X140118574Y-89898853D01*
X140379727Y-89790680D01*
X140614759Y-89633637D01*
X140814637Y-89433759D01*
X140971680Y-89198727D01*
X141079853Y-88937574D01*
X141135000Y-88660335D01*
X141135000Y-88377665D01*
X141440000Y-88377665D01*
X141440000Y-88660335D01*
X141495147Y-88937574D01*
X141603320Y-89198727D01*
X141760363Y-89433759D01*
X141960241Y-89633637D01*
X142195273Y-89790680D01*
X142456426Y-89898853D01*
X142733665Y-89954000D01*
X143016335Y-89954000D01*
X143293574Y-89898853D01*
X143554727Y-89790680D01*
X143789759Y-89633637D01*
X143989637Y-89433759D01*
X144146680Y-89198727D01*
X144254853Y-88937574D01*
X144310000Y-88660335D01*
X144310000Y-88377665D01*
X145123000Y-88377665D01*
X145123000Y-88660335D01*
X145178147Y-88937574D01*
X145286320Y-89198727D01*
X145443363Y-89433759D01*
X145643241Y-89633637D01*
X145878273Y-89790680D01*
X146139426Y-89898853D01*
X146416665Y-89954000D01*
X146699335Y-89954000D01*
X146976574Y-89898853D01*
X147237727Y-89790680D01*
X147472759Y-89633637D01*
X147672637Y-89433759D01*
X147829680Y-89198727D01*
X147937853Y-88937574D01*
X147993000Y-88660335D01*
X147993000Y-88377665D01*
X147937853Y-88100426D01*
X147829680Y-87839273D01*
X147672637Y-87604241D01*
X147472759Y-87404363D01*
X147237727Y-87247320D01*
X146976574Y-87139147D01*
X146699335Y-87084000D01*
X146416665Y-87084000D01*
X146139426Y-87139147D01*
X145878273Y-87247320D01*
X145643241Y-87404363D01*
X145443363Y-87604241D01*
X145286320Y-87839273D01*
X145178147Y-88100426D01*
X145123000Y-88377665D01*
X144310000Y-88377665D01*
X144254853Y-88100426D01*
X144146680Y-87839273D01*
X143989637Y-87604241D01*
X143789759Y-87404363D01*
X143554727Y-87247320D01*
X143293574Y-87139147D01*
X143016335Y-87084000D01*
X142733665Y-87084000D01*
X142456426Y-87139147D01*
X142195273Y-87247320D01*
X141960241Y-87404363D01*
X141760363Y-87604241D01*
X141603320Y-87839273D01*
X141495147Y-88100426D01*
X141440000Y-88377665D01*
X141135000Y-88377665D01*
X141079853Y-88100426D01*
X140971680Y-87839273D01*
X140814637Y-87604241D01*
X140614759Y-87404363D01*
X140379727Y-87247320D01*
X140118574Y-87139147D01*
X139841335Y-87084000D01*
X139558665Y-87084000D01*
X139281426Y-87139147D01*
X139020273Y-87247320D01*
X138785241Y-87404363D01*
X138585363Y-87604241D01*
X138428320Y-87839273D01*
X138320147Y-88100426D01*
X138265000Y-88377665D01*
X131949000Y-88377665D01*
X131949000Y-83377665D01*
X138265000Y-83377665D01*
X138265000Y-83660335D01*
X138320147Y-83937574D01*
X138428320Y-84198727D01*
X138585363Y-84433759D01*
X138785241Y-84633637D01*
X139020273Y-84790680D01*
X139281426Y-84898853D01*
X139558665Y-84954000D01*
X139841335Y-84954000D01*
X140118574Y-84898853D01*
X140379727Y-84790680D01*
X140614759Y-84633637D01*
X140814637Y-84433759D01*
X140971680Y-84198727D01*
X141079853Y-83937574D01*
X141135000Y-83660335D01*
X141135000Y-83377665D01*
X141079853Y-83100426D01*
X140971680Y-82839273D01*
X140814637Y-82604241D01*
X140619061Y-82408665D01*
X155410000Y-82408665D01*
X155410000Y-82691335D01*
X155465147Y-82968574D01*
X155573320Y-83229727D01*
X155730363Y-83464759D01*
X155930241Y-83664637D01*
X156165273Y-83821680D01*
X156426426Y-83929853D01*
X156703665Y-83985000D01*
X156986335Y-83985000D01*
X157263574Y-83929853D01*
X157524727Y-83821680D01*
X157759759Y-83664637D01*
X157959637Y-83464759D01*
X158116680Y-83229727D01*
X158224853Y-82968574D01*
X158280000Y-82691335D01*
X158280000Y-82457911D01*
X169880000Y-82457911D01*
X169880000Y-82642089D01*
X169915932Y-82822729D01*
X169930000Y-82856693D01*
X169930001Y-84783305D01*
X169915932Y-84817271D01*
X169880000Y-84997911D01*
X169880000Y-85182089D01*
X169915932Y-85362729D01*
X169986414Y-85532889D01*
X170088738Y-85686028D01*
X170218972Y-85816262D01*
X170372111Y-85918586D01*
X170542271Y-85989068D01*
X170722911Y-86025000D01*
X170907089Y-86025000D01*
X171087729Y-85989068D01*
X171257889Y-85918586D01*
X171411028Y-85816262D01*
X171541262Y-85686028D01*
X171643586Y-85532889D01*
X171714068Y-85362729D01*
X171750000Y-85182089D01*
X171750000Y-84997911D01*
X171714068Y-84817271D01*
X171700000Y-84783308D01*
X171700000Y-83820000D01*
X176792319Y-83820000D01*
X176822970Y-84131204D01*
X176913745Y-84430449D01*
X177061155Y-84706235D01*
X177259537Y-84947963D01*
X177501265Y-85146345D01*
X177777051Y-85293755D01*
X178076296Y-85384530D01*
X178309514Y-85407500D01*
X178560486Y-85407500D01*
X178793704Y-85384530D01*
X179092949Y-85293755D01*
X179368735Y-85146345D01*
X179610463Y-84947963D01*
X179808845Y-84706235D01*
X179956255Y-84430449D01*
X180047030Y-84131204D01*
X180077681Y-83820000D01*
X180047030Y-83508796D01*
X179956255Y-83209551D01*
X179808845Y-82933765D01*
X179610463Y-82692037D01*
X179368735Y-82493655D01*
X179092949Y-82346245D01*
X178793704Y-82255470D01*
X178560486Y-82232500D01*
X178309514Y-82232500D01*
X178076296Y-82255470D01*
X177777051Y-82346245D01*
X177501265Y-82493655D01*
X177259537Y-82692037D01*
X177061155Y-82933765D01*
X176913745Y-83209551D01*
X176822970Y-83508796D01*
X176792319Y-83820000D01*
X171700000Y-83820000D01*
X171700000Y-82856692D01*
X171714068Y-82822729D01*
X171750000Y-82642089D01*
X171750000Y-82457911D01*
X171714068Y-82277271D01*
X171643586Y-82107111D01*
X171541262Y-81953972D01*
X171411028Y-81823738D01*
X171257889Y-81721414D01*
X171087729Y-81650932D01*
X170907089Y-81615000D01*
X170722911Y-81615000D01*
X170542271Y-81650932D01*
X170372111Y-81721414D01*
X170218972Y-81823738D01*
X170088738Y-81953972D01*
X169986414Y-82107111D01*
X169915932Y-82277271D01*
X169880000Y-82457911D01*
X158280000Y-82457911D01*
X158280000Y-82408665D01*
X158224853Y-82131426D01*
X158116680Y-81870273D01*
X157959637Y-81635241D01*
X157759759Y-81435363D01*
X157524727Y-81278320D01*
X157263574Y-81170147D01*
X156986335Y-81115000D01*
X156703665Y-81115000D01*
X156426426Y-81170147D01*
X156165273Y-81278320D01*
X155930241Y-81435363D01*
X155730363Y-81635241D01*
X155573320Y-81870273D01*
X155465147Y-82131426D01*
X155410000Y-82408665D01*
X140619061Y-82408665D01*
X140614759Y-82404363D01*
X140379727Y-82247320D01*
X140118574Y-82139147D01*
X139841335Y-82084000D01*
X139558665Y-82084000D01*
X139281426Y-82139147D01*
X139020273Y-82247320D01*
X138785241Y-82404363D01*
X138585363Y-82604241D01*
X138428320Y-82839273D01*
X138320147Y-83100426D01*
X138265000Y-83377665D01*
X131949000Y-83377665D01*
X131949000Y-78217665D01*
X135217000Y-78217665D01*
X135217000Y-78500335D01*
X135272147Y-78777574D01*
X135380320Y-79038727D01*
X135537363Y-79273759D01*
X135737241Y-79473637D01*
X135972273Y-79630680D01*
X136233426Y-79738853D01*
X136510665Y-79794000D01*
X136793335Y-79794000D01*
X137070574Y-79738853D01*
X137331727Y-79630680D01*
X137566759Y-79473637D01*
X137766637Y-79273759D01*
X137923680Y-79038727D01*
X138031853Y-78777574D01*
X138087000Y-78500335D01*
X138087000Y-78217665D01*
X138031853Y-77940426D01*
X137923680Y-77679273D01*
X137766637Y-77444241D01*
X137566759Y-77244363D01*
X137331727Y-77087320D01*
X137070574Y-76979147D01*
X136793335Y-76924000D01*
X136510665Y-76924000D01*
X136233426Y-76979147D01*
X135972273Y-77087320D01*
X135737241Y-77244363D01*
X135537363Y-77444241D01*
X135380320Y-77679273D01*
X135272147Y-77940426D01*
X135217000Y-78217665D01*
X131949000Y-78217665D01*
X131949000Y-75985000D01*
X152181928Y-75985000D01*
X152181928Y-77685000D01*
X152194188Y-77809482D01*
X152230498Y-77929180D01*
X152289463Y-78039494D01*
X152368815Y-78136185D01*
X152465506Y-78215537D01*
X152575820Y-78274502D01*
X152695518Y-78310812D01*
X152811062Y-78322192D01*
X152848412Y-78445313D01*
X152930590Y-78599059D01*
X153013468Y-78700046D01*
X153013471Y-78700049D01*
X153041184Y-78733817D01*
X153074951Y-78761529D01*
X154283470Y-79970049D01*
X154311183Y-80003817D01*
X154344951Y-80031530D01*
X154344953Y-80031532D01*
X154392481Y-80070537D01*
X154445941Y-80114411D01*
X154599687Y-80196589D01*
X154766510Y-80247195D01*
X154896523Y-80260000D01*
X154896533Y-80260000D01*
X154939999Y-80264281D01*
X154983465Y-80260000D01*
X166326531Y-80260000D01*
X166370000Y-80264281D01*
X166413469Y-80260000D01*
X166413477Y-80260000D01*
X166543490Y-80247195D01*
X166710313Y-80196589D01*
X166864059Y-80114411D01*
X166998817Y-80003817D01*
X167026534Y-79970044D01*
X167127913Y-79868665D01*
X171920000Y-79868665D01*
X171920000Y-80151335D01*
X171975147Y-80428574D01*
X172083320Y-80689727D01*
X172240363Y-80924759D01*
X172440241Y-81124637D01*
X172675273Y-81281680D01*
X172936426Y-81389853D01*
X173213665Y-81445000D01*
X173496335Y-81445000D01*
X173773574Y-81389853D01*
X174034727Y-81281680D01*
X174269759Y-81124637D01*
X174469637Y-80924759D01*
X174626680Y-80689727D01*
X174734853Y-80428574D01*
X174790000Y-80151335D01*
X174790000Y-79868665D01*
X174734853Y-79591426D01*
X174626680Y-79330273D01*
X174469637Y-79095241D01*
X174269759Y-78895363D01*
X174034727Y-78738320D01*
X173773574Y-78630147D01*
X173496335Y-78575000D01*
X173213665Y-78575000D01*
X172936426Y-78630147D01*
X172675273Y-78738320D01*
X172440241Y-78895363D01*
X172240363Y-79095241D01*
X172083320Y-79330273D01*
X171975147Y-79591426D01*
X171920000Y-79868665D01*
X167127913Y-79868665D01*
X167965050Y-79031529D01*
X167998817Y-79003817D01*
X168109411Y-78869059D01*
X168109412Y-78869058D01*
X168191589Y-78715314D01*
X168242195Y-78548490D01*
X168242195Y-78548489D01*
X168255000Y-78418477D01*
X168255000Y-78418469D01*
X168259281Y-78375000D01*
X168255000Y-78331531D01*
X168255000Y-78029656D01*
X168316632Y-77988475D01*
X168365107Y-77940000D01*
X176996928Y-77940000D01*
X176996928Y-79540000D01*
X177009188Y-79664482D01*
X177045498Y-79784180D01*
X177104463Y-79894494D01*
X177183815Y-79991185D01*
X177280506Y-80070537D01*
X177390820Y-80129502D01*
X177510518Y-80165812D01*
X177635000Y-80178072D01*
X179235000Y-80178072D01*
X179359482Y-80165812D01*
X179479180Y-80129502D01*
X179589494Y-80070537D01*
X179686185Y-79991185D01*
X179765537Y-79894494D01*
X179824502Y-79784180D01*
X179860812Y-79664482D01*
X179873072Y-79540000D01*
X179873072Y-77940000D01*
X179860812Y-77815518D01*
X179824502Y-77695820D01*
X179765537Y-77585506D01*
X179686185Y-77488815D01*
X179589494Y-77409463D01*
X179479180Y-77350498D01*
X179359482Y-77314188D01*
X179235000Y-77301928D01*
X177635000Y-77301928D01*
X177510518Y-77314188D01*
X177390820Y-77350498D01*
X177280506Y-77409463D01*
X177183815Y-77488815D01*
X177104463Y-77585506D01*
X177045498Y-77695820D01*
X177009188Y-77815518D01*
X176996928Y-77940000D01*
X168365107Y-77940000D01*
X168523475Y-77781632D01*
X168685990Y-77538411D01*
X168797932Y-77268158D01*
X168855000Y-76981260D01*
X168855000Y-76688740D01*
X168797932Y-76401842D01*
X168685990Y-76131589D01*
X168523475Y-75888368D01*
X168316632Y-75681525D01*
X168073411Y-75519010D01*
X167803158Y-75407068D01*
X167516260Y-75350000D01*
X167223740Y-75350000D01*
X166936842Y-75407068D01*
X166666589Y-75519010D01*
X166423368Y-75681525D01*
X166216525Y-75888368D01*
X166100000Y-76062760D01*
X165983475Y-75888368D01*
X165776632Y-75681525D01*
X165533411Y-75519010D01*
X165263158Y-75407068D01*
X164976260Y-75350000D01*
X164683740Y-75350000D01*
X164396842Y-75407068D01*
X164126589Y-75519010D01*
X163883368Y-75681525D01*
X163751513Y-75813380D01*
X163729502Y-75740820D01*
X163670537Y-75630506D01*
X163591185Y-75533815D01*
X163494494Y-75454463D01*
X163384180Y-75395498D01*
X163264482Y-75359188D01*
X163140000Y-75346928D01*
X161440000Y-75346928D01*
X161315518Y-75359188D01*
X161195820Y-75395498D01*
X161085506Y-75454463D01*
X160988815Y-75533815D01*
X160909463Y-75630506D01*
X160850498Y-75740820D01*
X160814188Y-75860518D01*
X160801928Y-75985000D01*
X160801928Y-77685000D01*
X160814188Y-77809482D01*
X160850498Y-77929180D01*
X160909463Y-78039494D01*
X160988815Y-78136185D01*
X161085506Y-78215537D01*
X161195820Y-78274502D01*
X161315518Y-78310812D01*
X161440000Y-78323072D01*
X163140000Y-78323072D01*
X163264482Y-78310812D01*
X163384180Y-78274502D01*
X163494494Y-78215537D01*
X163591185Y-78136185D01*
X163670537Y-78039494D01*
X163729502Y-77929180D01*
X163751513Y-77856620D01*
X163883368Y-77988475D01*
X164126589Y-78150990D01*
X164396842Y-78262932D01*
X164683740Y-78320000D01*
X164976260Y-78320000D01*
X165263158Y-78262932D01*
X165533411Y-78150990D01*
X165776632Y-77988475D01*
X165983475Y-77781632D01*
X166100000Y-77607240D01*
X166216525Y-77781632D01*
X166423368Y-77988475D01*
X166472271Y-78021151D01*
X166003422Y-78490000D01*
X155306579Y-78490000D01*
X154961067Y-78144489D01*
X154971185Y-78136185D01*
X155050537Y-78039494D01*
X155109502Y-77929180D01*
X155145812Y-77809482D01*
X155158072Y-77685000D01*
X155158072Y-75985000D01*
X155145812Y-75860518D01*
X155109502Y-75740820D01*
X155050537Y-75630506D01*
X154971185Y-75533815D01*
X154874494Y-75454463D01*
X154764180Y-75395498D01*
X154644482Y-75359188D01*
X154520000Y-75346928D01*
X152820000Y-75346928D01*
X152695518Y-75359188D01*
X152575820Y-75395498D01*
X152465506Y-75454463D01*
X152368815Y-75533815D01*
X152289463Y-75630506D01*
X152230498Y-75740820D01*
X152194188Y-75860518D01*
X152181928Y-75985000D01*
X131949000Y-75985000D01*
X131949000Y-73772578D01*
X132567217Y-73154362D01*
X132721481Y-73236818D01*
X133029584Y-73330280D01*
X133350000Y-73361838D01*
X133670415Y-73330280D01*
X133978518Y-73236818D01*
X134262466Y-73085044D01*
X134511351Y-72880791D01*
X134715604Y-72631907D01*
X134867378Y-72347959D01*
X134960840Y-72039856D01*
X134984490Y-71799732D01*
X134984490Y-70440268D01*
X139335510Y-70440268D01*
X139335510Y-71799731D01*
X139359160Y-72039855D01*
X139452622Y-72347958D01*
X139604396Y-72631906D01*
X139808649Y-72880791D01*
X140057533Y-73085044D01*
X140341481Y-73236818D01*
X140649584Y-73330280D01*
X140970000Y-73361838D01*
X141290415Y-73330280D01*
X141598518Y-73236818D01*
X141882466Y-73085044D01*
X142131351Y-72880791D01*
X142335604Y-72631907D01*
X142487378Y-72347959D01*
X142580840Y-72039856D01*
X142604490Y-71799732D01*
X142604490Y-70440268D01*
X142601098Y-70405823D01*
X158320000Y-70405823D01*
X158320000Y-72304178D01*
X158341850Y-72526012D01*
X158428193Y-72810648D01*
X158568407Y-73072970D01*
X158757104Y-73302897D01*
X158987031Y-73491594D01*
X159249353Y-73631808D01*
X159533989Y-73718151D01*
X159830000Y-73747306D01*
X160126012Y-73718151D01*
X160410648Y-73631808D01*
X160672970Y-73491594D01*
X160902897Y-73302897D01*
X161080001Y-73087097D01*
X161257104Y-73302897D01*
X161487031Y-73491594D01*
X161749353Y-73631808D01*
X162033989Y-73718151D01*
X162330000Y-73747306D01*
X162626012Y-73718151D01*
X162910648Y-73631808D01*
X163172970Y-73491594D01*
X163402897Y-73302897D01*
X163591594Y-73072970D01*
X163731808Y-72810648D01*
X163818151Y-72526012D01*
X163840000Y-72304178D01*
X163840000Y-70405823D01*
X165820000Y-70405823D01*
X165820000Y-72304178D01*
X165841850Y-72526012D01*
X165928193Y-72810648D01*
X166068407Y-73072970D01*
X166257104Y-73302897D01*
X166487031Y-73491594D01*
X166749353Y-73631808D01*
X167033989Y-73718151D01*
X167330000Y-73747306D01*
X167626012Y-73718151D01*
X167910648Y-73631808D01*
X168172970Y-73491594D01*
X168402897Y-73302897D01*
X168580001Y-73087097D01*
X168757104Y-73302897D01*
X168987031Y-73491594D01*
X169249353Y-73631808D01*
X169533989Y-73718151D01*
X169830000Y-73747306D01*
X170126012Y-73718151D01*
X170410648Y-73631808D01*
X170672970Y-73491594D01*
X170902897Y-73302897D01*
X171091594Y-73072970D01*
X171231808Y-72810648D01*
X171318151Y-72526012D01*
X171340000Y-72304178D01*
X171340000Y-70405822D01*
X171318151Y-70183988D01*
X171231808Y-69899352D01*
X171091594Y-69637030D01*
X170902897Y-69407103D01*
X170672969Y-69218406D01*
X170410647Y-69078192D01*
X170126011Y-68991849D01*
X169830000Y-68962694D01*
X169533988Y-68991849D01*
X169249352Y-69078192D01*
X168987030Y-69218406D01*
X168757103Y-69407103D01*
X168580000Y-69622903D01*
X168402897Y-69407103D01*
X168172969Y-69218406D01*
X167910647Y-69078192D01*
X167626011Y-68991849D01*
X167330000Y-68962694D01*
X167033988Y-68991849D01*
X166749352Y-69078192D01*
X166487030Y-69218406D01*
X166257103Y-69407103D01*
X166068406Y-69637031D01*
X165928192Y-69899353D01*
X165841849Y-70183989D01*
X165820000Y-70405823D01*
X163840000Y-70405823D01*
X163840000Y-70405822D01*
X163818151Y-70183988D01*
X163731808Y-69899352D01*
X163591594Y-69637030D01*
X163402897Y-69407103D01*
X163172969Y-69218406D01*
X162910647Y-69078192D01*
X162626011Y-68991849D01*
X162330000Y-68962694D01*
X162033988Y-68991849D01*
X161749352Y-69078192D01*
X161487030Y-69218406D01*
X161257103Y-69407103D01*
X161080000Y-69622903D01*
X160902897Y-69407103D01*
X160672969Y-69218406D01*
X160410647Y-69078192D01*
X160126011Y-68991849D01*
X159830000Y-68962694D01*
X159533988Y-68991849D01*
X159249352Y-69078192D01*
X158987030Y-69218406D01*
X158757103Y-69407103D01*
X158568406Y-69637031D01*
X158428192Y-69899353D01*
X158341849Y-70183989D01*
X158320000Y-70405823D01*
X142601098Y-70405823D01*
X142580840Y-70200144D01*
X142487378Y-69892041D01*
X142335604Y-69608093D01*
X142131351Y-69359209D01*
X141882467Y-69154956D01*
X141598519Y-69003182D01*
X141290416Y-68909720D01*
X140970000Y-68878162D01*
X140649585Y-68909720D01*
X140341482Y-69003182D01*
X140057534Y-69154956D01*
X139808650Y-69359209D01*
X139604397Y-69608093D01*
X139452622Y-69892041D01*
X139359160Y-70200144D01*
X139335510Y-70440268D01*
X134984490Y-70440268D01*
X134960840Y-70200144D01*
X134867378Y-69892041D01*
X134715604Y-69608093D01*
X134511351Y-69359209D01*
X134262467Y-69154956D01*
X133978519Y-69003182D01*
X133670416Y-68909720D01*
X133350000Y-68878162D01*
X133029585Y-68909720D01*
X132721482Y-69003182D01*
X132437534Y-69154956D01*
X132188650Y-69359209D01*
X131984397Y-69608093D01*
X131832622Y-69892041D01*
X131739160Y-70200144D01*
X131715510Y-70440268D01*
X131715510Y-71502911D01*
X130468956Y-72749466D01*
X130435183Y-72777183D01*
X130324589Y-72911942D01*
X130242411Y-73065688D01*
X130191805Y-73232511D01*
X130179000Y-73362524D01*
X130179000Y-73362531D01*
X130174719Y-73406000D01*
X119455000Y-73406000D01*
X119455000Y-63534720D01*
X119469005Y-63391891D01*
X119500402Y-63287899D01*
X119551399Y-63191986D01*
X119620055Y-63107806D01*
X119703758Y-63038560D01*
X119799311Y-62986895D01*
X119903078Y-62954773D01*
X120043641Y-62940000D01*
X180980280Y-62940000D01*
X181123109Y-62954005D01*
G37*
X181123109Y-62954005D02*
X181227101Y-62985402D01*
X181323014Y-63036399D01*
X181407194Y-63105055D01*
X181476440Y-63188758D01*
X181528105Y-63284311D01*
X181560227Y-63388078D01*
X181575000Y-63528641D01*
X181575001Y-124365269D01*
X181560995Y-124508109D01*
X181529599Y-124612099D01*
X181478601Y-124708013D01*
X181409941Y-124792199D01*
X181326243Y-124861439D01*
X181230689Y-124913105D01*
X181126922Y-124945227D01*
X180986359Y-124960000D01*
X120049720Y-124960000D01*
X119906891Y-124945995D01*
X119802901Y-124914599D01*
X119706987Y-124863601D01*
X119622801Y-124794941D01*
X119553561Y-124711243D01*
X119501895Y-124615689D01*
X119469773Y-124511922D01*
X119455000Y-124371359D01*
X119455000Y-108951665D01*
X126073000Y-108951665D01*
X126073000Y-109234335D01*
X126128147Y-109511574D01*
X126236320Y-109772727D01*
X126393363Y-110007759D01*
X126593241Y-110207637D01*
X126828273Y-110364680D01*
X127089426Y-110472853D01*
X127366665Y-110528000D01*
X127649335Y-110528000D01*
X127926574Y-110472853D01*
X128187727Y-110364680D01*
X128422759Y-110207637D01*
X128622637Y-110007759D01*
X128779680Y-109772727D01*
X128887853Y-109511574D01*
X128943000Y-109234335D01*
X128943000Y-108951665D01*
X128887853Y-108674426D01*
X128779680Y-108413273D01*
X128622637Y-108178241D01*
X128422759Y-107978363D01*
X128187727Y-107821320D01*
X127926574Y-107713147D01*
X127649335Y-107658000D01*
X127366665Y-107658000D01*
X127089426Y-107713147D01*
X126828273Y-107821320D01*
X126593241Y-107978363D01*
X126393363Y-108178241D01*
X126236320Y-108413273D01*
X126128147Y-108674426D01*
X126073000Y-108951665D01*
X119455000Y-108951665D01*
X119455000Y-105903665D01*
X126073000Y-105903665D01*
X126073000Y-106186335D01*
X126128147Y-106463574D01*
X126236320Y-106724727D01*
X126393363Y-106959759D01*
X126593241Y-107159637D01*
X126828273Y-107316680D01*
X127089426Y-107424853D01*
X127366665Y-107480000D01*
X127649335Y-107480000D01*
X127926574Y-107424853D01*
X128187727Y-107316680D01*
X128422759Y-107159637D01*
X128622637Y-106959759D01*
X128779680Y-106724727D01*
X128887853Y-106463574D01*
X128943000Y-106186335D01*
X128943000Y-105903665D01*
X128887853Y-105626426D01*
X128779680Y-105365273D01*
X128622637Y-105130241D01*
X128422759Y-104930363D01*
X128187727Y-104773320D01*
X127926574Y-104665147D01*
X127649335Y-104610000D01*
X127366665Y-104610000D01*
X127089426Y-104665147D01*
X126828273Y-104773320D01*
X126593241Y-104930363D01*
X126393363Y-105130241D01*
X126236320Y-105365273D01*
X126128147Y-105626426D01*
X126073000Y-105903665D01*
X119455000Y-105903665D01*
X119455000Y-73406000D01*
X130174719Y-73406000D01*
X130179000Y-73449469D01*
X130179001Y-117558521D01*
X130174719Y-117602000D01*
X130191805Y-117775490D01*
X130242412Y-117942313D01*
X130324590Y-118096059D01*
X130407468Y-118197046D01*
X130407471Y-118197049D01*
X130435184Y-118230817D01*
X130468951Y-118258529D01*
X131804470Y-119594049D01*
X131832183Y-119627817D01*
X131865951Y-119655530D01*
X131865953Y-119655532D01*
X131937452Y-119714210D01*
X131966941Y-119738411D01*
X132120687Y-119820589D01*
X132287510Y-119871195D01*
X132417523Y-119884000D01*
X132417533Y-119884000D01*
X132460999Y-119888281D01*
X132504465Y-119884000D01*
X137630000Y-119884000D01*
X137630000Y-119915375D01*
X137540518Y-119924188D01*
X137420820Y-119960498D01*
X137310506Y-120019463D01*
X137213815Y-120098815D01*
X137134463Y-120195506D01*
X137075498Y-120305820D01*
X137053487Y-120378380D01*
X136921632Y-120246525D01*
X136678411Y-120084010D01*
X136408158Y-119972068D01*
X136121260Y-119915000D01*
X135828740Y-119915000D01*
X135541842Y-119972068D01*
X135271589Y-120084010D01*
X135028368Y-120246525D01*
X134821525Y-120453368D01*
X134705000Y-120627760D01*
X134588475Y-120453368D01*
X134381632Y-120246525D01*
X134138411Y-120084010D01*
X133868158Y-119972068D01*
X133581260Y-119915000D01*
X133288740Y-119915000D01*
X133001842Y-119972068D01*
X132731589Y-120084010D01*
X132488368Y-120246525D01*
X132281525Y-120453368D01*
X132119010Y-120696589D01*
X132007068Y-120966842D01*
X131950000Y-121253740D01*
X131950000Y-121546260D01*
X132007068Y-121833158D01*
X132119010Y-122103411D01*
X132281525Y-122346632D01*
X132488368Y-122553475D01*
X132731589Y-122715990D01*
X133001842Y-122827932D01*
X133288740Y-122885000D01*
X133581260Y-122885000D01*
X133868158Y-122827932D01*
X134138411Y-122715990D01*
X134381632Y-122553475D01*
X134588475Y-122346632D01*
X134705000Y-122172240D01*
X134821525Y-122346632D01*
X135028368Y-122553475D01*
X135271589Y-122715990D01*
X135541842Y-122827932D01*
X135828740Y-122885000D01*
X136121260Y-122885000D01*
X136408158Y-122827932D01*
X136678411Y-122715990D01*
X136921632Y-122553475D01*
X137053487Y-122421620D01*
X137075498Y-122494180D01*
X137134463Y-122604494D01*
X137213815Y-122701185D01*
X137310506Y-122780537D01*
X137420820Y-122839502D01*
X137540518Y-122875812D01*
X137665000Y-122888072D01*
X139365000Y-122888072D01*
X139489482Y-122875812D01*
X139609180Y-122839502D01*
X139719494Y-122780537D01*
X139816185Y-122701185D01*
X139895537Y-122604494D01*
X139954502Y-122494180D01*
X139990812Y-122374482D01*
X140003072Y-122250000D01*
X140003072Y-120550000D01*
X139990812Y-120425518D01*
X139954502Y-120305820D01*
X139895537Y-120195506D01*
X139816185Y-120098815D01*
X139719494Y-120019463D01*
X139609180Y-119960498D01*
X139489482Y-119924188D01*
X139400000Y-119915375D01*
X139400000Y-119746665D01*
X142456000Y-119746665D01*
X142456000Y-120029335D01*
X142511147Y-120306574D01*
X142619320Y-120567727D01*
X142776363Y-120802759D01*
X142976241Y-121002637D01*
X143211273Y-121159680D01*
X143472426Y-121267853D01*
X143749665Y-121323000D01*
X144032335Y-121323000D01*
X144309574Y-121267853D01*
X144570727Y-121159680D01*
X144805759Y-121002637D01*
X145005637Y-120802759D01*
X145162680Y-120567727D01*
X145270853Y-120306574D01*
X145326000Y-120029335D01*
X145326000Y-119746665D01*
X147456000Y-119746665D01*
X147456000Y-120029335D01*
X147511147Y-120306574D01*
X147619320Y-120567727D01*
X147776363Y-120802759D01*
X147976241Y-121002637D01*
X148211273Y-121159680D01*
X148472426Y-121267853D01*
X148749665Y-121323000D01*
X149032335Y-121323000D01*
X149309574Y-121267853D01*
X149570727Y-121159680D01*
X149805759Y-121002637D01*
X150005637Y-120802759D01*
X150162680Y-120567727D01*
X150270853Y-120306574D01*
X150326000Y-120029335D01*
X150326000Y-119746665D01*
X150270853Y-119469426D01*
X150162680Y-119208273D01*
X150048908Y-119038000D01*
X152816928Y-119038000D01*
X152816928Y-120738000D01*
X152829188Y-120862482D01*
X152865498Y-120982180D01*
X152924463Y-121092494D01*
X153003815Y-121189185D01*
X153100506Y-121268537D01*
X153210820Y-121327502D01*
X153283380Y-121349513D01*
X153151525Y-121481368D01*
X152989010Y-121724589D01*
X152877068Y-121994842D01*
X152820000Y-122281740D01*
X152820000Y-122574260D01*
X152877068Y-122861158D01*
X152989010Y-123131411D01*
X153151525Y-123374632D01*
X153358368Y-123581475D01*
X153601589Y-123743990D01*
X153871842Y-123855932D01*
X154158740Y-123913000D01*
X154451260Y-123913000D01*
X154738158Y-123855932D01*
X155008411Y-123743990D01*
X155251632Y-123581475D01*
X155458475Y-123374632D01*
X155620990Y-123131411D01*
X155732932Y-122861158D01*
X155790000Y-122574260D01*
X155790000Y-122281740D01*
X155732932Y-121994842D01*
X155620990Y-121724589D01*
X155458475Y-121481368D01*
X155326620Y-121349513D01*
X155399180Y-121327502D01*
X155509494Y-121268537D01*
X155606185Y-121189185D01*
X155685537Y-121092494D01*
X155744502Y-120982180D01*
X155780812Y-120862482D01*
X155793072Y-120738000D01*
X155793072Y-119038000D01*
X155780812Y-118913518D01*
X155744502Y-118793820D01*
X155685537Y-118683506D01*
X155606185Y-118586815D01*
X155509494Y-118507463D01*
X155399180Y-118448498D01*
X155279482Y-118412188D01*
X155155000Y-118399928D01*
X153455000Y-118399928D01*
X153330518Y-118412188D01*
X153210820Y-118448498D01*
X153100506Y-118507463D01*
X153003815Y-118586815D01*
X152924463Y-118683506D01*
X152865498Y-118793820D01*
X152829188Y-118913518D01*
X152816928Y-119038000D01*
X150048908Y-119038000D01*
X150005637Y-118973241D01*
X149805759Y-118773363D01*
X149570727Y-118616320D01*
X149309574Y-118508147D01*
X149032335Y-118453000D01*
X148749665Y-118453000D01*
X148472426Y-118508147D01*
X148211273Y-118616320D01*
X147976241Y-118773363D01*
X147776363Y-118973241D01*
X147619320Y-119208273D01*
X147511147Y-119469426D01*
X147456000Y-119746665D01*
X145326000Y-119746665D01*
X145270853Y-119469426D01*
X145162680Y-119208273D01*
X145005637Y-118973241D01*
X144805759Y-118773363D01*
X144570727Y-118616320D01*
X144309574Y-118508147D01*
X144032335Y-118453000D01*
X143749665Y-118453000D01*
X143472426Y-118508147D01*
X143211273Y-118616320D01*
X142976241Y-118773363D01*
X142776363Y-118973241D01*
X142619320Y-119208273D01*
X142511147Y-119469426D01*
X142456000Y-119746665D01*
X139400000Y-119746665D01*
X139400000Y-119508469D01*
X139404281Y-119465000D01*
X139400000Y-119421531D01*
X139400000Y-119421523D01*
X139387195Y-119291510D01*
X139361945Y-119208273D01*
X139336589Y-119124686D01*
X139269559Y-118999281D01*
X139254411Y-118970941D01*
X139143817Y-118836183D01*
X139110045Y-118808467D01*
X138705534Y-118403956D01*
X138677817Y-118370183D01*
X138543059Y-118259589D01*
X138389313Y-118177411D01*
X138222490Y-118126805D01*
X138092477Y-118114000D01*
X138092469Y-118114000D01*
X138049000Y-118109719D01*
X138005531Y-118114000D01*
X132827579Y-118114000D01*
X131949000Y-117235422D01*
X131949000Y-116063665D01*
X147536000Y-116063665D01*
X147536000Y-116346335D01*
X147591147Y-116623574D01*
X147699320Y-116884727D01*
X147856363Y-117119759D01*
X148056241Y-117319637D01*
X148291273Y-117476680D01*
X148552426Y-117584853D01*
X148829665Y-117640000D01*
X149112335Y-117640000D01*
X149389574Y-117584853D01*
X149650727Y-117476680D01*
X149885759Y-117319637D01*
X150085637Y-117119759D01*
X150242680Y-116884727D01*
X150350853Y-116623574D01*
X150406000Y-116346335D01*
X150406000Y-116063665D01*
X150350853Y-115786426D01*
X150242680Y-115525273D01*
X150085637Y-115290241D01*
X149885759Y-115090363D01*
X149650727Y-114933320D01*
X149389574Y-114825147D01*
X149112335Y-114770000D01*
X148829665Y-114770000D01*
X148552426Y-114825147D01*
X148291273Y-114933320D01*
X148056241Y-115090363D01*
X147856363Y-115290241D01*
X147699320Y-115525273D01*
X147591147Y-115786426D01*
X147536000Y-116063665D01*
X131949000Y-116063665D01*
X131949000Y-110651911D01*
X140670000Y-110651911D01*
X140670000Y-110836089D01*
X140705932Y-111016729D01*
X140776414Y-111186889D01*
X140878738Y-111340028D01*
X141008972Y-111470262D01*
X141162111Y-111572586D01*
X141332271Y-111643068D01*
X141512911Y-111679000D01*
X141697089Y-111679000D01*
X141877729Y-111643068D01*
X141911692Y-111629000D01*
X146251308Y-111629000D01*
X146285271Y-111643068D01*
X146465911Y-111679000D01*
X146650089Y-111679000D01*
X146830729Y-111643068D01*
X147000889Y-111572586D01*
X147154028Y-111470262D01*
X147284262Y-111340028D01*
X147386586Y-111186889D01*
X147457068Y-111016729D01*
X147493000Y-110836089D01*
X147493000Y-110651911D01*
X147457068Y-110471271D01*
X147386586Y-110301111D01*
X147284262Y-110147972D01*
X147154028Y-110017738D01*
X147000889Y-109915414D01*
X146830729Y-109844932D01*
X146650089Y-109809000D01*
X146465911Y-109809000D01*
X146285271Y-109844932D01*
X146251308Y-109859000D01*
X141911692Y-109859000D01*
X141877729Y-109844932D01*
X141697089Y-109809000D01*
X141512911Y-109809000D01*
X141332271Y-109844932D01*
X141162111Y-109915414D01*
X141008972Y-110017738D01*
X140878738Y-110147972D01*
X140776414Y-110301111D01*
X140705932Y-110471271D01*
X140670000Y-110651911D01*
X131949000Y-110651911D01*
X131949000Y-105903665D01*
X136233000Y-105903665D01*
X136233000Y-106186335D01*
X136288147Y-106463574D01*
X136396320Y-106724727D01*
X136553363Y-106959759D01*
X136753241Y-107159637D01*
X136988273Y-107316680D01*
X137249426Y-107424853D01*
X137526665Y-107480000D01*
X137809335Y-107480000D01*
X138086574Y-107424853D01*
X138347727Y-107316680D01*
X138582759Y-107159637D01*
X138782637Y-106959759D01*
X138939680Y-106724727D01*
X139047853Y-106463574D01*
X139103000Y-106186335D01*
X139103000Y-106045000D01*
X140214388Y-106045000D01*
X140236785Y-106272400D01*
X140303115Y-106491060D01*
X140404105Y-106680000D01*
X140303115Y-106868940D01*
X140236785Y-107087600D01*
X140214388Y-107315000D01*
X140236785Y-107542400D01*
X140300093Y-107751098D01*
X140265498Y-107815820D01*
X140229188Y-107935518D01*
X140216928Y-108060000D01*
X140216928Y-109110000D01*
X140229188Y-109234482D01*
X140265498Y-109354180D01*
X140324463Y-109464494D01*
X140403815Y-109561185D01*
X140500506Y-109640537D01*
X140610820Y-109699502D01*
X140730518Y-109735812D01*
X140855000Y-109748072D01*
X142355000Y-109748072D01*
X142479482Y-109735812D01*
X142599180Y-109699502D01*
X142709494Y-109640537D01*
X142806185Y-109561185D01*
X142885537Y-109464494D01*
X142944502Y-109354180D01*
X142980812Y-109234482D01*
X142993072Y-109110000D01*
X142993072Y-108060000D01*
X142980812Y-107935518D01*
X142944502Y-107815820D01*
X142909907Y-107751098D01*
X142973215Y-107542400D01*
X142976427Y-107509783D01*
X142991932Y-107587729D01*
X143062414Y-107757889D01*
X143164738Y-107911028D01*
X143294972Y-108041262D01*
X143448111Y-108143586D01*
X143618271Y-108214068D01*
X143798911Y-108250000D01*
X143983089Y-108250000D01*
X144163729Y-108214068D01*
X144333889Y-108143586D01*
X144487028Y-108041262D01*
X144617262Y-107911028D01*
X144719586Y-107757889D01*
X144790068Y-107587729D01*
X144826000Y-107407089D01*
X144826000Y-107222911D01*
X144790068Y-107042271D01*
X144719586Y-106872111D01*
X144617262Y-106718972D01*
X144487028Y-106588738D01*
X144333889Y-106486414D01*
X144163729Y-106415932D01*
X143983089Y-106380000D01*
X143798911Y-106380000D01*
X143618271Y-106415932D01*
X143448111Y-106486414D01*
X143294972Y-106588738D01*
X143164738Y-106718972D01*
X143062414Y-106872111D01*
X142991932Y-107042271D01*
X142976427Y-107120217D01*
X142973215Y-107087600D01*
X142906885Y-106868940D01*
X142805895Y-106680000D01*
X142906885Y-106491060D01*
X142973215Y-106272400D01*
X142995612Y-106045000D01*
X142973215Y-105817600D01*
X142906885Y-105598940D01*
X142799171Y-105397421D01*
X142654212Y-105220788D01*
X142477579Y-105075829D01*
X142276060Y-104968115D01*
X142057400Y-104901785D01*
X141886979Y-104885000D01*
X141323021Y-104885000D01*
X141152600Y-104901785D01*
X140933940Y-104968115D01*
X140732421Y-105075829D01*
X140555788Y-105220788D01*
X140410829Y-105397421D01*
X140303115Y-105598940D01*
X140236785Y-105817600D01*
X140214388Y-106045000D01*
X139103000Y-106045000D01*
X139103000Y-105903665D01*
X139047853Y-105626426D01*
X138939680Y-105365273D01*
X138782637Y-105130241D01*
X138582759Y-104930363D01*
X138347727Y-104773320D01*
X138086574Y-104665147D01*
X137809335Y-104610000D01*
X137526665Y-104610000D01*
X137249426Y-104665147D01*
X136988273Y-104773320D01*
X136753241Y-104930363D01*
X136553363Y-105130241D01*
X136396320Y-105365273D01*
X136288147Y-105626426D01*
X136233000Y-105903665D01*
X131949000Y-105903665D01*
X131949000Y-102855665D01*
X136614000Y-102855665D01*
X136614000Y-103138335D01*
X136669147Y-103415574D01*
X136777320Y-103676727D01*
X136934363Y-103911759D01*
X137134241Y-104111637D01*
X137369273Y-104268680D01*
X137630426Y-104376853D01*
X137907665Y-104432000D01*
X138190335Y-104432000D01*
X138467574Y-104376853D01*
X138728727Y-104268680D01*
X138963759Y-104111637D01*
X139163637Y-103911759D01*
X139320680Y-103676727D01*
X139428853Y-103415574D01*
X139484000Y-103138335D01*
X139484000Y-102855665D01*
X139428853Y-102578426D01*
X139320680Y-102317273D01*
X139163637Y-102082241D01*
X138963759Y-101882363D01*
X138728727Y-101725320D01*
X138467574Y-101617147D01*
X138190335Y-101562000D01*
X137907665Y-101562000D01*
X137630426Y-101617147D01*
X137369273Y-101725320D01*
X137134241Y-101882363D01*
X136934363Y-102082241D01*
X136777320Y-102317273D01*
X136669147Y-102578426D01*
X136614000Y-102855665D01*
X131949000Y-102855665D01*
X131949000Y-99553665D01*
X132169000Y-99553665D01*
X132169000Y-99836335D01*
X132224147Y-100113574D01*
X132332320Y-100374727D01*
X132489363Y-100609759D01*
X132689241Y-100809637D01*
X132924273Y-100966680D01*
X133185426Y-101074853D01*
X133462665Y-101130000D01*
X133745335Y-101130000D01*
X134022574Y-101074853D01*
X134283727Y-100966680D01*
X134518759Y-100809637D01*
X134718637Y-100609759D01*
X134875680Y-100374727D01*
X134983853Y-100113574D01*
X135039000Y-99836335D01*
X135039000Y-99553665D01*
X142329000Y-99553665D01*
X142329000Y-99836335D01*
X142384147Y-100113574D01*
X142492320Y-100374727D01*
X142649363Y-100609759D01*
X142849241Y-100809637D01*
X143084273Y-100966680D01*
X143345426Y-101074853D01*
X143622665Y-101130000D01*
X143905335Y-101130000D01*
X144182574Y-101074853D01*
X144443727Y-100966680D01*
X144678759Y-100809637D01*
X144878637Y-100609759D01*
X145035680Y-100374727D01*
X145143853Y-100113574D01*
X145199000Y-99836335D01*
X145199000Y-99553665D01*
X145143853Y-99276426D01*
X145035680Y-99015273D01*
X144878637Y-98780241D01*
X144678759Y-98580363D01*
X144614857Y-98537665D01*
X145123000Y-98537665D01*
X145123000Y-98820335D01*
X145178147Y-99097574D01*
X145286320Y-99358727D01*
X145443363Y-99593759D01*
X145643241Y-99793637D01*
X145673001Y-99813522D01*
X145673000Y-105086023D01*
X145508788Y-105220788D01*
X145363829Y-105397421D01*
X145256115Y-105598940D01*
X145189785Y-105817600D01*
X145167388Y-106045000D01*
X145189785Y-106272400D01*
X145256115Y-106491060D01*
X145357105Y-106680000D01*
X145256115Y-106868940D01*
X145189785Y-107087600D01*
X145167388Y-107315000D01*
X145189785Y-107542400D01*
X145253093Y-107751098D01*
X145218498Y-107815820D01*
X145182188Y-107935518D01*
X145169928Y-108060000D01*
X145169928Y-109110000D01*
X145182188Y-109234482D01*
X145218498Y-109354180D01*
X145277463Y-109464494D01*
X145356815Y-109561185D01*
X145453506Y-109640537D01*
X145563820Y-109699502D01*
X145683518Y-109735812D01*
X145808000Y-109748072D01*
X147308000Y-109748072D01*
X147432482Y-109735812D01*
X147552180Y-109699502D01*
X147662494Y-109640537D01*
X147759185Y-109561185D01*
X147838537Y-109464494D01*
X147897502Y-109354180D01*
X147933812Y-109234482D01*
X147946072Y-109110000D01*
X147946072Y-108060000D01*
X147933812Y-107935518D01*
X147897502Y-107815820D01*
X147862907Y-107751098D01*
X147926215Y-107542400D01*
X147948612Y-107315000D01*
X147926215Y-107087600D01*
X147859885Y-106868940D01*
X147758895Y-106680000D01*
X147859885Y-106491060D01*
X147926215Y-106272400D01*
X147948612Y-106045000D01*
X147926215Y-105817600D01*
X147859885Y-105598940D01*
X147752171Y-105397421D01*
X147607212Y-105220788D01*
X147443000Y-105086023D01*
X147443000Y-104211034D01*
X147529273Y-104268680D01*
X147790426Y-104376853D01*
X148067665Y-104432000D01*
X148350335Y-104432000D01*
X148467001Y-104408793D01*
X148467000Y-110437307D01*
X148452932Y-110471271D01*
X148417000Y-110651911D01*
X148417000Y-110836089D01*
X148452932Y-111016729D01*
X148523414Y-111186889D01*
X148625738Y-111340028D01*
X148755972Y-111470262D01*
X148909111Y-111572586D01*
X148963224Y-111595000D01*
X148829665Y-111595000D01*
X148552426Y-111650147D01*
X148291273Y-111758320D01*
X148056241Y-111915363D01*
X147856363Y-112115241D01*
X147699320Y-112350273D01*
X147591147Y-112611426D01*
X147536000Y-112888665D01*
X147536000Y-113171335D01*
X147591147Y-113448574D01*
X147699320Y-113709727D01*
X147856363Y-113944759D01*
X148056241Y-114144637D01*
X148291273Y-114301680D01*
X148552426Y-114409853D01*
X148829665Y-114465000D01*
X149112335Y-114465000D01*
X149389574Y-114409853D01*
X149650727Y-114301680D01*
X149885759Y-114144637D01*
X149895396Y-114135000D01*
X153882928Y-114135000D01*
X153882928Y-115735000D01*
X153895188Y-115859482D01*
X153931498Y-115979180D01*
X153990463Y-116089494D01*
X154069815Y-116186185D01*
X154166506Y-116265537D01*
X154276820Y-116324502D01*
X154396518Y-116360812D01*
X154521000Y-116373072D01*
X155126494Y-116373072D01*
X157163360Y-118409938D01*
X157140518Y-118412188D01*
X157020820Y-118448498D01*
X156910506Y-118507463D01*
X156813815Y-118586815D01*
X156734463Y-118683506D01*
X156675498Y-118793820D01*
X156639188Y-118913518D01*
X156626928Y-119038000D01*
X156626928Y-120738000D01*
X156639188Y-120862482D01*
X156675498Y-120982180D01*
X156734463Y-121092494D01*
X156813815Y-121189185D01*
X156910506Y-121268537D01*
X157020820Y-121327502D01*
X157093380Y-121349513D01*
X156961525Y-121481368D01*
X156799010Y-121724589D01*
X156687068Y-121994842D01*
X156630000Y-122281740D01*
X156630000Y-122574260D01*
X156687068Y-122861158D01*
X156799010Y-123131411D01*
X156961525Y-123374632D01*
X157168368Y-123581475D01*
X157411589Y-123743990D01*
X157681842Y-123855932D01*
X157968740Y-123913000D01*
X158261260Y-123913000D01*
X158548158Y-123855932D01*
X158818411Y-123743990D01*
X159061632Y-123581475D01*
X159268475Y-123374632D01*
X159430990Y-123131411D01*
X159542932Y-122861158D01*
X159600000Y-122574260D01*
X159600000Y-122281740D01*
X159542932Y-121994842D01*
X159430990Y-121724589D01*
X159268475Y-121481368D01*
X159136620Y-121349513D01*
X159209180Y-121327502D01*
X159319494Y-121268537D01*
X159337524Y-121253740D01*
X161010000Y-121253740D01*
X161010000Y-121546260D01*
X161067068Y-121833158D01*
X161179010Y-122103411D01*
X161341525Y-122346632D01*
X161548368Y-122553475D01*
X161791589Y-122715990D01*
X162061842Y-122827932D01*
X162348740Y-122885000D01*
X162641260Y-122885000D01*
X162928158Y-122827932D01*
X163198411Y-122715990D01*
X163441632Y-122553475D01*
X163648475Y-122346632D01*
X163765000Y-122172240D01*
X163881525Y-122346632D01*
X164088368Y-122553475D01*
X164331589Y-122715990D01*
X164601842Y-122827932D01*
X164888740Y-122885000D01*
X165181260Y-122885000D01*
X165468158Y-122827932D01*
X165738411Y-122715990D01*
X165981632Y-122553475D01*
X166188475Y-122346632D01*
X166305000Y-122172240D01*
X166421525Y-122346632D01*
X166628368Y-122553475D01*
X166871589Y-122715990D01*
X167141842Y-122827932D01*
X167428740Y-122885000D01*
X167721260Y-122885000D01*
X168008158Y-122827932D01*
X168278411Y-122715990D01*
X168521632Y-122553475D01*
X168653487Y-122421620D01*
X168675498Y-122494180D01*
X168734463Y-122604494D01*
X168813815Y-122701185D01*
X168910506Y-122780537D01*
X169020820Y-122839502D01*
X169140518Y-122875812D01*
X169265000Y-122888072D01*
X170965000Y-122888072D01*
X171089482Y-122875812D01*
X171209180Y-122839502D01*
X171319494Y-122780537D01*
X171416185Y-122701185D01*
X171495537Y-122604494D01*
X171554502Y-122494180D01*
X171590812Y-122374482D01*
X171603072Y-122250000D01*
X171603072Y-120550000D01*
X171590812Y-120425518D01*
X171554502Y-120305820D01*
X171495537Y-120195506D01*
X171416185Y-120098815D01*
X171319494Y-120019463D01*
X171209180Y-119960498D01*
X171089482Y-119924188D01*
X170965000Y-119911928D01*
X169265000Y-119911928D01*
X169140518Y-119924188D01*
X169020820Y-119960498D01*
X168910506Y-120019463D01*
X168813815Y-120098815D01*
X168734463Y-120195506D01*
X168675498Y-120305820D01*
X168653487Y-120378380D01*
X168521632Y-120246525D01*
X168278411Y-120084010D01*
X168008158Y-119972068D01*
X167721260Y-119915000D01*
X167428740Y-119915000D01*
X167141842Y-119972068D01*
X166871589Y-120084010D01*
X166628368Y-120246525D01*
X166421525Y-120453368D01*
X166305000Y-120627760D01*
X166188475Y-120453368D01*
X165981632Y-120246525D01*
X165738411Y-120084010D01*
X165468158Y-119972068D01*
X165181260Y-119915000D01*
X164888740Y-119915000D01*
X164601842Y-119972068D01*
X164331589Y-120084010D01*
X164088368Y-120246525D01*
X163881525Y-120453368D01*
X163765000Y-120627760D01*
X163648475Y-120453368D01*
X163441632Y-120246525D01*
X163380000Y-120205344D01*
X163380000Y-119811578D01*
X163561579Y-119630000D01*
X169238308Y-119630000D01*
X169272271Y-119644068D01*
X169452911Y-119680000D01*
X169637089Y-119680000D01*
X169817729Y-119644068D01*
X169987889Y-119573586D01*
X170141028Y-119471262D01*
X170271262Y-119341028D01*
X170373586Y-119187889D01*
X170444068Y-119017729D01*
X170480000Y-118837089D01*
X170480000Y-118652911D01*
X170444068Y-118472271D01*
X170373586Y-118302111D01*
X170271262Y-118148972D01*
X170141028Y-118018738D01*
X169987889Y-117916414D01*
X169817729Y-117845932D01*
X169637089Y-117810000D01*
X169452911Y-117810000D01*
X169272271Y-117845932D01*
X169238308Y-117860000D01*
X163238465Y-117860000D01*
X163194999Y-117855719D01*
X163151533Y-117860000D01*
X163151523Y-117860000D01*
X163021510Y-117872805D01*
X162854687Y-117923411D01*
X162700941Y-118005589D01*
X162700939Y-118005590D01*
X162700940Y-118005590D01*
X162599953Y-118088468D01*
X162599951Y-118088470D01*
X162566183Y-118116183D01*
X162538470Y-118149951D01*
X161899956Y-118788466D01*
X161866183Y-118816183D01*
X161755589Y-118950942D01*
X161673411Y-119104688D01*
X161622805Y-119271511D01*
X161610000Y-119401524D01*
X161610000Y-119401531D01*
X161605719Y-119445000D01*
X161610000Y-119488469D01*
X161610000Y-120205344D01*
X161548368Y-120246525D01*
X161341525Y-120453368D01*
X161179010Y-120696589D01*
X161067068Y-120966842D01*
X161010000Y-121253740D01*
X159337524Y-121253740D01*
X159416185Y-121189185D01*
X159495537Y-121092494D01*
X159554502Y-120982180D01*
X159590812Y-120862482D01*
X159603072Y-120738000D01*
X159603072Y-119038000D01*
X159590812Y-118913518D01*
X159554502Y-118793820D01*
X159495537Y-118683506D01*
X159416185Y-118586815D01*
X159319494Y-118507463D01*
X159209180Y-118448498D01*
X159089482Y-118412188D01*
X159000000Y-118403375D01*
X159000000Y-118153469D01*
X159004281Y-118110000D01*
X159000000Y-118066531D01*
X159000000Y-118066523D01*
X158987195Y-117936510D01*
X158981099Y-117916414D01*
X158936589Y-117769686D01*
X158854411Y-117615941D01*
X158771532Y-117514953D01*
X158771530Y-117514951D01*
X158743817Y-117481183D01*
X158710050Y-117453471D01*
X156759072Y-115502494D01*
X156759072Y-114972911D01*
X159215000Y-114972911D01*
X159215000Y-115157089D01*
X159250932Y-115337729D01*
X159265000Y-115371693D01*
X159265001Y-117673305D01*
X159250932Y-117707271D01*
X159215000Y-117887911D01*
X159215000Y-118072089D01*
X159250932Y-118252729D01*
X159321414Y-118422889D01*
X159423738Y-118576028D01*
X159553972Y-118706262D01*
X159707111Y-118808586D01*
X159877271Y-118879068D01*
X160057911Y-118915000D01*
X160242089Y-118915000D01*
X160422729Y-118879068D01*
X160592889Y-118808586D01*
X160746028Y-118706262D01*
X160876262Y-118576028D01*
X160978586Y-118422889D01*
X161049068Y-118252729D01*
X161085000Y-118072089D01*
X161085000Y-117887911D01*
X161049068Y-117707271D01*
X161035000Y-117673308D01*
X161035000Y-115371692D01*
X161049068Y-115337729D01*
X161085000Y-115157089D01*
X161085000Y-114972911D01*
X161049068Y-114792271D01*
X160978586Y-114622111D01*
X160876262Y-114468972D01*
X160746028Y-114338738D01*
X160592889Y-114236414D01*
X160422729Y-114165932D01*
X160242089Y-114130000D01*
X160057911Y-114130000D01*
X159877271Y-114165932D01*
X159707111Y-114236414D01*
X159553972Y-114338738D01*
X159423738Y-114468972D01*
X159321414Y-114622111D01*
X159250932Y-114792271D01*
X159215000Y-114972911D01*
X156759072Y-114972911D01*
X156759072Y-114135000D01*
X156746812Y-114010518D01*
X156710502Y-113890820D01*
X156651537Y-113780506D01*
X156572185Y-113683815D01*
X156475494Y-113604463D01*
X156365180Y-113545498D01*
X156245482Y-113509188D01*
X156121000Y-113496928D01*
X154521000Y-113496928D01*
X154396518Y-113509188D01*
X154276820Y-113545498D01*
X154166506Y-113604463D01*
X154069815Y-113683815D01*
X153990463Y-113780506D01*
X153931498Y-113890820D01*
X153895188Y-114010518D01*
X153882928Y-114135000D01*
X149895396Y-114135000D01*
X150085637Y-113944759D01*
X150242680Y-113709727D01*
X150350853Y-113448574D01*
X150406000Y-113171335D01*
X150406000Y-112888665D01*
X150396529Y-112841053D01*
X150493320Y-113074727D01*
X150650363Y-113309759D01*
X150850241Y-113509637D01*
X151085273Y-113666680D01*
X151346426Y-113774853D01*
X151623665Y-113830000D01*
X151906335Y-113830000D01*
X152183574Y-113774853D01*
X152444727Y-113666680D01*
X152679759Y-113509637D01*
X152879637Y-113309759D01*
X153036680Y-113074727D01*
X153144853Y-112813574D01*
X153200000Y-112536335D01*
X153200000Y-112253665D01*
X153144853Y-111976426D01*
X153036680Y-111715273D01*
X152879637Y-111480241D01*
X152679759Y-111280363D01*
X152444727Y-111123320D01*
X152183574Y-111015147D01*
X151906335Y-110960000D01*
X151623665Y-110960000D01*
X151346426Y-111015147D01*
X151085273Y-111123320D01*
X150850241Y-111280363D01*
X150650363Y-111480241D01*
X150493320Y-111715273D01*
X150385147Y-111976426D01*
X150330000Y-112253665D01*
X150330000Y-112536335D01*
X150339471Y-112583947D01*
X150242680Y-112350273D01*
X150085637Y-112115241D01*
X149885759Y-111915363D01*
X149650727Y-111758320D01*
X149454319Y-111676965D01*
X149624729Y-111643068D01*
X149794889Y-111572586D01*
X149948028Y-111470262D01*
X150078262Y-111340028D01*
X150180586Y-111186889D01*
X150251068Y-111016729D01*
X150287000Y-110836089D01*
X150287000Y-110651911D01*
X150251068Y-110471271D01*
X150237000Y-110437308D01*
X150237000Y-109840665D01*
X162395000Y-109840665D01*
X162395000Y-110123335D01*
X162450147Y-110400574D01*
X162558320Y-110661727D01*
X162715363Y-110896759D01*
X162915241Y-111096637D01*
X163150273Y-111253680D01*
X163411426Y-111361853D01*
X163688665Y-111417000D01*
X163971335Y-111417000D01*
X164248574Y-111361853D01*
X164509727Y-111253680D01*
X164744759Y-111096637D01*
X164944637Y-110896759D01*
X165101680Y-110661727D01*
X165209853Y-110400574D01*
X165265000Y-110123335D01*
X165265000Y-109840665D01*
X165209853Y-109563426D01*
X165101680Y-109302273D01*
X164944637Y-109067241D01*
X164744759Y-108867363D01*
X164509727Y-108710320D01*
X164248574Y-108602147D01*
X163971335Y-108547000D01*
X163688665Y-108547000D01*
X163411426Y-108602147D01*
X163150273Y-108710320D01*
X162915241Y-108867363D01*
X162715363Y-109067241D01*
X162558320Y-109302273D01*
X162450147Y-109563426D01*
X162395000Y-109840665D01*
X150237000Y-109840665D01*
X150237000Y-106045000D01*
X151009388Y-106045000D01*
X151031785Y-106272400D01*
X151098115Y-106491060D01*
X151199105Y-106680000D01*
X151098115Y-106868940D01*
X151031785Y-107087600D01*
X151009388Y-107315000D01*
X151031785Y-107542400D01*
X151095093Y-107751098D01*
X151060498Y-107815820D01*
X151024188Y-107935518D01*
X151011928Y-108060000D01*
X151011928Y-109110000D01*
X151024188Y-109234482D01*
X151060498Y-109354180D01*
X151119463Y-109464494D01*
X151198815Y-109561185D01*
X151295506Y-109640537D01*
X151405820Y-109699502D01*
X151525518Y-109735812D01*
X151650000Y-109748072D01*
X153150000Y-109748072D01*
X153274482Y-109735812D01*
X153394180Y-109699502D01*
X153504494Y-109640537D01*
X153601185Y-109561185D01*
X153680537Y-109464494D01*
X153739502Y-109354180D01*
X153775812Y-109234482D01*
X153788072Y-109110000D01*
X153788072Y-108060000D01*
X153775812Y-107935518D01*
X153739502Y-107815820D01*
X153704907Y-107751098D01*
X153768215Y-107542400D01*
X153790612Y-107315000D01*
X153776692Y-107173665D01*
X153886000Y-107173665D01*
X153886000Y-107456335D01*
X153941147Y-107733574D01*
X154049320Y-107994727D01*
X154206363Y-108229759D01*
X154406241Y-108429637D01*
X154641273Y-108586680D01*
X154902426Y-108694853D01*
X155179665Y-108750000D01*
X155462335Y-108750000D01*
X155739574Y-108694853D01*
X156000727Y-108586680D01*
X156235759Y-108429637D01*
X156435637Y-108229759D01*
X156592680Y-107994727D01*
X156700853Y-107733574D01*
X156756000Y-107456335D01*
X156756000Y-107173665D01*
X156700853Y-106896426D01*
X156592680Y-106635273D01*
X156435637Y-106400241D01*
X156235759Y-106200363D01*
X156003242Y-106045000D01*
X157994388Y-106045000D01*
X158016785Y-106272400D01*
X158083115Y-106491060D01*
X158184105Y-106680000D01*
X158083115Y-106868940D01*
X158016785Y-107087600D01*
X157994388Y-107315000D01*
X158016785Y-107542400D01*
X158080093Y-107751098D01*
X158045498Y-107815820D01*
X158009188Y-107935518D01*
X157996928Y-108060000D01*
X157996928Y-109110000D01*
X158009188Y-109234482D01*
X158045498Y-109354180D01*
X158104463Y-109464494D01*
X158183815Y-109561185D01*
X158280506Y-109640537D01*
X158390820Y-109699502D01*
X158510518Y-109735812D01*
X158635000Y-109748072D01*
X160135000Y-109748072D01*
X160259482Y-109735812D01*
X160379180Y-109699502D01*
X160489494Y-109640537D01*
X160586185Y-109561185D01*
X160665537Y-109464494D01*
X160724502Y-109354180D01*
X160760812Y-109234482D01*
X160773072Y-109110000D01*
X160773072Y-108060000D01*
X160760812Y-107935518D01*
X160724502Y-107815820D01*
X160689907Y-107751098D01*
X160753215Y-107542400D01*
X160775612Y-107315000D01*
X160753215Y-107087600D01*
X160686885Y-106868940D01*
X160585895Y-106680000D01*
X160686885Y-106491060D01*
X160753215Y-106272400D01*
X160775612Y-106045000D01*
X160753215Y-105817600D01*
X160686885Y-105598940D01*
X160579171Y-105397421D01*
X160434212Y-105220788D01*
X160257579Y-105075829D01*
X160056060Y-104968115D01*
X159837400Y-104901785D01*
X159666979Y-104885000D01*
X159103021Y-104885000D01*
X158932600Y-104901785D01*
X158713940Y-104968115D01*
X158512421Y-105075829D01*
X158335788Y-105220788D01*
X158190829Y-105397421D01*
X158083115Y-105598940D01*
X158016785Y-105817600D01*
X157994388Y-106045000D01*
X156003242Y-106045000D01*
X156000727Y-106043320D01*
X155739574Y-105935147D01*
X155462335Y-105880000D01*
X155179665Y-105880000D01*
X154902426Y-105935147D01*
X154641273Y-106043320D01*
X154406241Y-106200363D01*
X154206363Y-106400241D01*
X154049320Y-106635273D01*
X153941147Y-106896426D01*
X153886000Y-107173665D01*
X153776692Y-107173665D01*
X153768215Y-107087600D01*
X153701885Y-106868940D01*
X153600895Y-106680000D01*
X153701885Y-106491060D01*
X153768215Y-106272400D01*
X153790612Y-106045000D01*
X153768215Y-105817600D01*
X153701885Y-105598940D01*
X153594171Y-105397421D01*
X153449212Y-105220788D01*
X153272579Y-105075829D01*
X153071060Y-104968115D01*
X152852400Y-104901785D01*
X152681979Y-104885000D01*
X152118021Y-104885000D01*
X151947600Y-104901785D01*
X151728940Y-104968115D01*
X151527421Y-105075829D01*
X151350788Y-105220788D01*
X151205829Y-105397421D01*
X151098115Y-105598940D01*
X151031785Y-105817600D01*
X151009388Y-106045000D01*
X150237000Y-106045000D01*
X150237000Y-104408794D01*
X150353665Y-104432000D01*
X150636335Y-104432000D01*
X150913574Y-104376853D01*
X151174727Y-104268680D01*
X151409759Y-104111637D01*
X151609637Y-103911759D01*
X151766680Y-103676727D01*
X151874853Y-103415574D01*
X151930000Y-103138335D01*
X151930000Y-102855665D01*
X159220000Y-102855665D01*
X159220000Y-103138335D01*
X159275147Y-103415574D01*
X159383320Y-103676727D01*
X159540363Y-103911759D01*
X159740241Y-104111637D01*
X159975273Y-104268680D01*
X160236426Y-104376853D01*
X160513665Y-104432000D01*
X160796335Y-104432000D01*
X161073574Y-104376853D01*
X161334727Y-104268680D01*
X161569759Y-104111637D01*
X161769637Y-103911759D01*
X161926680Y-103676727D01*
X162034853Y-103415574D01*
X162090000Y-103138335D01*
X162090000Y-102855665D01*
X162034853Y-102578426D01*
X161926680Y-102317273D01*
X161769637Y-102082241D01*
X161569759Y-101882363D01*
X161334727Y-101725320D01*
X161073574Y-101617147D01*
X160796335Y-101562000D01*
X160513665Y-101562000D01*
X160236426Y-101617147D01*
X159975273Y-101725320D01*
X159740241Y-101882363D01*
X159540363Y-102082241D01*
X159383320Y-102317273D01*
X159275147Y-102578426D01*
X159220000Y-102855665D01*
X151930000Y-102855665D01*
X151874853Y-102578426D01*
X151766680Y-102317273D01*
X151609637Y-102082241D01*
X151409759Y-101882363D01*
X151174727Y-101725320D01*
X150913574Y-101617147D01*
X150636335Y-101562000D01*
X150353665Y-101562000D01*
X150237000Y-101585206D01*
X150237000Y-99680665D01*
X159220000Y-99680665D01*
X159220000Y-99963335D01*
X159275147Y-100240574D01*
X159383320Y-100501727D01*
X159540363Y-100736759D01*
X159740241Y-100936637D01*
X159975273Y-101093680D01*
X160236426Y-101201853D01*
X160513665Y-101257000D01*
X160796335Y-101257000D01*
X161073574Y-101201853D01*
X161334727Y-101093680D01*
X161569759Y-100936637D01*
X161769637Y-100736759D01*
X161926680Y-100501727D01*
X162034853Y-100240574D01*
X162090000Y-99963335D01*
X162090000Y-99680665D01*
X162395000Y-99680665D01*
X162395000Y-99963335D01*
X162450147Y-100240574D01*
X162558320Y-100501727D01*
X162715363Y-100736759D01*
X162915241Y-100936637D01*
X163150273Y-101093680D01*
X163411426Y-101201853D01*
X163688665Y-101257000D01*
X163971335Y-101257000D01*
X164248574Y-101201853D01*
X164509727Y-101093680D01*
X164744759Y-100936637D01*
X164944637Y-100736759D01*
X165101680Y-100501727D01*
X165209853Y-100240574D01*
X165265000Y-99963335D01*
X165265000Y-99680665D01*
X165209853Y-99403426D01*
X165101680Y-99142273D01*
X164944637Y-98907241D01*
X164744759Y-98707363D01*
X164509727Y-98550320D01*
X164248574Y-98442147D01*
X163971335Y-98387000D01*
X163688665Y-98387000D01*
X163411426Y-98442147D01*
X163150273Y-98550320D01*
X162915241Y-98707363D01*
X162715363Y-98907241D01*
X162558320Y-99142273D01*
X162450147Y-99403426D01*
X162395000Y-99680665D01*
X162090000Y-99680665D01*
X162034853Y-99403426D01*
X161926680Y-99142273D01*
X161769637Y-98907241D01*
X161569759Y-98707363D01*
X161334727Y-98550320D01*
X161073574Y-98442147D01*
X160796335Y-98387000D01*
X160513665Y-98387000D01*
X160236426Y-98442147D01*
X159975273Y-98550320D01*
X159740241Y-98707363D01*
X159540363Y-98907241D01*
X159383320Y-99142273D01*
X159275147Y-99403426D01*
X159220000Y-99680665D01*
X150237000Y-99680665D01*
X150237000Y-96378665D01*
X152235000Y-96378665D01*
X152235000Y-96661335D01*
X152290147Y-96938574D01*
X152398320Y-97199727D01*
X152555363Y-97434759D01*
X152755241Y-97634637D01*
X152990273Y-97791680D01*
X153251426Y-97899853D01*
X153528665Y-97955000D01*
X153811335Y-97955000D01*
X154088574Y-97899853D01*
X154349727Y-97791680D01*
X154584759Y-97634637D01*
X154784637Y-97434759D01*
X154941680Y-97199727D01*
X155049853Y-96938574D01*
X155105000Y-96661335D01*
X155105000Y-96378665D01*
X162395000Y-96378665D01*
X162395000Y-96661335D01*
X162450147Y-96938574D01*
X162558320Y-97199727D01*
X162715363Y-97434759D01*
X162915241Y-97634637D01*
X163150273Y-97791680D01*
X163411426Y-97899853D01*
X163688665Y-97955000D01*
X163971335Y-97955000D01*
X164248574Y-97899853D01*
X164509727Y-97791680D01*
X164744759Y-97634637D01*
X164944637Y-97434759D01*
X165101680Y-97199727D01*
X165209853Y-96938574D01*
X165265000Y-96661335D01*
X165265000Y-96378665D01*
X165209853Y-96101426D01*
X165101680Y-95840273D01*
X164944637Y-95605241D01*
X164744759Y-95405363D01*
X164509727Y-95248320D01*
X164248574Y-95140147D01*
X163971335Y-95085000D01*
X163688665Y-95085000D01*
X163411426Y-95140147D01*
X163150273Y-95248320D01*
X162915241Y-95405363D01*
X162715363Y-95605241D01*
X162558320Y-95840273D01*
X162450147Y-96101426D01*
X162395000Y-96378665D01*
X155105000Y-96378665D01*
X155049853Y-96101426D01*
X154941680Y-95840273D01*
X154784637Y-95605241D01*
X154584759Y-95405363D01*
X154555000Y-95385479D01*
X154555000Y-94450000D01*
X176996928Y-94450000D01*
X176996928Y-96050000D01*
X177009188Y-96174482D01*
X177045498Y-96294180D01*
X177104463Y-96404494D01*
X177183815Y-96501185D01*
X177280506Y-96580537D01*
X177390820Y-96639502D01*
X177510518Y-96675812D01*
X177635000Y-96688072D01*
X179235000Y-96688072D01*
X179359482Y-96675812D01*
X179479180Y-96639502D01*
X179589494Y-96580537D01*
X179686185Y-96501185D01*
X179765537Y-96404494D01*
X179824502Y-96294180D01*
X179860812Y-96174482D01*
X179873072Y-96050000D01*
X179873072Y-94450000D01*
X179860812Y-94325518D01*
X179824502Y-94205820D01*
X179765537Y-94095506D01*
X179686185Y-93998815D01*
X179589494Y-93919463D01*
X179479180Y-93860498D01*
X179359482Y-93824188D01*
X179235000Y-93811928D01*
X177635000Y-93811928D01*
X177510518Y-93824188D01*
X177390820Y-93860498D01*
X177280506Y-93919463D01*
X177183815Y-93998815D01*
X177104463Y-94095506D01*
X177045498Y-94205820D01*
X177009188Y-94325518D01*
X176996928Y-94450000D01*
X154555000Y-94450000D01*
X154555000Y-89370000D01*
X155406928Y-89370000D01*
X155406928Y-90970000D01*
X155419188Y-91094482D01*
X155455498Y-91214180D01*
X155514463Y-91324494D01*
X155593815Y-91421185D01*
X155690506Y-91500537D01*
X155800820Y-91559502D01*
X155920518Y-91595812D01*
X156045000Y-91608072D01*
X157645000Y-91608072D01*
X157769482Y-91595812D01*
X157889180Y-91559502D01*
X157999494Y-91500537D01*
X158096185Y-91421185D01*
X158175537Y-91324494D01*
X158234502Y-91214180D01*
X158270812Y-91094482D01*
X158283072Y-90970000D01*
X158283072Y-89370000D01*
X158270812Y-89245518D01*
X158234502Y-89125820D01*
X158175537Y-89015506D01*
X158096185Y-88918815D01*
X157999494Y-88839463D01*
X157889180Y-88780498D01*
X157769482Y-88744188D01*
X157645000Y-88731928D01*
X156045000Y-88731928D01*
X155920518Y-88744188D01*
X155800820Y-88780498D01*
X155690506Y-88839463D01*
X155593815Y-88918815D01*
X155514463Y-89015506D01*
X155455498Y-89125820D01*
X155419188Y-89245518D01*
X155406928Y-89370000D01*
X154555000Y-89370000D01*
X154555000Y-87947500D01*
X176796928Y-87947500D01*
X176796928Y-89852500D01*
X176809188Y-89976982D01*
X176845498Y-90096680D01*
X176904463Y-90206994D01*
X176983815Y-90303685D01*
X177080506Y-90383037D01*
X177190820Y-90442002D01*
X177310518Y-90478312D01*
X177435000Y-90490572D01*
X179435000Y-90490572D01*
X179559482Y-90478312D01*
X179679180Y-90442002D01*
X179789494Y-90383037D01*
X179886185Y-90303685D01*
X179965537Y-90206994D01*
X180024502Y-90096680D01*
X180060812Y-89976982D01*
X180073072Y-89852500D01*
X180073072Y-87947500D01*
X180060812Y-87823018D01*
X180024502Y-87703320D01*
X179965537Y-87593006D01*
X179886185Y-87496315D01*
X179789494Y-87416963D01*
X179679180Y-87357998D01*
X179559482Y-87321688D01*
X179435000Y-87309428D01*
X177435000Y-87309428D01*
X177310518Y-87321688D01*
X177190820Y-87357998D01*
X177080506Y-87416963D01*
X176983815Y-87496315D01*
X176904463Y-87593006D01*
X176845498Y-87703320D01*
X176809188Y-87823018D01*
X176796928Y-87947500D01*
X154555000Y-87947500D01*
X154555000Y-83872692D01*
X154569068Y-83838729D01*
X154605000Y-83658089D01*
X154605000Y-83473911D01*
X154569068Y-83293271D01*
X154498586Y-83123111D01*
X154396262Y-82969972D01*
X154266028Y-82839738D01*
X154112889Y-82737414D01*
X153942729Y-82666932D01*
X153762089Y-82631000D01*
X153577911Y-82631000D01*
X153397271Y-82666932D01*
X153227111Y-82737414D01*
X153073972Y-82839738D01*
X152943738Y-82969972D01*
X152841414Y-83123111D01*
X152770932Y-83293271D01*
X152735000Y-83473911D01*
X152735000Y-83658089D01*
X152770932Y-83838729D01*
X152785001Y-83872695D01*
X152785000Y-95385479D01*
X152755241Y-95405363D01*
X152555363Y-95605241D01*
X152398320Y-95840273D01*
X152290147Y-96101426D01*
X152235000Y-96378665D01*
X150237000Y-96378665D01*
X150237000Y-93016692D01*
X150251068Y-92982729D01*
X150287000Y-92802089D01*
X150287000Y-92617911D01*
X150251068Y-92437271D01*
X150180586Y-92267111D01*
X150078262Y-92113972D01*
X149948028Y-91983738D01*
X149794889Y-91881414D01*
X149624729Y-91810932D01*
X149444089Y-91775000D01*
X149259911Y-91775000D01*
X149079271Y-91810932D01*
X148909111Y-91881414D01*
X148755972Y-91983738D01*
X148625738Y-92113972D01*
X148523414Y-92267111D01*
X148452932Y-92437271D01*
X148417000Y-92617911D01*
X148417000Y-92802089D01*
X148452932Y-92982729D01*
X148467000Y-93016693D01*
X148467001Y-101585207D01*
X148350335Y-101562000D01*
X148067665Y-101562000D01*
X147790426Y-101617147D01*
X147529273Y-101725320D01*
X147443000Y-101782966D01*
X147443000Y-99813521D01*
X147472759Y-99793637D01*
X147672637Y-99593759D01*
X147829680Y-99358727D01*
X147937853Y-99097574D01*
X147993000Y-98820335D01*
X147993000Y-98537665D01*
X147937853Y-98260426D01*
X147829680Y-97999273D01*
X147672637Y-97764241D01*
X147472759Y-97564363D01*
X147237727Y-97407320D01*
X146976574Y-97299147D01*
X146699335Y-97244000D01*
X146416665Y-97244000D01*
X146139426Y-97299147D01*
X145878273Y-97407320D01*
X145643241Y-97564363D01*
X145443363Y-97764241D01*
X145286320Y-97999273D01*
X145178147Y-98260426D01*
X145123000Y-98537665D01*
X144614857Y-98537665D01*
X144443727Y-98423320D01*
X144182574Y-98315147D01*
X143905335Y-98260000D01*
X143622665Y-98260000D01*
X143345426Y-98315147D01*
X143084273Y-98423320D01*
X142849241Y-98580363D01*
X142649363Y-98780241D01*
X142492320Y-99015273D01*
X142384147Y-99276426D01*
X142329000Y-99553665D01*
X135039000Y-99553665D01*
X134983853Y-99276426D01*
X134875680Y-99015273D01*
X134718637Y-98780241D01*
X134518759Y-98580363D01*
X134283727Y-98423320D01*
X134022574Y-98315147D01*
X133745335Y-98260000D01*
X133462665Y-98260000D01*
X133185426Y-98315147D01*
X132924273Y-98423320D01*
X132689241Y-98580363D01*
X132489363Y-98780241D01*
X132332320Y-99015273D01*
X132224147Y-99276426D01*
X132169000Y-99553665D01*
X131949000Y-99553665D01*
X131949000Y-95743665D01*
X132169000Y-95743665D01*
X132169000Y-96026335D01*
X132224147Y-96303574D01*
X132332320Y-96564727D01*
X132489363Y-96799759D01*
X132689241Y-96999637D01*
X132924273Y-97156680D01*
X133185426Y-97264853D01*
X133462665Y-97320000D01*
X133745335Y-97320000D01*
X134022574Y-97264853D01*
X134283727Y-97156680D01*
X134518759Y-96999637D01*
X134718637Y-96799759D01*
X134875680Y-96564727D01*
X134983853Y-96303574D01*
X135039000Y-96026335D01*
X135039000Y-95743665D01*
X134983853Y-95466426D01*
X134875680Y-95205273D01*
X134718637Y-94970241D01*
X134518759Y-94770363D01*
X134283727Y-94613320D01*
X134022574Y-94505147D01*
X133745335Y-94450000D01*
X133462665Y-94450000D01*
X133185426Y-94505147D01*
X132924273Y-94613320D01*
X132689241Y-94770363D01*
X132489363Y-94970241D01*
X132332320Y-95205273D01*
X132224147Y-95466426D01*
X132169000Y-95743665D01*
X131949000Y-95743665D01*
X131949000Y-88377665D01*
X138265000Y-88377665D01*
X138265000Y-88660335D01*
X138320147Y-88937574D01*
X138428320Y-89198727D01*
X138585363Y-89433759D01*
X138785241Y-89633637D01*
X139020273Y-89790680D01*
X139281426Y-89898853D01*
X139558665Y-89954000D01*
X139841335Y-89954000D01*
X140118574Y-89898853D01*
X140379727Y-89790680D01*
X140614759Y-89633637D01*
X140814637Y-89433759D01*
X140971680Y-89198727D01*
X141079853Y-88937574D01*
X141135000Y-88660335D01*
X141135000Y-88377665D01*
X141440000Y-88377665D01*
X141440000Y-88660335D01*
X141495147Y-88937574D01*
X141603320Y-89198727D01*
X141760363Y-89433759D01*
X141960241Y-89633637D01*
X142195273Y-89790680D01*
X142456426Y-89898853D01*
X142733665Y-89954000D01*
X143016335Y-89954000D01*
X143293574Y-89898853D01*
X143554727Y-89790680D01*
X143789759Y-89633637D01*
X143989637Y-89433759D01*
X144146680Y-89198727D01*
X144254853Y-88937574D01*
X144310000Y-88660335D01*
X144310000Y-88377665D01*
X145123000Y-88377665D01*
X145123000Y-88660335D01*
X145178147Y-88937574D01*
X145286320Y-89198727D01*
X145443363Y-89433759D01*
X145643241Y-89633637D01*
X145878273Y-89790680D01*
X146139426Y-89898853D01*
X146416665Y-89954000D01*
X146699335Y-89954000D01*
X146976574Y-89898853D01*
X147237727Y-89790680D01*
X147472759Y-89633637D01*
X147672637Y-89433759D01*
X147829680Y-89198727D01*
X147937853Y-88937574D01*
X147993000Y-88660335D01*
X147993000Y-88377665D01*
X147937853Y-88100426D01*
X147829680Y-87839273D01*
X147672637Y-87604241D01*
X147472759Y-87404363D01*
X147237727Y-87247320D01*
X146976574Y-87139147D01*
X146699335Y-87084000D01*
X146416665Y-87084000D01*
X146139426Y-87139147D01*
X145878273Y-87247320D01*
X145643241Y-87404363D01*
X145443363Y-87604241D01*
X145286320Y-87839273D01*
X145178147Y-88100426D01*
X145123000Y-88377665D01*
X144310000Y-88377665D01*
X144254853Y-88100426D01*
X144146680Y-87839273D01*
X143989637Y-87604241D01*
X143789759Y-87404363D01*
X143554727Y-87247320D01*
X143293574Y-87139147D01*
X143016335Y-87084000D01*
X142733665Y-87084000D01*
X142456426Y-87139147D01*
X142195273Y-87247320D01*
X141960241Y-87404363D01*
X141760363Y-87604241D01*
X141603320Y-87839273D01*
X141495147Y-88100426D01*
X141440000Y-88377665D01*
X141135000Y-88377665D01*
X141079853Y-88100426D01*
X140971680Y-87839273D01*
X140814637Y-87604241D01*
X140614759Y-87404363D01*
X140379727Y-87247320D01*
X140118574Y-87139147D01*
X139841335Y-87084000D01*
X139558665Y-87084000D01*
X139281426Y-87139147D01*
X139020273Y-87247320D01*
X138785241Y-87404363D01*
X138585363Y-87604241D01*
X138428320Y-87839273D01*
X138320147Y-88100426D01*
X138265000Y-88377665D01*
X131949000Y-88377665D01*
X131949000Y-83377665D01*
X138265000Y-83377665D01*
X138265000Y-83660335D01*
X138320147Y-83937574D01*
X138428320Y-84198727D01*
X138585363Y-84433759D01*
X138785241Y-84633637D01*
X139020273Y-84790680D01*
X139281426Y-84898853D01*
X139558665Y-84954000D01*
X139841335Y-84954000D01*
X140118574Y-84898853D01*
X140379727Y-84790680D01*
X140614759Y-84633637D01*
X140814637Y-84433759D01*
X140971680Y-84198727D01*
X141079853Y-83937574D01*
X141135000Y-83660335D01*
X141135000Y-83377665D01*
X141079853Y-83100426D01*
X140971680Y-82839273D01*
X140814637Y-82604241D01*
X140619061Y-82408665D01*
X155410000Y-82408665D01*
X155410000Y-82691335D01*
X155465147Y-82968574D01*
X155573320Y-83229727D01*
X155730363Y-83464759D01*
X155930241Y-83664637D01*
X156165273Y-83821680D01*
X156426426Y-83929853D01*
X156703665Y-83985000D01*
X156986335Y-83985000D01*
X157263574Y-83929853D01*
X157524727Y-83821680D01*
X157759759Y-83664637D01*
X157959637Y-83464759D01*
X158116680Y-83229727D01*
X158224853Y-82968574D01*
X158280000Y-82691335D01*
X158280000Y-82457911D01*
X169880000Y-82457911D01*
X169880000Y-82642089D01*
X169915932Y-82822729D01*
X169930000Y-82856693D01*
X169930001Y-84783305D01*
X169915932Y-84817271D01*
X169880000Y-84997911D01*
X169880000Y-85182089D01*
X169915932Y-85362729D01*
X169986414Y-85532889D01*
X170088738Y-85686028D01*
X170218972Y-85816262D01*
X170372111Y-85918586D01*
X170542271Y-85989068D01*
X170722911Y-86025000D01*
X170907089Y-86025000D01*
X171087729Y-85989068D01*
X171257889Y-85918586D01*
X171411028Y-85816262D01*
X171541262Y-85686028D01*
X171643586Y-85532889D01*
X171714068Y-85362729D01*
X171750000Y-85182089D01*
X171750000Y-84997911D01*
X171714068Y-84817271D01*
X171700000Y-84783308D01*
X171700000Y-83820000D01*
X176792319Y-83820000D01*
X176822970Y-84131204D01*
X176913745Y-84430449D01*
X177061155Y-84706235D01*
X177259537Y-84947963D01*
X177501265Y-85146345D01*
X177777051Y-85293755D01*
X178076296Y-85384530D01*
X178309514Y-85407500D01*
X178560486Y-85407500D01*
X178793704Y-85384530D01*
X179092949Y-85293755D01*
X179368735Y-85146345D01*
X179610463Y-84947963D01*
X179808845Y-84706235D01*
X179956255Y-84430449D01*
X180047030Y-84131204D01*
X180077681Y-83820000D01*
X180047030Y-83508796D01*
X179956255Y-83209551D01*
X179808845Y-82933765D01*
X179610463Y-82692037D01*
X179368735Y-82493655D01*
X179092949Y-82346245D01*
X178793704Y-82255470D01*
X178560486Y-82232500D01*
X178309514Y-82232500D01*
X178076296Y-82255470D01*
X177777051Y-82346245D01*
X177501265Y-82493655D01*
X177259537Y-82692037D01*
X177061155Y-82933765D01*
X176913745Y-83209551D01*
X176822970Y-83508796D01*
X176792319Y-83820000D01*
X171700000Y-83820000D01*
X171700000Y-82856692D01*
X171714068Y-82822729D01*
X171750000Y-82642089D01*
X171750000Y-82457911D01*
X171714068Y-82277271D01*
X171643586Y-82107111D01*
X171541262Y-81953972D01*
X171411028Y-81823738D01*
X171257889Y-81721414D01*
X171087729Y-81650932D01*
X170907089Y-81615000D01*
X170722911Y-81615000D01*
X170542271Y-81650932D01*
X170372111Y-81721414D01*
X170218972Y-81823738D01*
X170088738Y-81953972D01*
X169986414Y-82107111D01*
X169915932Y-82277271D01*
X169880000Y-82457911D01*
X158280000Y-82457911D01*
X158280000Y-82408665D01*
X158224853Y-82131426D01*
X158116680Y-81870273D01*
X157959637Y-81635241D01*
X157759759Y-81435363D01*
X157524727Y-81278320D01*
X157263574Y-81170147D01*
X156986335Y-81115000D01*
X156703665Y-81115000D01*
X156426426Y-81170147D01*
X156165273Y-81278320D01*
X155930241Y-81435363D01*
X155730363Y-81635241D01*
X155573320Y-81870273D01*
X155465147Y-82131426D01*
X155410000Y-82408665D01*
X140619061Y-82408665D01*
X140614759Y-82404363D01*
X140379727Y-82247320D01*
X140118574Y-82139147D01*
X139841335Y-82084000D01*
X139558665Y-82084000D01*
X139281426Y-82139147D01*
X139020273Y-82247320D01*
X138785241Y-82404363D01*
X138585363Y-82604241D01*
X138428320Y-82839273D01*
X138320147Y-83100426D01*
X138265000Y-83377665D01*
X131949000Y-83377665D01*
X131949000Y-78217665D01*
X135217000Y-78217665D01*
X135217000Y-78500335D01*
X135272147Y-78777574D01*
X135380320Y-79038727D01*
X135537363Y-79273759D01*
X135737241Y-79473637D01*
X135972273Y-79630680D01*
X136233426Y-79738853D01*
X136510665Y-79794000D01*
X136793335Y-79794000D01*
X137070574Y-79738853D01*
X137331727Y-79630680D01*
X137566759Y-79473637D01*
X137766637Y-79273759D01*
X137923680Y-79038727D01*
X138031853Y-78777574D01*
X138087000Y-78500335D01*
X138087000Y-78217665D01*
X138031853Y-77940426D01*
X137923680Y-77679273D01*
X137766637Y-77444241D01*
X137566759Y-77244363D01*
X137331727Y-77087320D01*
X137070574Y-76979147D01*
X136793335Y-76924000D01*
X136510665Y-76924000D01*
X136233426Y-76979147D01*
X135972273Y-77087320D01*
X135737241Y-77244363D01*
X135537363Y-77444241D01*
X135380320Y-77679273D01*
X135272147Y-77940426D01*
X135217000Y-78217665D01*
X131949000Y-78217665D01*
X131949000Y-75985000D01*
X152181928Y-75985000D01*
X152181928Y-77685000D01*
X152194188Y-77809482D01*
X152230498Y-77929180D01*
X152289463Y-78039494D01*
X152368815Y-78136185D01*
X152465506Y-78215537D01*
X152575820Y-78274502D01*
X152695518Y-78310812D01*
X152811062Y-78322192D01*
X152848412Y-78445313D01*
X152930590Y-78599059D01*
X153013468Y-78700046D01*
X153013471Y-78700049D01*
X153041184Y-78733817D01*
X153074951Y-78761529D01*
X154283470Y-79970049D01*
X154311183Y-80003817D01*
X154344951Y-80031530D01*
X154344953Y-80031532D01*
X154392481Y-80070537D01*
X154445941Y-80114411D01*
X154599687Y-80196589D01*
X154766510Y-80247195D01*
X154896523Y-80260000D01*
X154896533Y-80260000D01*
X154939999Y-80264281D01*
X154983465Y-80260000D01*
X166326531Y-80260000D01*
X166370000Y-80264281D01*
X166413469Y-80260000D01*
X166413477Y-80260000D01*
X166543490Y-80247195D01*
X166710313Y-80196589D01*
X166864059Y-80114411D01*
X166998817Y-80003817D01*
X167026534Y-79970044D01*
X167127913Y-79868665D01*
X171920000Y-79868665D01*
X171920000Y-80151335D01*
X171975147Y-80428574D01*
X172083320Y-80689727D01*
X172240363Y-80924759D01*
X172440241Y-81124637D01*
X172675273Y-81281680D01*
X172936426Y-81389853D01*
X173213665Y-81445000D01*
X173496335Y-81445000D01*
X173773574Y-81389853D01*
X174034727Y-81281680D01*
X174269759Y-81124637D01*
X174469637Y-80924759D01*
X174626680Y-80689727D01*
X174734853Y-80428574D01*
X174790000Y-80151335D01*
X174790000Y-79868665D01*
X174734853Y-79591426D01*
X174626680Y-79330273D01*
X174469637Y-79095241D01*
X174269759Y-78895363D01*
X174034727Y-78738320D01*
X173773574Y-78630147D01*
X173496335Y-78575000D01*
X173213665Y-78575000D01*
X172936426Y-78630147D01*
X172675273Y-78738320D01*
X172440241Y-78895363D01*
X172240363Y-79095241D01*
X172083320Y-79330273D01*
X171975147Y-79591426D01*
X171920000Y-79868665D01*
X167127913Y-79868665D01*
X167965050Y-79031529D01*
X167998817Y-79003817D01*
X168109411Y-78869059D01*
X168109412Y-78869058D01*
X168191589Y-78715314D01*
X168242195Y-78548490D01*
X168242195Y-78548489D01*
X168255000Y-78418477D01*
X168255000Y-78418469D01*
X168259281Y-78375000D01*
X168255000Y-78331531D01*
X168255000Y-78029656D01*
X168316632Y-77988475D01*
X168365107Y-77940000D01*
X176996928Y-77940000D01*
X176996928Y-79540000D01*
X177009188Y-79664482D01*
X177045498Y-79784180D01*
X177104463Y-79894494D01*
X177183815Y-79991185D01*
X177280506Y-80070537D01*
X177390820Y-80129502D01*
X177510518Y-80165812D01*
X177635000Y-80178072D01*
X179235000Y-80178072D01*
X179359482Y-80165812D01*
X179479180Y-80129502D01*
X179589494Y-80070537D01*
X179686185Y-79991185D01*
X179765537Y-79894494D01*
X179824502Y-79784180D01*
X179860812Y-79664482D01*
X179873072Y-79540000D01*
X179873072Y-77940000D01*
X179860812Y-77815518D01*
X179824502Y-77695820D01*
X179765537Y-77585506D01*
X179686185Y-77488815D01*
X179589494Y-77409463D01*
X179479180Y-77350498D01*
X179359482Y-77314188D01*
X179235000Y-77301928D01*
X177635000Y-77301928D01*
X177510518Y-77314188D01*
X177390820Y-77350498D01*
X177280506Y-77409463D01*
X177183815Y-77488815D01*
X177104463Y-77585506D01*
X177045498Y-77695820D01*
X177009188Y-77815518D01*
X176996928Y-77940000D01*
X168365107Y-77940000D01*
X168523475Y-77781632D01*
X168685990Y-77538411D01*
X168797932Y-77268158D01*
X168855000Y-76981260D01*
X168855000Y-76688740D01*
X168797932Y-76401842D01*
X168685990Y-76131589D01*
X168523475Y-75888368D01*
X168316632Y-75681525D01*
X168073411Y-75519010D01*
X167803158Y-75407068D01*
X167516260Y-75350000D01*
X167223740Y-75350000D01*
X166936842Y-75407068D01*
X166666589Y-75519010D01*
X166423368Y-75681525D01*
X166216525Y-75888368D01*
X166100000Y-76062760D01*
X165983475Y-75888368D01*
X165776632Y-75681525D01*
X165533411Y-75519010D01*
X165263158Y-75407068D01*
X164976260Y-75350000D01*
X164683740Y-75350000D01*
X164396842Y-75407068D01*
X164126589Y-75519010D01*
X163883368Y-75681525D01*
X163751513Y-75813380D01*
X163729502Y-75740820D01*
X163670537Y-75630506D01*
X163591185Y-75533815D01*
X163494494Y-75454463D01*
X163384180Y-75395498D01*
X163264482Y-75359188D01*
X163140000Y-75346928D01*
X161440000Y-75346928D01*
X161315518Y-75359188D01*
X161195820Y-75395498D01*
X161085506Y-75454463D01*
X160988815Y-75533815D01*
X160909463Y-75630506D01*
X160850498Y-75740820D01*
X160814188Y-75860518D01*
X160801928Y-75985000D01*
X160801928Y-77685000D01*
X160814188Y-77809482D01*
X160850498Y-77929180D01*
X160909463Y-78039494D01*
X160988815Y-78136185D01*
X161085506Y-78215537D01*
X161195820Y-78274502D01*
X161315518Y-78310812D01*
X161440000Y-78323072D01*
X163140000Y-78323072D01*
X163264482Y-78310812D01*
X163384180Y-78274502D01*
X163494494Y-78215537D01*
X163591185Y-78136185D01*
X163670537Y-78039494D01*
X163729502Y-77929180D01*
X163751513Y-77856620D01*
X163883368Y-77988475D01*
X164126589Y-78150990D01*
X164396842Y-78262932D01*
X164683740Y-78320000D01*
X164976260Y-78320000D01*
X165263158Y-78262932D01*
X165533411Y-78150990D01*
X165776632Y-77988475D01*
X165983475Y-77781632D01*
X166100000Y-77607240D01*
X166216525Y-77781632D01*
X166423368Y-77988475D01*
X166472271Y-78021151D01*
X166003422Y-78490000D01*
X155306579Y-78490000D01*
X154961067Y-78144489D01*
X154971185Y-78136185D01*
X155050537Y-78039494D01*
X155109502Y-77929180D01*
X155145812Y-77809482D01*
X155158072Y-77685000D01*
X155158072Y-75985000D01*
X155145812Y-75860518D01*
X155109502Y-75740820D01*
X155050537Y-75630506D01*
X154971185Y-75533815D01*
X154874494Y-75454463D01*
X154764180Y-75395498D01*
X154644482Y-75359188D01*
X154520000Y-75346928D01*
X152820000Y-75346928D01*
X152695518Y-75359188D01*
X152575820Y-75395498D01*
X152465506Y-75454463D01*
X152368815Y-75533815D01*
X152289463Y-75630506D01*
X152230498Y-75740820D01*
X152194188Y-75860518D01*
X152181928Y-75985000D01*
X131949000Y-75985000D01*
X131949000Y-73772578D01*
X132567217Y-73154362D01*
X132721481Y-73236818D01*
X133029584Y-73330280D01*
X133350000Y-73361838D01*
X133670415Y-73330280D01*
X133978518Y-73236818D01*
X134262466Y-73085044D01*
X134511351Y-72880791D01*
X134715604Y-72631907D01*
X134867378Y-72347959D01*
X134960840Y-72039856D01*
X134984490Y-71799732D01*
X134984490Y-70440268D01*
X139335510Y-70440268D01*
X139335510Y-71799731D01*
X139359160Y-72039855D01*
X139452622Y-72347958D01*
X139604396Y-72631906D01*
X139808649Y-72880791D01*
X140057533Y-73085044D01*
X140341481Y-73236818D01*
X140649584Y-73330280D01*
X140970000Y-73361838D01*
X141290415Y-73330280D01*
X141598518Y-73236818D01*
X141882466Y-73085044D01*
X142131351Y-72880791D01*
X142335604Y-72631907D01*
X142487378Y-72347959D01*
X142580840Y-72039856D01*
X142604490Y-71799732D01*
X142604490Y-70440268D01*
X142601098Y-70405823D01*
X158320000Y-70405823D01*
X158320000Y-72304178D01*
X158341850Y-72526012D01*
X158428193Y-72810648D01*
X158568407Y-73072970D01*
X158757104Y-73302897D01*
X158987031Y-73491594D01*
X159249353Y-73631808D01*
X159533989Y-73718151D01*
X159830000Y-73747306D01*
X160126012Y-73718151D01*
X160410648Y-73631808D01*
X160672970Y-73491594D01*
X160902897Y-73302897D01*
X161080001Y-73087097D01*
X161257104Y-73302897D01*
X161487031Y-73491594D01*
X161749353Y-73631808D01*
X162033989Y-73718151D01*
X162330000Y-73747306D01*
X162626012Y-73718151D01*
X162910648Y-73631808D01*
X163172970Y-73491594D01*
X163402897Y-73302897D01*
X163591594Y-73072970D01*
X163731808Y-72810648D01*
X163818151Y-72526012D01*
X163840000Y-72304178D01*
X163840000Y-70405823D01*
X165820000Y-70405823D01*
X165820000Y-72304178D01*
X165841850Y-72526012D01*
X165928193Y-72810648D01*
X166068407Y-73072970D01*
X166257104Y-73302897D01*
X166487031Y-73491594D01*
X166749353Y-73631808D01*
X167033989Y-73718151D01*
X167330000Y-73747306D01*
X167626012Y-73718151D01*
X167910648Y-73631808D01*
X168172970Y-73491594D01*
X168402897Y-73302897D01*
X168580001Y-73087097D01*
X168757104Y-73302897D01*
X168987031Y-73491594D01*
X169249353Y-73631808D01*
X169533989Y-73718151D01*
X169830000Y-73747306D01*
X170126012Y-73718151D01*
X170410648Y-73631808D01*
X170672970Y-73491594D01*
X170902897Y-73302897D01*
X171091594Y-73072970D01*
X171231808Y-72810648D01*
X171318151Y-72526012D01*
X171340000Y-72304178D01*
X171340000Y-70405822D01*
X171318151Y-70183988D01*
X171231808Y-69899352D01*
X171091594Y-69637030D01*
X170902897Y-69407103D01*
X170672969Y-69218406D01*
X170410647Y-69078192D01*
X170126011Y-68991849D01*
X169830000Y-68962694D01*
X169533988Y-68991849D01*
X169249352Y-69078192D01*
X168987030Y-69218406D01*
X168757103Y-69407103D01*
X168580000Y-69622903D01*
X168402897Y-69407103D01*
X168172969Y-69218406D01*
X167910647Y-69078192D01*
X167626011Y-68991849D01*
X167330000Y-68962694D01*
X167033988Y-68991849D01*
X166749352Y-69078192D01*
X166487030Y-69218406D01*
X166257103Y-69407103D01*
X166068406Y-69637031D01*
X165928192Y-69899353D01*
X165841849Y-70183989D01*
X165820000Y-70405823D01*
X163840000Y-70405823D01*
X163840000Y-70405822D01*
X163818151Y-70183988D01*
X163731808Y-69899352D01*
X163591594Y-69637030D01*
X163402897Y-69407103D01*
X163172969Y-69218406D01*
X162910647Y-69078192D01*
X162626011Y-68991849D01*
X162330000Y-68962694D01*
X162033988Y-68991849D01*
X161749352Y-69078192D01*
X161487030Y-69218406D01*
X161257103Y-69407103D01*
X161080000Y-69622903D01*
X160902897Y-69407103D01*
X160672969Y-69218406D01*
X160410647Y-69078192D01*
X160126011Y-68991849D01*
X159830000Y-68962694D01*
X159533988Y-68991849D01*
X159249352Y-69078192D01*
X158987030Y-69218406D01*
X158757103Y-69407103D01*
X158568406Y-69637031D01*
X158428192Y-69899353D01*
X158341849Y-70183989D01*
X158320000Y-70405823D01*
X142601098Y-70405823D01*
X142580840Y-70200144D01*
X142487378Y-69892041D01*
X142335604Y-69608093D01*
X142131351Y-69359209D01*
X141882467Y-69154956D01*
X141598519Y-69003182D01*
X141290416Y-68909720D01*
X140970000Y-68878162D01*
X140649585Y-68909720D01*
X140341482Y-69003182D01*
X140057534Y-69154956D01*
X139808650Y-69359209D01*
X139604397Y-69608093D01*
X139452622Y-69892041D01*
X139359160Y-70200144D01*
X139335510Y-70440268D01*
X134984490Y-70440268D01*
X134960840Y-70200144D01*
X134867378Y-69892041D01*
X134715604Y-69608093D01*
X134511351Y-69359209D01*
X134262467Y-69154956D01*
X133978519Y-69003182D01*
X133670416Y-68909720D01*
X133350000Y-68878162D01*
X133029585Y-68909720D01*
X132721482Y-69003182D01*
X132437534Y-69154956D01*
X132188650Y-69359209D01*
X131984397Y-69608093D01*
X131832622Y-69892041D01*
X131739160Y-70200144D01*
X131715510Y-70440268D01*
X131715510Y-71502911D01*
X130468956Y-72749466D01*
X130435183Y-72777183D01*
X130324589Y-72911942D01*
X130242411Y-73065688D01*
X130191805Y-73232511D01*
X130179000Y-73362524D01*
X130179000Y-73362531D01*
X130174719Y-73406000D01*
X119455000Y-73406000D01*
X119455000Y-63534720D01*
X119469005Y-63391891D01*
X119500402Y-63287899D01*
X119551399Y-63191986D01*
X119620055Y-63107806D01*
X119703758Y-63038560D01*
X119799311Y-62986895D01*
X119903078Y-62954773D01*
X120043641Y-62940000D01*
X180980280Y-62940000D01*
X181123109Y-62954005D01*
%TD*%
M02*
