M48
; DRILL file {KiCad (5.1.6-0-10_14)} date Tuesday, September 29, 2020 at 03:50:37 AM
; FORMAT={-:-/ absolute / inch / decimal}
; #@! TF.CreationDate,2020-09-29T03:50:37-04:00
; #@! TF.GenerationSoftware,Kicad,Pcbnew,(5.1.6-0-10_14)
; #@! TF.FileFunction,Plated,1,2,PTH
FMAT,2
INCH
T1C0.0157
T2C0.0295
T3C0.0315
T4C0.0392
T5C0.0394
T6C0.0433
T7C0.0472
T8C0.1378
%
G90
G05
T1
X5.575Y-4.36
X5.665Y-4.225
X5.77Y-4.36
X5.88Y-3.65
X5.88Y-4.36
X6.05Y-3.29
X6.3051Y-4.5301
X6.3051Y-4.6449
X6.675Y-4.675
X6.725Y-3.25
X6.725Y-3.35
T2
X5.77Y-4.175
X5.77Y-4.225
X5.77Y-4.275
X6.275Y-4.175
X6.275Y-4.225
X6.275Y-4.275
X5.575Y-4.175
X5.575Y-4.225
X5.575Y-4.275
X6.0Y-4.175
X6.0Y-4.225
X6.0Y-4.275
T3
X6.05Y-3.8
X6.45Y-3.8
X5.665Y-4.72
X5.8619Y-4.72
X6.1281Y-3.93
X6.325Y-3.93
X6.825Y-2.9531
X6.825Y-3.15
X5.465Y-4.45
X5.865Y-4.45
X5.26Y-3.925
X5.66Y-3.925
X6.115Y-4.225
X6.115Y-4.525
X5.26Y-3.775
X5.66Y-3.775
X5.02Y-4.295
X5.42Y-4.295
X5.77Y-3.485
X5.77Y-3.885
X6.9266Y-3.75
X7.025Y-3.75
X5.02Y-4.175
X5.42Y-4.175
X5.5Y-3.2881
X5.5Y-3.485
X5.975Y-4.425
X5.975Y-4.6219
X7.025Y-3.0016
X7.025Y-3.1
X5.38Y-3.085
X5.38Y-3.485
X6.45Y-3.93
X6.45Y-4.33
X5.925Y-4.055
X6.325Y-4.055
X5.625Y-3.085
X5.625Y-3.485
X5.465Y-4.575
X5.865Y-4.575
X5.435Y-4.055
X5.835Y-4.055
X6.175Y-3.25
X6.175Y-3.55
T5
X6.3894Y-3.025
X6.4894Y-3.025
X6.5894Y-3.025
X6.3974Y-4.7795
X6.4974Y-4.7795
X6.5974Y-4.7795
X6.6974Y-4.7795
X6.225Y-4.72
X6.225Y-4.82
X6.05Y-3.025
X6.15Y-3.025
X6.075Y-4.72
X6.075Y-4.82
X5.1533Y-4.7795
X5.2533Y-4.7795
X5.3533Y-4.7795
X5.4533Y-4.7795
T6
X7.025Y-3.3
X7.025Y-3.4
X7.025Y-3.5
T7
X6.2925Y-2.8093
X6.3909Y-2.8093
X6.4894Y-2.6122
X6.5878Y-2.8093
X6.6862Y-2.8093
T8
X6.3691Y-3.4
T4
G00X5.25Y-2.8236
M15
G01X5.25Y-2.7763
M16
G05
G00X5.4237Y-2.7
M15
G01X5.3763Y-2.7
M16
G05
G00X5.55Y-2.8236
M15
G01X5.55Y-2.7763
M16
G05
T0
M30
