%TF.GenerationSoftware,KiCad,Pcbnew,(5.1.6-0-10_14)*%
%TF.CreationDate,2020-09-29T03:50:34-04:00*%
%TF.ProjectId,C64 Modulator,43363420-4d6f-4647-956c-61746f722e6b,rev?*%
%TF.SameCoordinates,Original*%
%TF.FileFunction,Copper,L1,Top*%
%TF.FilePolarity,Positive*%
%FSLAX46Y46*%
G04 Gerber Fmt 4.6, Leading zero omitted, Abs format (unit mm)*
G04 Created by KiCad (PCBNEW (5.1.6-0-10_14)) date 2020-09-29 03:50:34*
%MOMM*%
%LPD*%
G01*
G04 APERTURE LIST*
%ADD10C,0.100000*%
%ADD11C,0.150000*%
%ADD12C,0.300000*%
%ADD13C,0.400000*%
%TA.AperFunction,ComponentPad*%
%ADD14O,2.000000X1.905000*%
%TD*%
%TA.AperFunction,ComponentPad*%
%ADD15R,2.000000X1.905000*%
%TD*%
%TA.AperFunction,ComponentPad*%
%ADD16C,5.000000*%
%TD*%
%TA.AperFunction,ComponentPad*%
%ADD17O,1.700000X1.700000*%
%TD*%
%TA.AperFunction,ComponentPad*%
%ADD18R,1.700000X1.700000*%
%TD*%
%TA.AperFunction,ComponentPad*%
%ADD19O,1.600000X1.600000*%
%TD*%
%TA.AperFunction,ComponentPad*%
%ADD20C,1.600000*%
%TD*%
%TA.AperFunction,ComponentPad*%
%ADD21R,1.500000X1.050000*%
%TD*%
%TA.AperFunction,ComponentPad*%
%ADD22O,1.500000X1.050000*%
%TD*%
%TA.AperFunction,ComponentPad*%
%ADD23R,1.600000X1.600000*%
%TD*%
%TA.AperFunction,ComponentPad*%
%ADD24R,3.500000X2.500000*%
%TD*%
%TA.AperFunction,ComponentPad*%
%ADD25O,1.750000X3.500000*%
%TD*%
%TA.AperFunction,ComponentPad*%
%ADD26O,1.998980X3.197860*%
%TD*%
%TA.AperFunction,ComponentPad*%
%ADD27O,3.197860X1.998980*%
%TD*%
%TA.AperFunction,ViaPad*%
%ADD28C,0.600000*%
%TD*%
%TA.AperFunction,Conductor*%
%ADD29C,0.500000*%
%TD*%
%TA.AperFunction,Conductor*%
%ADD30C,2.000000*%
%TD*%
%TA.AperFunction,Conductor*%
%ADD31C,0.250000*%
%TD*%
G04 APERTURE END LIST*
D10*
D11*
X177002200Y-166007200D02*
X177002200Y-198007200D01*
X285002200Y-198007200D01*
X285002200Y-166007200D01*
X177002200Y-166007200D01*
D10*
D11*
X10000000Y-10000000D02*
X10000000Y-200007200D01*
X287002200Y-200007200D01*
X287002200Y-10000000D01*
X10000000Y-10000000D01*
D10*
D11*
X12000000Y-12000000D02*
X12000000Y-198007200D01*
X285002200Y-198007200D01*
X285002200Y-12000000D01*
X12000000Y-12000000D01*
D10*
D11*
X60000000Y-12000000D02*
X60000000Y-10000000D01*
D10*
D11*
X110000000Y-12000000D02*
X110000000Y-10000000D01*
D10*
D11*
X160000000Y-12000000D02*
X160000000Y-10000000D01*
D10*
D11*
X210000000Y-12000000D02*
X210000000Y-10000000D01*
D10*
D11*
X260000000Y-12000000D02*
X260000000Y-10000000D01*
D10*
D11*
X36065476Y-11588095D02*
X35322619Y-11588095D01*
X35694047Y-11588095D02*
X35694047Y-10288095D01*
X35570238Y-10473809D01*
X35446428Y-10597619D01*
X35322619Y-10659523D01*
D10*
D11*
X85322619Y-10411904D02*
X85384523Y-10350000D01*
X85508333Y-10288095D01*
X85817857Y-10288095D01*
X85941666Y-10350000D01*
X86003571Y-10411904D01*
X86065476Y-10535714D01*
X86065476Y-10659523D01*
X86003571Y-10845238D01*
X85260714Y-11588095D01*
X86065476Y-11588095D01*
D10*
D11*
X135260714Y-10288095D02*
X136065476Y-10288095D01*
X135632142Y-10783333D01*
X135817857Y-10783333D01*
X135941666Y-10845238D01*
X136003571Y-10907142D01*
X136065476Y-11030952D01*
X136065476Y-11340476D01*
X136003571Y-11464285D01*
X135941666Y-11526190D01*
X135817857Y-11588095D01*
X135446428Y-11588095D01*
X135322619Y-11526190D01*
X135260714Y-11464285D01*
D10*
D11*
X185941666Y-10721428D02*
X185941666Y-11588095D01*
X185632142Y-10226190D02*
X185322619Y-11154761D01*
X186127380Y-11154761D01*
D10*
D11*
X236003571Y-10288095D02*
X235384523Y-10288095D01*
X235322619Y-10907142D01*
X235384523Y-10845238D01*
X235508333Y-10783333D01*
X235817857Y-10783333D01*
X235941666Y-10845238D01*
X236003571Y-10907142D01*
X236065476Y-11030952D01*
X236065476Y-11340476D01*
X236003571Y-11464285D01*
X235941666Y-11526190D01*
X235817857Y-11588095D01*
X235508333Y-11588095D01*
X235384523Y-11526190D01*
X235322619Y-11464285D01*
D10*
D11*
X285941666Y-10288095D02*
X285694047Y-10288095D01*
X285570238Y-10350000D01*
X285508333Y-10411904D01*
X285384523Y-10597619D01*
X285322619Y-10845238D01*
X285322619Y-11340476D01*
X285384523Y-11464285D01*
X285446428Y-11526190D01*
X285570238Y-11588095D01*
X285817857Y-11588095D01*
X285941666Y-11526190D01*
X286003571Y-11464285D01*
X286065476Y-11340476D01*
X286065476Y-11030952D01*
X286003571Y-10907142D01*
X285941666Y-10845238D01*
X285817857Y-10783333D01*
X285570238Y-10783333D01*
X285446428Y-10845238D01*
X285384523Y-10907142D01*
X285322619Y-11030952D01*
D10*
D11*
X60000000Y-198007200D02*
X60000000Y-200007200D01*
D10*
D11*
X110000000Y-198007200D02*
X110000000Y-200007200D01*
D10*
D11*
X160000000Y-198007200D02*
X160000000Y-200007200D01*
D10*
D11*
X210000000Y-198007200D02*
X210000000Y-200007200D01*
D10*
D11*
X260000000Y-198007200D02*
X260000000Y-200007200D01*
D10*
D11*
X36065476Y-199595295D02*
X35322619Y-199595295D01*
X35694047Y-199595295D02*
X35694047Y-198295295D01*
X35570238Y-198481009D01*
X35446428Y-198604819D01*
X35322619Y-198666723D01*
D10*
D11*
X85322619Y-198419104D02*
X85384523Y-198357200D01*
X85508333Y-198295295D01*
X85817857Y-198295295D01*
X85941666Y-198357200D01*
X86003571Y-198419104D01*
X86065476Y-198542914D01*
X86065476Y-198666723D01*
X86003571Y-198852438D01*
X85260714Y-199595295D01*
X86065476Y-199595295D01*
D10*
D11*
X135260714Y-198295295D02*
X136065476Y-198295295D01*
X135632142Y-198790533D01*
X135817857Y-198790533D01*
X135941666Y-198852438D01*
X136003571Y-198914342D01*
X136065476Y-199038152D01*
X136065476Y-199347676D01*
X136003571Y-199471485D01*
X135941666Y-199533390D01*
X135817857Y-199595295D01*
X135446428Y-199595295D01*
X135322619Y-199533390D01*
X135260714Y-199471485D01*
D10*
D11*
X185941666Y-198728628D02*
X185941666Y-199595295D01*
X185632142Y-198233390D02*
X185322619Y-199161961D01*
X186127380Y-199161961D01*
D10*
D11*
X236003571Y-198295295D02*
X235384523Y-198295295D01*
X235322619Y-198914342D01*
X235384523Y-198852438D01*
X235508333Y-198790533D01*
X235817857Y-198790533D01*
X235941666Y-198852438D01*
X236003571Y-198914342D01*
X236065476Y-199038152D01*
X236065476Y-199347676D01*
X236003571Y-199471485D01*
X235941666Y-199533390D01*
X235817857Y-199595295D01*
X235508333Y-199595295D01*
X235384523Y-199533390D01*
X235322619Y-199471485D01*
D10*
D11*
X285941666Y-198295295D02*
X285694047Y-198295295D01*
X285570238Y-198357200D01*
X285508333Y-198419104D01*
X285384523Y-198604819D01*
X285322619Y-198852438D01*
X285322619Y-199347676D01*
X285384523Y-199471485D01*
X285446428Y-199533390D01*
X285570238Y-199595295D01*
X285817857Y-199595295D01*
X285941666Y-199533390D01*
X286003571Y-199471485D01*
X286065476Y-199347676D01*
X286065476Y-199038152D01*
X286003571Y-198914342D01*
X285941666Y-198852438D01*
X285817857Y-198790533D01*
X285570238Y-198790533D01*
X285446428Y-198852438D01*
X285384523Y-198914342D01*
X285322619Y-199038152D01*
D10*
D11*
X10000000Y-60000000D02*
X12000000Y-60000000D01*
D10*
D11*
X10000000Y-110000000D02*
X12000000Y-110000000D01*
D10*
D11*
X10000000Y-160000000D02*
X12000000Y-160000000D01*
D10*
D11*
X10690476Y-35216666D02*
X11309523Y-35216666D01*
X10566666Y-35588095D02*
X11000000Y-34288095D01*
X11433333Y-35588095D01*
D10*
D11*
X11092857Y-84907142D02*
X11278571Y-84969047D01*
X11340476Y-85030952D01*
X11402380Y-85154761D01*
X11402380Y-85340476D01*
X11340476Y-85464285D01*
X11278571Y-85526190D01*
X11154761Y-85588095D01*
X10659523Y-85588095D01*
X10659523Y-84288095D01*
X11092857Y-84288095D01*
X11216666Y-84350000D01*
X11278571Y-84411904D01*
X11340476Y-84535714D01*
X11340476Y-84659523D01*
X11278571Y-84783333D01*
X11216666Y-84845238D01*
X11092857Y-84907142D01*
X10659523Y-84907142D01*
D10*
D11*
X11402380Y-135464285D02*
X11340476Y-135526190D01*
X11154761Y-135588095D01*
X11030952Y-135588095D01*
X10845238Y-135526190D01*
X10721428Y-135402380D01*
X10659523Y-135278571D01*
X10597619Y-135030952D01*
X10597619Y-134845238D01*
X10659523Y-134597619D01*
X10721428Y-134473809D01*
X10845238Y-134350000D01*
X11030952Y-134288095D01*
X11154761Y-134288095D01*
X11340476Y-134350000D01*
X11402380Y-134411904D01*
D10*
D11*
X10659523Y-185588095D02*
X10659523Y-184288095D01*
X10969047Y-184288095D01*
X11154761Y-184350000D01*
X11278571Y-184473809D01*
X11340476Y-184597619D01*
X11402380Y-184845238D01*
X11402380Y-185030952D01*
X11340476Y-185278571D01*
X11278571Y-185402380D01*
X11154761Y-185526190D01*
X10969047Y-185588095D01*
X10659523Y-185588095D01*
D10*
D11*
X287002200Y-60000000D02*
X285002200Y-60000000D01*
D10*
D11*
X287002200Y-110000000D02*
X285002200Y-110000000D01*
D10*
D11*
X287002200Y-160000000D02*
X285002200Y-160000000D01*
D10*
D11*
X285692676Y-35216666D02*
X286311723Y-35216666D01*
X285568866Y-35588095D02*
X286002200Y-34288095D01*
X286435533Y-35588095D01*
D10*
D11*
X286095057Y-84907142D02*
X286280771Y-84969047D01*
X286342676Y-85030952D01*
X286404580Y-85154761D01*
X286404580Y-85340476D01*
X286342676Y-85464285D01*
X286280771Y-85526190D01*
X286156961Y-85588095D01*
X285661723Y-85588095D01*
X285661723Y-84288095D01*
X286095057Y-84288095D01*
X286218866Y-84350000D01*
X286280771Y-84411904D01*
X286342676Y-84535714D01*
X286342676Y-84659523D01*
X286280771Y-84783333D01*
X286218866Y-84845238D01*
X286095057Y-84907142D01*
X285661723Y-84907142D01*
D10*
D11*
X286404580Y-135464285D02*
X286342676Y-135526190D01*
X286156961Y-135588095D01*
X286033152Y-135588095D01*
X285847438Y-135526190D01*
X285723628Y-135402380D01*
X285661723Y-135278571D01*
X285599819Y-135030952D01*
X285599819Y-134845238D01*
X285661723Y-134597619D01*
X285723628Y-134473809D01*
X285847438Y-134350000D01*
X286033152Y-134288095D01*
X286156961Y-134288095D01*
X286342676Y-134350000D01*
X286404580Y-134411904D01*
D10*
D11*
X285661723Y-185588095D02*
X285661723Y-184288095D01*
X285971247Y-184288095D01*
X286156961Y-184350000D01*
X286280771Y-184473809D01*
X286342676Y-184597619D01*
X286404580Y-184845238D01*
X286404580Y-185030952D01*
X286342676Y-185278571D01*
X286280771Y-185402380D01*
X286156961Y-185526190D01*
X285971247Y-185588095D01*
X285661723Y-185588095D01*
D10*
D11*
X200434342Y-193785771D02*
X200434342Y-192285771D01*
X200791485Y-192285771D01*
X201005771Y-192357200D01*
X201148628Y-192500057D01*
X201220057Y-192642914D01*
X201291485Y-192928628D01*
X201291485Y-193142914D01*
X201220057Y-193428628D01*
X201148628Y-193571485D01*
X201005771Y-193714342D01*
X200791485Y-193785771D01*
X200434342Y-193785771D01*
X202577200Y-193785771D02*
X202577200Y-193000057D01*
X202505771Y-192857200D01*
X202362914Y-192785771D01*
X202077200Y-192785771D01*
X201934342Y-192857200D01*
X202577200Y-193714342D02*
X202434342Y-193785771D01*
X202077200Y-193785771D01*
X201934342Y-193714342D01*
X201862914Y-193571485D01*
X201862914Y-193428628D01*
X201934342Y-193285771D01*
X202077200Y-193214342D01*
X202434342Y-193214342D01*
X202577200Y-193142914D01*
X203077200Y-192785771D02*
X203648628Y-192785771D01*
X203291485Y-192285771D02*
X203291485Y-193571485D01*
X203362914Y-193714342D01*
X203505771Y-193785771D01*
X203648628Y-193785771D01*
X204720057Y-193714342D02*
X204577200Y-193785771D01*
X204291485Y-193785771D01*
X204148628Y-193714342D01*
X204077200Y-193571485D01*
X204077200Y-193000057D01*
X204148628Y-192857200D01*
X204291485Y-192785771D01*
X204577200Y-192785771D01*
X204720057Y-192857200D01*
X204791485Y-193000057D01*
X204791485Y-193142914D01*
X204077200Y-193285771D01*
X205434342Y-193642914D02*
X205505771Y-193714342D01*
X205434342Y-193785771D01*
X205362914Y-193714342D01*
X205434342Y-193642914D01*
X205434342Y-193785771D01*
X205434342Y-192857200D02*
X205505771Y-192928628D01*
X205434342Y-193000057D01*
X205362914Y-192928628D01*
X205434342Y-192857200D01*
X205434342Y-193000057D01*
D10*
D11*
X177002200Y-194507200D02*
X285002200Y-194507200D01*
D10*
D11*
X178434342Y-196585771D02*
X178434342Y-195085771D01*
X179291485Y-196585771D02*
X178648628Y-195728628D01*
X179291485Y-195085771D02*
X178434342Y-195942914D01*
X179934342Y-196585771D02*
X179934342Y-195585771D01*
X179934342Y-195085771D02*
X179862914Y-195157200D01*
X179934342Y-195228628D01*
X180005771Y-195157200D01*
X179934342Y-195085771D01*
X179934342Y-195228628D01*
X181505771Y-196442914D02*
X181434342Y-196514342D01*
X181220057Y-196585771D01*
X181077200Y-196585771D01*
X180862914Y-196514342D01*
X180720057Y-196371485D01*
X180648628Y-196228628D01*
X180577200Y-195942914D01*
X180577200Y-195728628D01*
X180648628Y-195442914D01*
X180720057Y-195300057D01*
X180862914Y-195157200D01*
X181077200Y-195085771D01*
X181220057Y-195085771D01*
X181434342Y-195157200D01*
X181505771Y-195228628D01*
X182791485Y-196585771D02*
X182791485Y-195800057D01*
X182720057Y-195657200D01*
X182577200Y-195585771D01*
X182291485Y-195585771D01*
X182148628Y-195657200D01*
X182791485Y-196514342D02*
X182648628Y-196585771D01*
X182291485Y-196585771D01*
X182148628Y-196514342D01*
X182077200Y-196371485D01*
X182077200Y-196228628D01*
X182148628Y-196085771D01*
X182291485Y-196014342D01*
X182648628Y-196014342D01*
X182791485Y-195942914D01*
X184148628Y-196585771D02*
X184148628Y-195085771D01*
X184148628Y-196514342D02*
X184005771Y-196585771D01*
X183720057Y-196585771D01*
X183577200Y-196514342D01*
X183505771Y-196442914D01*
X183434342Y-196300057D01*
X183434342Y-195871485D01*
X183505771Y-195728628D01*
X183577200Y-195657200D01*
X183720057Y-195585771D01*
X184005771Y-195585771D01*
X184148628Y-195657200D01*
X186005771Y-195800057D02*
X186505771Y-195800057D01*
X186720057Y-196585771D02*
X186005771Y-196585771D01*
X186005771Y-195085771D01*
X186720057Y-195085771D01*
X187362914Y-196442914D02*
X187434342Y-196514342D01*
X187362914Y-196585771D01*
X187291485Y-196514342D01*
X187362914Y-196442914D01*
X187362914Y-196585771D01*
X188077200Y-196585771D02*
X188077200Y-195085771D01*
X188434342Y-195085771D01*
X188648628Y-195157200D01*
X188791485Y-195300057D01*
X188862914Y-195442914D01*
X188934342Y-195728628D01*
X188934342Y-195942914D01*
X188862914Y-196228628D01*
X188791485Y-196371485D01*
X188648628Y-196514342D01*
X188434342Y-196585771D01*
X188077200Y-196585771D01*
X189577200Y-196442914D02*
X189648628Y-196514342D01*
X189577200Y-196585771D01*
X189505771Y-196514342D01*
X189577200Y-196442914D01*
X189577200Y-196585771D01*
X190220057Y-196157200D02*
X190934342Y-196157200D01*
X190077200Y-196585771D02*
X190577200Y-195085771D01*
X191077200Y-196585771D01*
X191577200Y-196442914D02*
X191648628Y-196514342D01*
X191577200Y-196585771D01*
X191505771Y-196514342D01*
X191577200Y-196442914D01*
X191577200Y-196585771D01*
X194577200Y-196585771D02*
X194577200Y-195085771D01*
X194720057Y-196014342D02*
X195148628Y-196585771D01*
X195148628Y-195585771D02*
X194577200Y-196157200D01*
X195791485Y-196585771D02*
X195791485Y-195585771D01*
X195791485Y-195085771D02*
X195720057Y-195157200D01*
X195791485Y-195228628D01*
X195862914Y-195157200D01*
X195791485Y-195085771D01*
X195791485Y-195228628D01*
X197148628Y-196514342D02*
X197005771Y-196585771D01*
X196720057Y-196585771D01*
X196577200Y-196514342D01*
X196505771Y-196442914D01*
X196434342Y-196300057D01*
X196434342Y-195871485D01*
X196505771Y-195728628D01*
X196577200Y-195657200D01*
X196720057Y-195585771D01*
X197005771Y-195585771D01*
X197148628Y-195657200D01*
X198434342Y-196585771D02*
X198434342Y-195800057D01*
X198362914Y-195657200D01*
X198220057Y-195585771D01*
X197934342Y-195585771D01*
X197791485Y-195657200D01*
X198434342Y-196514342D02*
X198291485Y-196585771D01*
X197934342Y-196585771D01*
X197791485Y-196514342D01*
X197720057Y-196371485D01*
X197720057Y-196228628D01*
X197791485Y-196085771D01*
X197934342Y-196014342D01*
X198291485Y-196014342D01*
X198434342Y-195942914D01*
X199791485Y-196585771D02*
X199791485Y-195085771D01*
X199791485Y-196514342D02*
X199648628Y-196585771D01*
X199362914Y-196585771D01*
X199220057Y-196514342D01*
X199148628Y-196442914D01*
X199077200Y-196300057D01*
X199077200Y-195871485D01*
X199148628Y-195728628D01*
X199220057Y-195657200D01*
X199362914Y-195585771D01*
X199648628Y-195585771D01*
X199791485Y-195657200D01*
X202077200Y-197157200D02*
X202005771Y-197085771D01*
X201862914Y-196871485D01*
X201791485Y-196728628D01*
X201720057Y-196514342D01*
X201648628Y-196157200D01*
X201648628Y-195871485D01*
X201720057Y-195514342D01*
X201791485Y-195300057D01*
X201862914Y-195157200D01*
X202005771Y-194942914D01*
X202077200Y-194871485D01*
X203362914Y-195085771D02*
X202648628Y-195085771D01*
X202577200Y-195800057D01*
X202648628Y-195728628D01*
X202791485Y-195657200D01*
X203148628Y-195657200D01*
X203291485Y-195728628D01*
X203362914Y-195800057D01*
X203434342Y-195942914D01*
X203434342Y-196300057D01*
X203362914Y-196442914D01*
X203291485Y-196514342D01*
X203148628Y-196585771D01*
X202791485Y-196585771D01*
X202648628Y-196514342D01*
X202577200Y-196442914D01*
X204077200Y-196442914D02*
X204148628Y-196514342D01*
X204077200Y-196585771D01*
X204005771Y-196514342D01*
X204077200Y-196442914D01*
X204077200Y-196585771D01*
X205577200Y-196585771D02*
X204720057Y-196585771D01*
X205148628Y-196585771D02*
X205148628Y-195085771D01*
X205005771Y-195300057D01*
X204862914Y-195442914D01*
X204720057Y-195514342D01*
X206220057Y-196442914D02*
X206291485Y-196514342D01*
X206220057Y-196585771D01*
X206148628Y-196514342D01*
X206220057Y-196442914D01*
X206220057Y-196585771D01*
X207577200Y-195085771D02*
X207291485Y-195085771D01*
X207148628Y-195157200D01*
X207077200Y-195228628D01*
X206934342Y-195442914D01*
X206862914Y-195728628D01*
X206862914Y-196300057D01*
X206934342Y-196442914D01*
X207005771Y-196514342D01*
X207148628Y-196585771D01*
X207434342Y-196585771D01*
X207577200Y-196514342D01*
X207648628Y-196442914D01*
X207720057Y-196300057D01*
X207720057Y-195942914D01*
X207648628Y-195800057D01*
X207577200Y-195728628D01*
X207434342Y-195657200D01*
X207148628Y-195657200D01*
X207005771Y-195728628D01*
X206934342Y-195800057D01*
X206862914Y-195942914D01*
X208362914Y-196014342D02*
X209505771Y-196014342D01*
X210505771Y-195085771D02*
X210648628Y-195085771D01*
X210791485Y-195157200D01*
X210862914Y-195228628D01*
X210934342Y-195371485D01*
X211005771Y-195657200D01*
X211005771Y-196014342D01*
X210934342Y-196300057D01*
X210862914Y-196442914D01*
X210791485Y-196514342D01*
X210648628Y-196585771D01*
X210505771Y-196585771D01*
X210362914Y-196514342D01*
X210291485Y-196442914D01*
X210220057Y-196300057D01*
X210148628Y-196014342D01*
X210148628Y-195657200D01*
X210220057Y-195371485D01*
X210291485Y-195228628D01*
X210362914Y-195157200D01*
X210505771Y-195085771D01*
X211648628Y-196014342D02*
X212791485Y-196014342D01*
X214291485Y-196585771D02*
X213434342Y-196585771D01*
X213862914Y-196585771D02*
X213862914Y-195085771D01*
X213720057Y-195300057D01*
X213577200Y-195442914D01*
X213434342Y-195514342D01*
X215220057Y-195085771D02*
X215362914Y-195085771D01*
X215505771Y-195157200D01*
X215577200Y-195228628D01*
X215648628Y-195371485D01*
X215720057Y-195657200D01*
X215720057Y-196014342D01*
X215648628Y-196300057D01*
X215577200Y-196442914D01*
X215505771Y-196514342D01*
X215362914Y-196585771D01*
X215220057Y-196585771D01*
X215077200Y-196514342D01*
X215005771Y-196442914D01*
X214934342Y-196300057D01*
X214862914Y-196014342D01*
X214862914Y-195657200D01*
X214934342Y-195371485D01*
X215005771Y-195228628D01*
X215077200Y-195157200D01*
X215220057Y-195085771D01*
X216005771Y-196728628D02*
X217148628Y-196728628D01*
X218291485Y-196585771D02*
X217434342Y-196585771D01*
X217862914Y-196585771D02*
X217862914Y-195085771D01*
X217720057Y-195300057D01*
X217577200Y-195442914D01*
X217434342Y-195514342D01*
X219577200Y-195585771D02*
X219577200Y-196585771D01*
X219220057Y-195014342D02*
X218862914Y-196085771D01*
X219791485Y-196085771D01*
X220220057Y-197157200D02*
X220291485Y-197085771D01*
X220434342Y-196871485D01*
X220505771Y-196728628D01*
X220577200Y-196514342D01*
X220648628Y-196157200D01*
X220648628Y-195871485D01*
X220577200Y-195514342D01*
X220505771Y-195300057D01*
X220434342Y-195157200D01*
X220291485Y-194942914D01*
X220220057Y-194871485D01*
D10*
D11*
X177002200Y-191507200D02*
X285002200Y-191507200D01*
D10*
D12*
X264411485Y-193785771D02*
X263911485Y-193071485D01*
X263554342Y-193785771D02*
X263554342Y-192285771D01*
X264125771Y-192285771D01*
X264268628Y-192357200D01*
X264340057Y-192428628D01*
X264411485Y-192571485D01*
X264411485Y-192785771D01*
X264340057Y-192928628D01*
X264268628Y-193000057D01*
X264125771Y-193071485D01*
X263554342Y-193071485D01*
X265625771Y-193714342D02*
X265482914Y-193785771D01*
X265197200Y-193785771D01*
X265054342Y-193714342D01*
X264982914Y-193571485D01*
X264982914Y-193000057D01*
X265054342Y-192857200D01*
X265197200Y-192785771D01*
X265482914Y-192785771D01*
X265625771Y-192857200D01*
X265697200Y-193000057D01*
X265697200Y-193142914D01*
X264982914Y-193285771D01*
X266197200Y-192785771D02*
X266554342Y-193785771D01*
X266911485Y-192785771D01*
X267482914Y-193642914D02*
X267554342Y-193714342D01*
X267482914Y-193785771D01*
X267411485Y-193714342D01*
X267482914Y-193642914D01*
X267482914Y-193785771D01*
X267482914Y-192857200D02*
X267554342Y-192928628D01*
X267482914Y-193000057D01*
X267411485Y-192928628D01*
X267482914Y-192857200D01*
X267482914Y-193000057D01*
D10*
D11*
X178362914Y-193714342D02*
X178577200Y-193785771D01*
X178934342Y-193785771D01*
X179077200Y-193714342D01*
X179148628Y-193642914D01*
X179220057Y-193500057D01*
X179220057Y-193357200D01*
X179148628Y-193214342D01*
X179077200Y-193142914D01*
X178934342Y-193071485D01*
X178648628Y-193000057D01*
X178505771Y-192928628D01*
X178434342Y-192857200D01*
X178362914Y-192714342D01*
X178362914Y-192571485D01*
X178434342Y-192428628D01*
X178505771Y-192357200D01*
X178648628Y-192285771D01*
X179005771Y-192285771D01*
X179220057Y-192357200D01*
X179862914Y-193785771D02*
X179862914Y-192785771D01*
X179862914Y-192285771D02*
X179791485Y-192357200D01*
X179862914Y-192428628D01*
X179934342Y-192357200D01*
X179862914Y-192285771D01*
X179862914Y-192428628D01*
X180434342Y-192785771D02*
X181220057Y-192785771D01*
X180434342Y-193785771D01*
X181220057Y-193785771D01*
X182362914Y-193714342D02*
X182220057Y-193785771D01*
X181934342Y-193785771D01*
X181791485Y-193714342D01*
X181720057Y-193571485D01*
X181720057Y-193000057D01*
X181791485Y-192857200D01*
X181934342Y-192785771D01*
X182220057Y-192785771D01*
X182362914Y-192857200D01*
X182434342Y-193000057D01*
X182434342Y-193142914D01*
X181720057Y-193285771D01*
X183077200Y-193642914D02*
X183148628Y-193714342D01*
X183077200Y-193785771D01*
X183005771Y-193714342D01*
X183077200Y-193642914D01*
X183077200Y-193785771D01*
X183077200Y-192857200D02*
X183148628Y-192928628D01*
X183077200Y-193000057D01*
X183005771Y-192928628D01*
X183077200Y-192857200D01*
X183077200Y-193000057D01*
X184862914Y-193357200D02*
X185577200Y-193357200D01*
X184720057Y-193785771D02*
X185220057Y-192285771D01*
X185720057Y-193785771D01*
X186862914Y-192785771D02*
X186862914Y-193785771D01*
X186505771Y-192214342D02*
X186148628Y-193285771D01*
X187077200Y-193285771D01*
D10*
D11*
X263434342Y-196585771D02*
X263434342Y-195085771D01*
X264791485Y-196585771D02*
X264791485Y-195085771D01*
X264791485Y-196514342D02*
X264648628Y-196585771D01*
X264362914Y-196585771D01*
X264220057Y-196514342D01*
X264148628Y-196442914D01*
X264077200Y-196300057D01*
X264077200Y-195871485D01*
X264148628Y-195728628D01*
X264220057Y-195657200D01*
X264362914Y-195585771D01*
X264648628Y-195585771D01*
X264791485Y-195657200D01*
X265505771Y-196442914D02*
X265577200Y-196514342D01*
X265505771Y-196585771D01*
X265434342Y-196514342D01*
X265505771Y-196442914D01*
X265505771Y-196585771D01*
X265505771Y-195657200D02*
X265577200Y-195728628D01*
X265505771Y-195800057D01*
X265434342Y-195728628D01*
X265505771Y-195657200D01*
X265505771Y-195800057D01*
X268148628Y-196585771D02*
X267291485Y-196585771D01*
X267720057Y-196585771D02*
X267720057Y-195085771D01*
X267577200Y-195300057D01*
X267434342Y-195442914D01*
X267291485Y-195514342D01*
X269862914Y-195014342D02*
X268577200Y-196942914D01*
X271148628Y-196585771D02*
X270291485Y-196585771D01*
X270720057Y-196585771D02*
X270720057Y-195085771D01*
X270577200Y-195300057D01*
X270434342Y-195442914D01*
X270291485Y-195514342D01*
D10*
D11*
X177002200Y-187507200D02*
X285002200Y-187507200D01*
D10*
D13*
X178714580Y-188211961D02*
X179857438Y-188211961D01*
X179036009Y-190211961D02*
X179286009Y-188211961D01*
X180274104Y-190211961D02*
X180440771Y-188878628D01*
X180524104Y-188211961D02*
X180416961Y-188307200D01*
X180500295Y-188402438D01*
X180607438Y-188307200D01*
X180524104Y-188211961D01*
X180500295Y-188402438D01*
X181107438Y-188878628D02*
X181869342Y-188878628D01*
X181476485Y-188211961D02*
X181262200Y-189926247D01*
X181333628Y-190116723D01*
X181512200Y-190211961D01*
X181702676Y-190211961D01*
X182655057Y-190211961D02*
X182476485Y-190116723D01*
X182405057Y-189926247D01*
X182619342Y-188211961D01*
X184190771Y-190116723D02*
X183988390Y-190211961D01*
X183607438Y-190211961D01*
X183428866Y-190116723D01*
X183357438Y-189926247D01*
X183452676Y-189164342D01*
X183571723Y-188973866D01*
X183774104Y-188878628D01*
X184155057Y-188878628D01*
X184333628Y-188973866D01*
X184405057Y-189164342D01*
X184381247Y-189354819D01*
X183405057Y-189545295D01*
X185155057Y-190021485D02*
X185238390Y-190116723D01*
X185131247Y-190211961D01*
X185047914Y-190116723D01*
X185155057Y-190021485D01*
X185131247Y-190211961D01*
X185286009Y-188973866D02*
X185369342Y-189069104D01*
X185262200Y-189164342D01*
X185178866Y-189069104D01*
X185286009Y-188973866D01*
X185262200Y-189164342D01*
D10*
D11*
X178934342Y-185600057D02*
X178434342Y-185600057D01*
X178434342Y-186385771D02*
X178434342Y-184885771D01*
X179148628Y-184885771D01*
X179720057Y-186385771D02*
X179720057Y-185385771D01*
X179720057Y-184885771D02*
X179648628Y-184957200D01*
X179720057Y-185028628D01*
X179791485Y-184957200D01*
X179720057Y-184885771D01*
X179720057Y-185028628D01*
X180648628Y-186385771D02*
X180505771Y-186314342D01*
X180434342Y-186171485D01*
X180434342Y-184885771D01*
X181791485Y-186314342D02*
X181648628Y-186385771D01*
X181362914Y-186385771D01*
X181220057Y-186314342D01*
X181148628Y-186171485D01*
X181148628Y-185600057D01*
X181220057Y-185457200D01*
X181362914Y-185385771D01*
X181648628Y-185385771D01*
X181791485Y-185457200D01*
X181862914Y-185600057D01*
X181862914Y-185742914D01*
X181148628Y-185885771D01*
X182505771Y-186242914D02*
X182577200Y-186314342D01*
X182505771Y-186385771D01*
X182434342Y-186314342D01*
X182505771Y-186242914D01*
X182505771Y-186385771D01*
X182505771Y-185457200D02*
X182577200Y-185528628D01*
X182505771Y-185600057D01*
X182434342Y-185528628D01*
X182505771Y-185457200D01*
X182505771Y-185600057D01*
X185220057Y-186242914D02*
X185148628Y-186314342D01*
X184934342Y-186385771D01*
X184791485Y-186385771D01*
X184577200Y-186314342D01*
X184434342Y-186171485D01*
X184362914Y-186028628D01*
X184291485Y-185742914D01*
X184291485Y-185528628D01*
X184362914Y-185242914D01*
X184434342Y-185100057D01*
X184577200Y-184957200D01*
X184791485Y-184885771D01*
X184934342Y-184885771D01*
X185148628Y-184957200D01*
X185220057Y-185028628D01*
X186505771Y-184885771D02*
X186220057Y-184885771D01*
X186077200Y-184957200D01*
X186005771Y-185028628D01*
X185862914Y-185242914D01*
X185791485Y-185528628D01*
X185791485Y-186100057D01*
X185862914Y-186242914D01*
X185934342Y-186314342D01*
X186077200Y-186385771D01*
X186362914Y-186385771D01*
X186505771Y-186314342D01*
X186577200Y-186242914D01*
X186648628Y-186100057D01*
X186648628Y-185742914D01*
X186577200Y-185600057D01*
X186505771Y-185528628D01*
X186362914Y-185457200D01*
X186077200Y-185457200D01*
X185934342Y-185528628D01*
X185862914Y-185600057D01*
X185791485Y-185742914D01*
X187934342Y-185385771D02*
X187934342Y-186385771D01*
X187577200Y-184814342D02*
X187220057Y-185885771D01*
X188148628Y-185885771D01*
X189862914Y-186385771D02*
X189862914Y-184885771D01*
X190362914Y-185957200D01*
X190862914Y-184885771D01*
X190862914Y-186385771D01*
X191791485Y-186385771D02*
X191648628Y-186314342D01*
X191577200Y-186242914D01*
X191505771Y-186100057D01*
X191505771Y-185671485D01*
X191577200Y-185528628D01*
X191648628Y-185457200D01*
X191791485Y-185385771D01*
X192005771Y-185385771D01*
X192148628Y-185457200D01*
X192220057Y-185528628D01*
X192291485Y-185671485D01*
X192291485Y-186100057D01*
X192220057Y-186242914D01*
X192148628Y-186314342D01*
X192005771Y-186385771D01*
X191791485Y-186385771D01*
X193577200Y-186385771D02*
X193577200Y-184885771D01*
X193577200Y-186314342D02*
X193434342Y-186385771D01*
X193148628Y-186385771D01*
X193005771Y-186314342D01*
X192934342Y-186242914D01*
X192862914Y-186100057D01*
X192862914Y-185671485D01*
X192934342Y-185528628D01*
X193005771Y-185457200D01*
X193148628Y-185385771D01*
X193434342Y-185385771D01*
X193577200Y-185457200D01*
X194934342Y-185385771D02*
X194934342Y-186385771D01*
X194291485Y-185385771D02*
X194291485Y-186171485D01*
X194362914Y-186314342D01*
X194505771Y-186385771D01*
X194720057Y-186385771D01*
X194862914Y-186314342D01*
X194934342Y-186242914D01*
X195862914Y-186385771D02*
X195720057Y-186314342D01*
X195648628Y-186171485D01*
X195648628Y-184885771D01*
X197077200Y-186385771D02*
X197077200Y-185600057D01*
X197005771Y-185457200D01*
X196862914Y-185385771D01*
X196577200Y-185385771D01*
X196434342Y-185457200D01*
X197077200Y-186314342D02*
X196934342Y-186385771D01*
X196577200Y-186385771D01*
X196434342Y-186314342D01*
X196362914Y-186171485D01*
X196362914Y-186028628D01*
X196434342Y-185885771D01*
X196577200Y-185814342D01*
X196934342Y-185814342D01*
X197077200Y-185742914D01*
X197577200Y-185385771D02*
X198148628Y-185385771D01*
X197791485Y-184885771D02*
X197791485Y-186171485D01*
X197862914Y-186314342D01*
X198005771Y-186385771D01*
X198148628Y-186385771D01*
X198862914Y-186385771D02*
X198720057Y-186314342D01*
X198648628Y-186242914D01*
X198577200Y-186100057D01*
X198577200Y-185671485D01*
X198648628Y-185528628D01*
X198720057Y-185457200D01*
X198862914Y-185385771D01*
X199077200Y-185385771D01*
X199220057Y-185457200D01*
X199291485Y-185528628D01*
X199362914Y-185671485D01*
X199362914Y-186100057D01*
X199291485Y-186242914D01*
X199220057Y-186314342D01*
X199077200Y-186385771D01*
X198862914Y-186385771D01*
X200005771Y-186385771D02*
X200005771Y-185385771D01*
X200005771Y-185671485D02*
X200077200Y-185528628D01*
X200148628Y-185457200D01*
X200291485Y-185385771D01*
X200434342Y-185385771D01*
X200934342Y-186242914D02*
X201005771Y-186314342D01*
X200934342Y-186385771D01*
X200862914Y-186314342D01*
X200934342Y-186242914D01*
X200934342Y-186385771D01*
X201648628Y-186385771D02*
X201648628Y-184885771D01*
X201791485Y-185814342D02*
X202220057Y-186385771D01*
X202220057Y-185385771D02*
X201648628Y-185957200D01*
X202862914Y-186385771D02*
X202862914Y-185385771D01*
X202862914Y-184885771D02*
X202791485Y-184957200D01*
X202862914Y-185028628D01*
X202934342Y-184957200D01*
X202862914Y-184885771D01*
X202862914Y-185028628D01*
X204220057Y-186314342D02*
X204077200Y-186385771D01*
X203791485Y-186385771D01*
X203648628Y-186314342D01*
X203577200Y-186242914D01*
X203505771Y-186100057D01*
X203505771Y-185671485D01*
X203577200Y-185528628D01*
X203648628Y-185457200D01*
X203791485Y-185385771D01*
X204077200Y-185385771D01*
X204220057Y-185457200D01*
X205505771Y-186385771D02*
X205505771Y-185600057D01*
X205434342Y-185457200D01*
X205291485Y-185385771D01*
X205005771Y-185385771D01*
X204862914Y-185457200D01*
X205505771Y-186314342D02*
X205362914Y-186385771D01*
X205005771Y-186385771D01*
X204862914Y-186314342D01*
X204791485Y-186171485D01*
X204791485Y-186028628D01*
X204862914Y-185885771D01*
X205005771Y-185814342D01*
X205362914Y-185814342D01*
X205505771Y-185742914D01*
X206862914Y-186385771D02*
X206862914Y-184885771D01*
X206862914Y-186314342D02*
X206720057Y-186385771D01*
X206434342Y-186385771D01*
X206291485Y-186314342D01*
X206220057Y-186242914D01*
X206148628Y-186100057D01*
X206148628Y-185671485D01*
X206220057Y-185528628D01*
X206291485Y-185457200D01*
X206434342Y-185385771D01*
X206720057Y-185385771D01*
X206862914Y-185457200D01*
X207220057Y-186528628D02*
X208362914Y-186528628D01*
X208720057Y-185385771D02*
X208720057Y-186885771D01*
X208720057Y-185457200D02*
X208862914Y-185385771D01*
X209148628Y-185385771D01*
X209291485Y-185457200D01*
X209362914Y-185528628D01*
X209434342Y-185671485D01*
X209434342Y-186100057D01*
X209362914Y-186242914D01*
X209291485Y-186314342D01*
X209148628Y-186385771D01*
X208862914Y-186385771D01*
X208720057Y-186314342D01*
X210720057Y-186314342D02*
X210577200Y-186385771D01*
X210291485Y-186385771D01*
X210148628Y-186314342D01*
X210077200Y-186242914D01*
X210005771Y-186100057D01*
X210005771Y-185671485D01*
X210077200Y-185528628D01*
X210148628Y-185457200D01*
X210291485Y-185385771D01*
X210577200Y-185385771D01*
X210720057Y-185457200D01*
X211362914Y-186385771D02*
X211362914Y-184885771D01*
X211362914Y-185457200D02*
X211505771Y-185385771D01*
X211791485Y-185385771D01*
X211934342Y-185457200D01*
X212005771Y-185528628D01*
X212077200Y-185671485D01*
X212077200Y-186100057D01*
X212005771Y-186242914D01*
X211934342Y-186314342D01*
X211791485Y-186385771D01*
X211505771Y-186385771D01*
X211362914Y-186314342D01*
D10*
D11*
X177002200Y-181507200D02*
X285002200Y-181507200D01*
D10*
D11*
X178362914Y-183614342D02*
X178577200Y-183685771D01*
X178934342Y-183685771D01*
X179077200Y-183614342D01*
X179148628Y-183542914D01*
X179220057Y-183400057D01*
X179220057Y-183257200D01*
X179148628Y-183114342D01*
X179077200Y-183042914D01*
X178934342Y-182971485D01*
X178648628Y-182900057D01*
X178505771Y-182828628D01*
X178434342Y-182757200D01*
X178362914Y-182614342D01*
X178362914Y-182471485D01*
X178434342Y-182328628D01*
X178505771Y-182257200D01*
X178648628Y-182185771D01*
X179005771Y-182185771D01*
X179220057Y-182257200D01*
X179862914Y-183685771D02*
X179862914Y-182185771D01*
X180505771Y-183685771D02*
X180505771Y-182900057D01*
X180434342Y-182757200D01*
X180291485Y-182685771D01*
X180077200Y-182685771D01*
X179934342Y-182757200D01*
X179862914Y-182828628D01*
X181791485Y-183614342D02*
X181648628Y-183685771D01*
X181362914Y-183685771D01*
X181220057Y-183614342D01*
X181148628Y-183471485D01*
X181148628Y-182900057D01*
X181220057Y-182757200D01*
X181362914Y-182685771D01*
X181648628Y-182685771D01*
X181791485Y-182757200D01*
X181862914Y-182900057D01*
X181862914Y-183042914D01*
X181148628Y-183185771D01*
X183077200Y-183614342D02*
X182934342Y-183685771D01*
X182648628Y-183685771D01*
X182505771Y-183614342D01*
X182434342Y-183471485D01*
X182434342Y-182900057D01*
X182505771Y-182757200D01*
X182648628Y-182685771D01*
X182934342Y-182685771D01*
X183077200Y-182757200D01*
X183148628Y-182900057D01*
X183148628Y-183042914D01*
X182434342Y-183185771D01*
X183577200Y-182685771D02*
X184148628Y-182685771D01*
X183791485Y-182185771D02*
X183791485Y-183471485D01*
X183862914Y-183614342D01*
X184005771Y-183685771D01*
X184148628Y-183685771D01*
X184648628Y-183542914D02*
X184720057Y-183614342D01*
X184648628Y-183685771D01*
X184577200Y-183614342D01*
X184648628Y-183542914D01*
X184648628Y-183685771D01*
X184648628Y-182757200D02*
X184720057Y-182828628D01*
X184648628Y-182900057D01*
X184577200Y-182828628D01*
X184648628Y-182757200D01*
X184648628Y-182900057D01*
D10*
D11*
X197002200Y-191507200D02*
X197002200Y-194507200D01*
D10*
D11*
X261002200Y-191507200D02*
X261002200Y-198007200D01*
D14*
%TO.P,U1,3*%
%TO.N,Net-(C6-Pad1)*%
X178435000Y-83820000D03*
%TO.P,U1,2*%
%TO.N,GND*%
X178435000Y-86360000D03*
D15*
%TO.P,U1,1*%
%TO.N,+9V*%
X178435000Y-88900000D03*
D16*
%TO.P,U1,*%
%TO.N,GND*%
X161775000Y-86360000D03*
%TD*%
D17*
%TO.P,J3,2*%
%TO.N,GND*%
X156210000Y-76835000D03*
D18*
%TO.P,J3,1*%
%TO.N,Net-(J3-Pad1)*%
X153670000Y-76835000D03*
%TD*%
D19*
%TO.P,R7,2*%
%TO.N,GND*%
X137668000Y-109093000D03*
D20*
%TO.P,R7,1*%
%TO.N,CHROMA_OUT*%
X127508000Y-109093000D03*
%TD*%
D19*
%TO.P,R5,2*%
%TO.N,Net-(Q1-Pad3)*%
X137668000Y-106045000D03*
D20*
%TO.P,R5,1*%
%TO.N,CHROMA_OUT*%
X127508000Y-106045000D03*
%TD*%
D19*
%TO.P,R12,2*%
%TO.N,GND*%
X143764000Y-95885000D03*
D20*
%TO.P,R12,1*%
%TO.N,LUMA_OUT*%
X133604000Y-95885000D03*
%TD*%
D19*
%TO.P,R11,2*%
%TO.N,Net-(Q3-Pad3)*%
X143764000Y-99695000D03*
D20*
%TO.P,R11,1*%
%TO.N,LUMA_OUT*%
X133604000Y-99695000D03*
%TD*%
D19*
%TO.P,R3,2*%
%TO.N,GND*%
X138811000Y-113030000D03*
D20*
%TO.P,R3,1*%
%TO.N,Net-(C1-Pad1)*%
X148971000Y-113030000D03*
%TD*%
D19*
%TO.P,R2,2*%
%TO.N,VCC*%
X148209000Y-102997000D03*
D20*
%TO.P,R2,1*%
%TO.N,Net-(C1-Pad1)*%
X138049000Y-102997000D03*
%TD*%
D19*
%TO.P,R9,2*%
%TO.N,GND*%
X142875000Y-78359000D03*
D20*
%TO.P,R9,1*%
%TO.N,Net-(C4-Pad1)*%
X142875000Y-88519000D03*
%TD*%
D19*
%TO.P,R10,2*%
%TO.N,GND*%
X136652000Y-88519000D03*
D20*
%TO.P,R10,1*%
%TO.N,COMPOSITE*%
X136652000Y-78359000D03*
%TD*%
D19*
%TO.P,R6,2*%
%TO.N,Net-(Q2-Pad3)*%
X146558000Y-98679000D03*
D20*
%TO.P,R6,1*%
%TO.N,Net-(C4-Pad1)*%
X146558000Y-88519000D03*
%TD*%
D19*
%TO.P,R8,2*%
%TO.N,Net-(C3-Pad1)*%
X163830000Y-96520000D03*
D20*
%TO.P,R8,1*%
%TO.N,COMPOSITE*%
X153670000Y-96520000D03*
%TD*%
D19*
%TO.P,R1,2*%
%TO.N,GND*%
X138811000Y-116205000D03*
D20*
%TO.P,R1,1*%
%TO.N,CHROMA_IN*%
X148971000Y-116205000D03*
%TD*%
D19*
%TO.P,R4,2*%
%TO.N,Net-(D1-Pad2)*%
X160655000Y-102997000D03*
D20*
%TO.P,R4,1*%
%TO.N,VCC*%
X150495000Y-102997000D03*
%TD*%
D21*
%TO.P,Q1,1*%
%TO.N,VCC*%
X141605000Y-108585000D03*
D22*
%TO.P,Q1,3*%
%TO.N,Net-(Q1-Pad3)*%
X141605000Y-106045000D03*
%TO.P,Q1,2*%
%TO.N,Net-(C1-Pad1)*%
X141605000Y-107315000D03*
%TD*%
D21*
%TO.P,Q2,1*%
%TO.N,VCC*%
X146558000Y-108585000D03*
D22*
%TO.P,Q2,3*%
%TO.N,Net-(Q2-Pad3)*%
X146558000Y-106045000D03*
%TO.P,Q2,2*%
%TO.N,Net-(C1-Pad1)*%
X146558000Y-107315000D03*
%TD*%
%TO.P,Q4,2*%
%TO.N,Net-(D1-Pad2)*%
X159385000Y-107315000D03*
%TO.P,Q4,3*%
%TO.N,Net-(L1-Pad2)*%
X159385000Y-106045000D03*
D21*
%TO.P,Q4,1*%
%TO.N,VCC*%
X159385000Y-108585000D03*
%TD*%
D22*
%TO.P,Q3,2*%
%TO.N,Net-(D1-Pad2)*%
X152400000Y-107315000D03*
%TO.P,Q3,3*%
%TO.N,Net-(Q3-Pad3)*%
X152400000Y-106045000D03*
D21*
%TO.P,Q3,1*%
%TO.N,VCC*%
X152400000Y-108585000D03*
%TD*%
D19*
%TO.P,L1,2*%
%TO.N,Net-(L1-Pad2)*%
X163830000Y-109982000D03*
D20*
%TO.P,L1,1*%
%TO.N,Net-(C3-Pad1)*%
X163830000Y-99822000D03*
%TD*%
D17*
%TO.P,JP2,2*%
%TO.N,Net-(J2-Pad2)*%
X158115000Y-122428000D03*
D18*
%TO.P,JP2,1*%
%TO.N,LUMA_IN*%
X158115000Y-119888000D03*
%TD*%
D17*
%TO.P,JP1,2*%
%TO.N,Net-(J2-Pad3)*%
X154305000Y-122428000D03*
D18*
%TO.P,JP1,1*%
%TO.N,CHROMA_IN*%
X154305000Y-119888000D03*
%TD*%
D19*
%TO.P,D1,2*%
%TO.N,Net-(D1-Pad2)*%
X155321000Y-107315000D03*
D23*
%TO.P,D1,1*%
%TO.N,LUMA_IN*%
X155321000Y-114935000D03*
%TD*%
D20*
%TO.P,C7,2*%
%TO.N,GND*%
X173355000Y-75010000D03*
%TO.P,C7,1*%
%TO.N,Net-(C6-Pad1)*%
X173355000Y-80010000D03*
%TD*%
%TO.P,C6,2*%
%TO.N,GND*%
X178435000Y-76240000D03*
D23*
%TO.P,C6,1*%
%TO.N,Net-(C6-Pad1)*%
X178435000Y-78740000D03*
%TD*%
D20*
%TO.P,C5,2*%
%TO.N,GND*%
X175935000Y-95250000D03*
D23*
%TO.P,C5,1*%
%TO.N,+9V*%
X178435000Y-95250000D03*
%TD*%
D20*
%TO.P,C4,2*%
%TO.N,COMPOSITE*%
X139700000Y-83519000D03*
%TO.P,C4,1*%
%TO.N,Net-(C4-Pad1)*%
X139700000Y-88519000D03*
%TD*%
%TO.P,C2,2*%
%TO.N,GND*%
X151765000Y-117395000D03*
%TO.P,C2,1*%
%TO.N,Net-(C1-Pad1)*%
X151765000Y-112395000D03*
%TD*%
%TO.P,C1,2*%
%TO.N,CHROMA_IN*%
X148891000Y-119888000D03*
%TO.P,C1,1*%
%TO.N,Net-(C1-Pad1)*%
X143891000Y-119888000D03*
%TD*%
%TO.P,C3,2*%
%TO.N,GND*%
X155655000Y-99822000D03*
%TO.P,C3,1*%
%TO.N,Net-(C3-Pad1)*%
X160655000Y-99822000D03*
%TD*%
D24*
%TO.P,J4,1*%
%TO.N,GND*%
X164830000Y-66349000D03*
D25*
%TO.P,J4,2*%
%TO.N,/AUD_R*%
X169830000Y-71355000D03*
%TO.P,J4,5*%
%TO.N,AUDIO_IN*%
X159830000Y-71355000D03*
%TO.P,J4,3*%
%TO.N,N/C*%
X167330000Y-71355000D03*
%TO.P,J4,4*%
X162330000Y-71355000D03*
%TD*%
D26*
%TO.P,J5,2*%
%TO.N,COMPOSITE*%
X133350000Y-71120000D03*
D27*
%TO.P,J5,1*%
%TO.N,GND*%
X137160000Y-68580000D03*
D26*
%TO.P,J5,2*%
%TO.N,COMPOSITE*%
X140970000Y-71120000D03*
%TD*%
D18*
%TO.P,J1,1*%
%TO.N,COMPOSITE*%
X138515000Y-121400000D03*
D17*
%TO.P,J1,2*%
%TO.N,LUMA_OUT*%
X135975000Y-121400000D03*
%TO.P,J1,3*%
%TO.N,CHROMA_OUT*%
X133435000Y-121400000D03*
%TO.P,J1,4*%
%TO.N,GND*%
X130895000Y-121400000D03*
%TD*%
D18*
%TO.P,J2,1*%
%TO.N,+9V*%
X170115000Y-121400000D03*
D17*
%TO.P,J2,2*%
%TO.N,Net-(J2-Pad2)*%
X167575000Y-121400000D03*
%TO.P,J2,3*%
%TO.N,Net-(J2-Pad3)*%
X165035000Y-121400000D03*
%TO.P,J2,4*%
%TO.N,AUDIO_IN*%
X162495000Y-121400000D03*
%TD*%
D18*
%TO.P,JP3,1*%
%TO.N,AUDIO_IN*%
X162290000Y-76835000D03*
D17*
%TO.P,JP3,2*%
%TO.N,/AUD_R*%
X164830000Y-76835000D03*
%TO.P,JP3,3*%
%TO.N,Net-(J3-Pad1)*%
X167370000Y-76835000D03*
%TD*%
D23*
%TO.P,D2,1*%
%TO.N,VCC*%
X156845000Y-90170000D03*
D19*
%TO.P,D2,2*%
%TO.N,Net-(C6-Pad1)*%
X156845000Y-82550000D03*
%TD*%
D28*
%TO.N,COMPOSITE*%
X153670000Y-83566000D03*
%TO.N,VCC*%
X141605000Y-110744000D03*
X146558000Y-110744000D03*
X149352000Y-92710000D03*
X149352000Y-110744000D03*
%TO.N,AUDIO_IN*%
X169545000Y-118745000D03*
X170815000Y-85090000D03*
X170815000Y-82550000D03*
%TO.N,Net-(C1-Pad1)*%
X143891000Y-107315000D03*
%TO.N,Net-(J2-Pad2)*%
X160150000Y-115065000D03*
X160150000Y-117980000D03*
%TD*%
D29*
%TO.N,Net-(C3-Pad1)*%
X160655000Y-99822000D02*
X163830000Y-99822000D01*
X163830000Y-96520000D02*
X163830000Y-99822000D01*
%TO.N,Net-(C6-Pad1)*%
X178435000Y-83820000D02*
X175895000Y-83820000D01*
X168275000Y-82550000D02*
X169545000Y-83820000D01*
X156845000Y-82550000D02*
X168275000Y-82550000D01*
X173355000Y-80010000D02*
X173355000Y-83820000D01*
X172720000Y-83820000D02*
X172085000Y-83820000D01*
X175895000Y-83820000D02*
X172720000Y-83820000D01*
X172085000Y-83820000D02*
X169545000Y-83820000D01*
X178435000Y-83820000D02*
X178435000Y-78740000D01*
%TO.N,COMPOSITE*%
X133350000Y-71120000D02*
X132715000Y-71120000D01*
X139747000Y-83566000D02*
X139700000Y-83519000D01*
X153670000Y-83566000D02*
X139747000Y-83566000D01*
X139700000Y-71247000D02*
X139827000Y-71120000D01*
X139827000Y-71120000D02*
X140970000Y-71120000D01*
X139446000Y-78359000D02*
X139700000Y-78105000D01*
X136652000Y-78359000D02*
X139446000Y-78359000D01*
X139700000Y-78105000D02*
X139700000Y-71247000D01*
X139700000Y-83519000D02*
X139700000Y-78105000D01*
D30*
X140970000Y-71120000D02*
X133350000Y-71120000D01*
D29*
%TO.N,VCC*%
X156845000Y-90170000D02*
X156845000Y-92710000D01*
X156845000Y-92710000D02*
X154940000Y-92710000D01*
X141605000Y-108585000D02*
X141605000Y-110617000D01*
X146558000Y-108585000D02*
X146558000Y-110744000D01*
X152400000Y-108585000D02*
X152400000Y-110744000D01*
X151765000Y-110744000D02*
X149352000Y-110744000D01*
X159385000Y-110744000D02*
X159385000Y-108585000D01*
X149352000Y-110744000D02*
X146558000Y-110744000D01*
X151003000Y-92710000D02*
X149987000Y-92710000D01*
X149352000Y-92710000D02*
X151003000Y-92710000D01*
X154940000Y-92710000D02*
X151003000Y-92710000D01*
X159385000Y-110744000D02*
X151765000Y-110744000D01*
%TO.N,LUMA_OUT*%
X133604000Y-95885000D02*
X133604000Y-99695000D01*
X135975000Y-102066000D02*
X135975000Y-121400000D01*
X133604000Y-99695000D02*
X135975000Y-102066000D01*
%TO.N,CHROMA_OUT*%
X127508000Y-106045000D02*
X127508000Y-109093000D01*
X127508000Y-109093000D02*
X132651500Y-109093000D01*
X133435000Y-109876500D02*
X133435000Y-121400000D01*
X132651500Y-109093000D02*
X133435000Y-109876500D01*
%TO.N,CHROMA_IN*%
X154305000Y-119888000D02*
X148891000Y-119888000D01*
D31*
X148971000Y-119808000D02*
X148891000Y-119888000D01*
D29*
X148971000Y-116205000D02*
X148971000Y-119808000D01*
%TO.N,AUDIO_IN*%
X162290000Y-76835000D02*
X160655000Y-76835000D01*
X159830000Y-76010000D02*
X159830000Y-71355000D01*
X160655000Y-76835000D02*
X159830000Y-76010000D01*
X170815000Y-82550000D02*
X170815000Y-82550000D01*
X170815000Y-80010000D02*
X169545000Y-78740000D01*
X169545000Y-78740000D02*
X163195000Y-78740000D01*
X163195000Y-78740000D02*
X162290000Y-77835000D01*
X162290000Y-76835000D02*
X162290000Y-77835000D01*
X169545000Y-118745000D02*
X170815000Y-117475000D01*
X170815000Y-97790000D02*
X170815000Y-117475000D01*
X170815000Y-97790000D02*
X170815000Y-85090000D01*
X170815000Y-85090000D02*
X170815000Y-85090000D01*
X170815000Y-82550000D02*
X170815000Y-80010000D01*
%TO.N,/AUD_R*%
X169830000Y-71355000D02*
X169830000Y-73375000D01*
X164830000Y-75200000D02*
X164830000Y-76835000D01*
X165735000Y-74295000D02*
X164830000Y-75200000D01*
X168910000Y-74295000D02*
X165735000Y-74295000D01*
X169830000Y-73375000D02*
X168910000Y-74295000D01*
%TO.N,+9V*%
X178435000Y-95250000D02*
X178435000Y-120650000D01*
X177685000Y-121400000D02*
X174510000Y-121400000D01*
X178435000Y-120650000D02*
X177685000Y-121400000D01*
X178435000Y-95250000D02*
X178435000Y-88900000D01*
X174510000Y-121400000D02*
X170115000Y-121400000D01*
%TO.N,Net-(C4-Pad1)*%
X146558000Y-88519000D02*
X142875000Y-88519000D01*
X142875000Y-88519000D02*
X139700000Y-88519000D01*
D31*
%TO.N,Net-(L1-Pad2)*%
X163830000Y-109363000D02*
X163830000Y-110490000D01*
D29*
X159512000Y-106045000D02*
X161925000Y-106045000D01*
X161925000Y-106045000D02*
X163830000Y-107950000D01*
X163830000Y-107950000D02*
X163830000Y-109982000D01*
%TO.N,Net-(Q1-Pad3)*%
X137668000Y-106045000D02*
X141605000Y-106045000D01*
%TO.N,Net-(Q3-Pad3)*%
X143764000Y-99695000D02*
X144907000Y-100838000D01*
X144907000Y-100838000D02*
X151130000Y-100838000D01*
X151130000Y-100838000D02*
X151638000Y-100838000D01*
X151638000Y-100838000D02*
X152400000Y-101600000D01*
D31*
X151765000Y-106045000D02*
X152400000Y-105410000D01*
D29*
X152400000Y-105410000D02*
X152400000Y-106045000D01*
X152400000Y-101600000D02*
X152400000Y-105410000D01*
D31*
%TO.N,Net-(C1-Pad1)*%
X143891000Y-107315000D02*
X143891000Y-107315000D01*
D29*
X141605000Y-107315000D02*
X143891000Y-107315000D01*
X148971000Y-113030000D02*
X143891000Y-113030000D01*
X143891000Y-113919000D02*
X143891000Y-107315000D01*
X143891000Y-119888000D02*
X143891000Y-113919000D01*
X143891000Y-107315000D02*
X146558000Y-107315000D01*
X143891000Y-104267000D02*
X143891000Y-107315000D01*
X142621000Y-102997000D02*
X143891000Y-104267000D01*
X138049000Y-102997000D02*
X142621000Y-102997000D01*
D31*
X149606000Y-112395000D02*
X148971000Y-113030000D01*
X151130000Y-113030000D02*
X151765000Y-112395000D01*
D29*
X148971000Y-113030000D02*
X151130000Y-113030000D01*
%TO.N,Net-(D1-Pad2)*%
X155321000Y-107315000D02*
X151765000Y-107315000D01*
X155321000Y-107315000D02*
X159512000Y-107315000D01*
X155321000Y-104902000D02*
X155321000Y-107315000D01*
X157226000Y-102997000D02*
X155321000Y-104902000D01*
X160655000Y-102997000D02*
X157226000Y-102997000D01*
D31*
X156337000Y-107315000D02*
X155321000Y-107315000D01*
%TO.N,Net-(J2-Pad2)*%
X157480000Y-122428000D02*
X158877000Y-122428000D01*
D29*
X167575000Y-121400000D02*
X167575000Y-116270000D01*
X167575000Y-116270000D02*
X166370000Y-115065000D01*
D31*
X160150000Y-115065000D02*
X160150000Y-115065000D01*
D29*
X166370000Y-115065000D02*
X160150000Y-115065000D01*
D31*
X160150000Y-115065000D02*
X160020000Y-114935000D01*
D29*
X160150000Y-117980000D02*
X160150000Y-120520000D01*
D31*
X158242000Y-122428000D02*
X158115000Y-122428000D01*
D29*
X160150000Y-120520000D02*
X158242000Y-122428000D01*
D31*
%TO.N,Net-(J2-Pad3)*%
X165100000Y-121335000D02*
X165035000Y-121400000D01*
D29*
X165035000Y-117410000D02*
X163830000Y-116205000D01*
X156210000Y-117475000D02*
X156210000Y-120523000D01*
X157480000Y-116205000D02*
X156210000Y-117475000D01*
X156210000Y-120523000D02*
X154305000Y-122428000D01*
X163830000Y-116205000D02*
X157480000Y-116205000D01*
X165035000Y-121400000D02*
X165035000Y-117410000D01*
%TD*%
M02*
